<?xml version="1.0" encoding="utf-8"?>
<!DOCTYPE svg PUBLIC "-//W3C//DTD SVG 1.1//EN" "http://www.w3.org/Graphics/SVG/1.1/DTD/svg11.dtd">
<svg version="1.1" id="Layer_1" xmlns="http://www.w3.org/2000/svg" xmlns:xlink="http://www.w3.org/1999/xlink" x="0px" y="0px"
	 width="52.014px" height="38.003px" viewBox="0 0 52.014 38.003" enable-background="new 0 0 52.014 38.003" xml:space="preserve">
<g>
	<g>
		<g>
			<g>
				<path d="M41.967,26.226c-0.416-0.371-0.743-0.336-0.743,0.08s0.743,0.752,0.743,0.752s0.744-0.336,0.744-0.752
					S42.385,25.855,41.967,26.226z"/>
				<path d="M0.316,34.067H0v-9.507h0.316v5.13c0.24-0.504,0.603-0.911,1.085-1.22c0.483-0.311,1.023-0.464,1.622-0.464
					c0.419,0,0.812,0.078,1.181,0.236c0.367,0.157,0.689,0.374,0.967,0.653c0.278,0.276,0.496,0.601,0.653,0.967
					c0.158,0.367,0.238,0.761,0.238,1.181v3.023H5.746v-3.023c0-0.378-0.071-0.733-0.212-1.063
					c-0.142-0.331-0.336-0.618-0.582-0.866c-0.248-0.247-0.537-0.441-0.867-0.583c-0.33-0.143-0.684-0.212-1.062-0.212
					c-0.378,0-0.73,0.069-1.056,0.212c-0.326,0.142-0.611,0.336-0.857,0.583c-0.246,0.248-0.44,0.535-0.583,0.866
					c-0.142,0.33-0.211,0.685-0.211,1.063V34.067z"/>
				<path d="M14.274,36.9c0.585,0.525,1.227,0.787,1.919,0.787c0.378,0,0.733-0.07,1.063-0.212c0.33-0.142,0.619-0.335,0.866-0.582
					c0.246-0.247,0.44-0.533,0.582-0.858c0.142-0.326,0.212-0.677,0.212-1.056v-2.583c-0.251,0.504-0.618,0.909-1.101,1.213
					c-0.482,0.306-1.024,0.458-1.622,0.458c-0.419,0-0.813-0.079-1.18-0.237c-0.368-0.156-0.688-0.373-0.96-0.646
					c-0.273-0.272-0.488-0.592-0.646-0.959s-0.236-0.76-0.236-1.181v-3.038h0.316v3.038c0,0.378,0.07,0.729,0.212,1.055
					s0.335,0.612,0.583,0.858c0.247,0.247,0.533,0.44,0.858,0.582c0.324,0.142,0.677,0.213,1.054,0.213
					c0.378,0,0.733-0.071,1.063-0.213c0.33-0.142,0.619-0.335,0.866-0.582c0.246-0.246,0.44-0.532,0.582-0.858
					s0.212-0.676,0.212-1.055v-3.038h0.315v6.973c0,0.42-0.079,0.813-0.235,1.181c-0.159,0.367-0.376,0.687-0.653,0.96
					c-0.279,0.273-0.602,0.488-0.969,0.645c-0.367,0.158-0.761,0.237-1.181,0.237c-0.409,0-0.797-0.078-1.165-0.229
					s-0.693-0.365-0.976-0.637L14.274,36.9z"/>
				<path d="M21.88,34.067h-0.315v-9.507h0.315v5.13c0.252-0.504,0.619-0.911,1.102-1.22c0.482-0.311,1.024-0.464,1.622-0.464
					c0.419,0,0.813,0.078,1.181,0.236c0.368,0.157,0.687,0.374,0.96,0.653c0.273,0.276,0.488,0.601,0.646,0.967
					c0.157,0.367,0.235,0.761,0.235,1.181s-0.078,0.813-0.235,1.181c-0.158,0.367-0.373,0.688-0.646,0.959
					c-0.274,0.273-0.593,0.49-0.96,0.646c-0.367,0.158-0.761,0.237-1.181,0.237c-0.597,0-1.14-0.151-1.622-0.458
					c-0.483-0.304-0.85-0.708-1.102-1.213V34.067z M27.31,31.044c0-0.378-0.069-0.733-0.211-1.063
					c-0.142-0.331-0.337-0.618-0.583-0.866c-0.247-0.247-0.533-0.441-0.857-0.583c-0.325-0.143-0.678-0.212-1.055-0.212
					c-0.369,0-0.711,0.068-1.031,0.204c-0.32,0.137-0.604,0.33-0.85,0.576s-0.446,0.535-0.598,0.866
					c-0.153,0.331-0.233,0.689-0.244,1.079c0,0.378,0.071,0.729,0.213,1.055c0.141,0.326,0.334,0.612,0.582,0.858
					c0.248,0.247,0.536,0.44,0.867,0.582c0.33,0.142,0.684,0.213,1.062,0.213c0.377,0,0.73-0.071,1.055-0.213
					c0.324-0.142,0.61-0.335,0.857-0.582c0.246-0.246,0.441-0.532,0.583-0.858S27.31,31.423,27.31,31.044z"/>
				<path d="M33.907,32.397c-0.251,0.504-0.618,0.909-1.102,1.213c-0.482,0.306-1.024,0.458-1.622,0.458
					c-0.42,0-0.813-0.079-1.181-0.237c-0.368-0.156-0.688-0.373-0.959-0.646c-0.274-0.272-0.488-0.593-0.646-0.96
					c-0.157-0.367-0.236-0.76-0.236-1.181s0.079-0.814,0.236-1.181c0.158-0.367,0.373-0.691,0.646-0.967
					c0.272-0.279,0.592-0.497,0.959-0.653c0.367-0.159,0.76-0.236,1.181-0.236c0.598,0,1.139,0.153,1.622,0.464
					c0.483,0.309,0.851,0.716,1.102,1.22v-1.684h0.315v3.038v3.023h-0.315V32.397z M28.476,31.044c0,0.378,0.071,0.729,0.213,1.055
					s0.335,0.612,0.582,0.858c0.248,0.247,0.532,0.44,0.858,0.582c0.325,0.142,0.677,0.213,1.055,0.213
					c0.378,0,0.731-0.071,1.063-0.213c0.331-0.142,0.619-0.335,0.865-0.582c0.247-0.246,0.44-0.532,0.583-0.858
					s0.212-0.676,0.212-1.055c-0.021-0.389-0.105-0.748-0.251-1.079c-0.148-0.331-0.345-0.62-0.59-0.866
					c-0.247-0.246-0.533-0.438-0.858-0.576c-0.325-0.135-0.666-0.204-1.023-0.204c-0.378,0-0.729,0.069-1.055,0.212
					c-0.326,0.142-0.61,0.336-0.858,0.583c-0.247,0.248-0.44,0.535-0.582,0.866C28.547,30.312,28.476,30.667,28.476,31.044z"/>
				<path d="M35.343,34.067h-0.316v-9.507h0.316v5.13c0.251-0.504,0.618-0.911,1.1-1.22c0.483-0.311,1.024-0.464,1.622-0.464
					c0.42,0,0.814,0.078,1.182,0.236c0.368,0.157,0.688,0.374,0.96,0.653c0.272,0.276,0.487,0.601,0.645,0.967
					c0.157,0.367,0.237,0.761,0.237,1.181s-0.08,0.813-0.237,1.181c-0.158,0.367-0.373,0.688-0.645,0.96
					c-0.273,0.273-0.593,0.489-0.96,0.646c-0.368,0.158-0.761,0.237-1.182,0.237c-0.598,0-1.139-0.151-1.622-0.458
					c-0.482-0.304-0.849-0.708-1.1-1.213V34.067z M40.773,31.044c0-0.378-0.07-0.733-0.212-1.063
					c-0.142-0.331-0.336-0.618-0.582-0.866c-0.248-0.247-0.533-0.441-0.857-0.583c-0.326-0.143-0.678-0.212-1.057-0.212
					c-0.367,0-0.71,0.068-1.031,0.204c-0.32,0.137-0.604,0.33-0.85,0.576c-0.246,0.246-0.446,0.535-0.598,0.866
					s-0.233,0.689-0.243,1.079c0,0.378,0.069,0.729,0.211,1.055c0.142,0.326,0.336,0.612,0.583,0.858
					c0.247,0.247,0.535,0.44,0.865,0.582c0.331,0.142,0.687,0.213,1.063,0.213c0.378,0,0.73-0.071,1.057-0.213
					c0.324-0.142,0.609-0.335,0.857-0.582c0.246-0.246,0.44-0.532,0.582-0.858S40.773,31.423,40.773,31.044z"/>
				<path d="M41.766,28.006h0.315v6.061h-0.315V28.006z"/>
				<path d="M51.684,31.627c0.126,0.168,0.215,0.349,0.268,0.543c0.053,0.194,0.064,0.397,0.04,0.606
					c-0.026,0.21-0.092,0.409-0.197,0.598c-0.106,0.189-0.241,0.346-0.409,0.473c-0.169,0.126-0.35,0.215-0.544,0.267
					c-0.194,0.053-0.396,0.068-0.606,0.048c-0.209-0.021-0.409-0.089-0.598-0.204l-0.425-0.238v-0.361l0.582,0.316
					c0.303,0.178,0.624,0.222,0.96,0.132c0.336-0.087,0.593-0.285,0.771-0.589c0.178-0.305,0.225-0.62,0.142-0.945
					c-0.084-0.325-0.273-0.576-0.566-0.756l-1.087-0.645c-0.189-0.105-0.349-0.241-0.48-0.409c-0.132-0.168-0.223-0.352-0.275-0.552
					c-0.054-0.2-0.066-0.404-0.04-0.614c0.026-0.209,0.096-0.409,0.212-0.598c0.104-0.189,0.242-0.347,0.409-0.473
					s0.348-0.215,0.543-0.268c0.194-0.053,0.396-0.066,0.606-0.039c0.209,0.026,0.41,0.097,0.598,0.212l0.426,0.236v0.362
					l-0.582-0.33c-0.158-0.094-0.319-0.152-0.481-0.173c-0.163-0.021-0.323-0.01-0.479,0.032c-0.158,0.042-0.305,0.112-0.441,0.212
					s-0.247,0.229-0.33,0.385c-0.179,0.316-0.224,0.638-0.134,0.969c0.088,0.331,0.292,0.585,0.606,0.763l1.038,0.614
					C51.4,31.317,51.558,31.458,51.684,31.627z"/>
				<g>
					<path d="M12.054,32.468c-0.155,0.313-0.354,0.585-0.595,0.82c-0.242,0.233-0.523,0.415-0.848,0.545
						c-0.315,0.127-0.649,0.19-0.995,0.193c-0.347-0.003-0.681-0.065-0.996-0.193c-0.324-0.13-0.605-0.312-0.848-0.545
						c-0.24-0.235-0.439-0.507-0.595-0.82c-0.156-0.311-0.241-0.645-0.256-1l5.756,0.011l-0.011-0.167
						c0-0.416-0.078-0.81-0.234-1.18c-0.155-0.373-0.369-0.694-0.64-0.964c-0.271-0.27-0.593-0.486-0.968-0.646
						s-0.771-0.24-1.186-0.24c-0.423,0.008-0.817,0.09-1.181,0.245c-0.363,0.156-0.683,0.37-0.957,0.646
						c-0.274,0.275-0.492,0.596-0.652,0.963c-0.159,0.367-0.239,0.759-0.239,1.175c0,0.415,0.08,0.811,0.239,1.185
						c0.16,0.375,0.375,0.698,0.645,0.969c0.272,0.271,0.592,0.487,0.958,0.646c0.355,0.153,0.736,0.228,1.142,0.225v0.003
						c0.007,0,0.015-0.001,0.022-0.001c0.007,0,0.015,0.001,0.022,0.001v-0.003c0.405,0.003,0.787-0.072,1.142-0.225
						c0.367-0.16,0.686-0.375,0.957-0.646c0.272-0.271,0.487-0.594,0.646-0.969c0.092-0.212,0.153-0.433,0.192-0.659h-0.311
						C12.222,32.056,12.154,32.267,12.054,32.468z M7.172,30.148c0.152-0.317,0.35-0.59,0.595-0.82
						c0.246-0.229,0.529-0.41,0.853-0.54c0.322-0.131,0.663-0.195,1.019-0.195s0.694,0.066,1.013,0.201s0.601,0.316,0.847,0.545
						c0.244,0.231,0.442,0.5,0.594,0.81c0.153,0.307,0.241,0.642,0.262,1.006H6.921C6.936,30.798,7.02,30.462,7.172,30.148z"/>
				</g>
				<g>
					<path d="M48.241,32.468c-0.155,0.313-0.356,0.585-0.596,0.82c-0.242,0.233-0.523,0.415-0.848,0.545
						c-0.315,0.127-0.649,0.19-0.996,0.193c-0.348-0.003-0.68-0.065-0.996-0.193c-0.324-0.13-0.605-0.312-0.848-0.545
						c-0.241-0.235-0.439-0.507-0.595-0.82c-0.156-0.311-0.242-0.645-0.255-1l5.756,0.011l-0.01-0.167
						c0-0.416-0.079-0.81-0.235-1.18c-0.155-0.373-0.369-0.694-0.639-0.964c-0.271-0.27-0.594-0.486-0.968-0.646
						c-0.375-0.16-0.771-0.24-1.187-0.24c-0.423,0.008-0.816,0.09-1.18,0.245c-0.363,0.156-0.684,0.37-0.958,0.646
						c-0.274,0.275-0.49,0.596-0.651,0.963c-0.16,0.367-0.24,0.759-0.24,1.175c0,0.415,0.08,0.811,0.24,1.185
						c0.161,0.375,0.375,0.698,0.645,0.969c0.271,0.271,0.59,0.487,0.958,0.646c0.355,0.153,0.736,0.228,1.143,0.225v0.003
						c0.006,0,0.014-0.001,0.021-0.001c0.008,0,0.015,0.001,0.022,0.001v-0.003c0.407,0.003,0.789-0.072,1.141-0.225
						c0.368-0.16,0.687-0.375,0.958-0.646c0.271-0.271,0.486-0.594,0.645-0.968c0.092-0.213,0.153-0.434,0.193-0.66H48.45
						C48.408,32.056,48.341,32.267,48.241,32.468z M43.358,30.148c0.152-0.317,0.35-0.59,0.594-0.82
						c0.245-0.229,0.529-0.41,0.854-0.54c0.322-0.13,0.662-0.195,1.018-0.195c0.357,0,0.696,0.066,1.013,0.201
						c0.32,0.134,0.602,0.316,0.848,0.545c0.245,0.231,0.443,0.5,0.595,0.81c0.153,0.307,0.241,0.642,0.263,1.006h-5.434
						C43.122,30.798,43.205,30.462,43.358,30.148z"/>
				</g>
			</g>
		</g>
		<g>
			<path fill="none" d="M35.867,2.947c-3.107-1.601-6.822,1.003-7.735,1.722c-0.118,0.093-0.185,0.149-0.185,0.149
				c-0.251,0.224-0.49,0.452-0.713,0.695c0.109,0.194,0.208,0.386,0.294,0.577c0.541,1.212,0.632,3.214,0.644,4.123l0.005-0.002v0
				c1.123-0.712,2.132-1.072,2.959-1.072c1.459,0,2.363,1.096,2.363,3.251c0,4.019-7.175,7.691-7.175,7.691v-6.482
				c-0.026-0.292-0.041-0.661-0.041-1.134c0,0,0-0.737,0-1.617c0-0.913-0.102-2.52-0.277-3.146
				c-0.176,0.626-0.278,2.233-0.278,3.146c0,0.158,0,0.312,0,0.468c0,0.103,0,0.208,0,0.309v0.84v0.859v6.757
				c0,0-0.793-0.408-1.852-1.097v-5.66v-0.539c-1.742-1.55-3.107-1.406-3.107,0.331v3.418c-1.235-1.222-2.215-2.659-2.215-4.144
				c0-3.349,2.184-4.126,5.241-2.225l0.046,0.04c0.008-0.666,0.062-2.317,0.302-3.164c0.087-0.31,0.196-0.626,0.342-0.951
				c0.085-0.19,0.184-0.382,0.293-0.577c-0.222-0.243-0.461-0.471-0.713-0.695c0,0-4.408-3.679-7.918-1.871
				c-3.317,1.708-4.213,9.531,9.86,18.083c0,0.003,0,0.005,0,0.007h0c0-0.002,0-0.004,0-0.007
				C40.08,12.478,39.184,4.655,35.867,2.947z"/>
			<path d="M31.186,0.692c-1.84,0.726-3.216,1.528-4.25,2.356c-0.347,0.278-0.656,0.559-0.929,0.84
				c-1.09-1.122-2.722-2.227-5.179-3.196c-7.082-2.797-9.515,3.632-9.434,5.927c0.061,1.746-0.513,8.316,14.612,16.56l0,0h0h0.027
				v-0.015c15.096-8.237,14.523-14.8,14.584-16.545C40.701,4.324,38.268-2.104,31.186,0.692z M26.008,21.03c0,0.003,0,0.005,0,0.007
				h0C26.007,21.035,26.007,21.033,26.008,21.03C11.935,12.478,12.83,4.655,16.147,2.947c3.51-1.808,7.918,1.871,7.918,1.871
				c0.252,0.224,0.491,0.452,0.713,0.695c-0.109,0.194-0.208,0.386-0.293,0.577c-0.146,0.324-0.255,0.641-0.342,0.951
				c-0.24,0.847-0.294,2.499-0.302,3.164l-0.046-0.04c-3.057-1.901-5.241-1.124-5.241,2.225c0,1.485,0.98,2.922,2.215,4.144v-3.418
				c0-1.737,1.366-1.88,3.107-0.331v0.539v5.66c1.059,0.689,1.852,1.097,1.852,1.097v-6.757v-0.859v-0.84c0-0.1,0-0.206,0-0.309
				c0-0.156,0-0.31,0-0.468c0-0.913,0.102-2.52,0.278-3.146c0.176,0.626,0.277,2.233,0.277,3.146c0,0.88,0,1.617,0,1.617
				c0,0.473,0.015,0.842,0.041,1.134v6.482c0,0,7.175-3.673,7.175-7.691c0-2.155-0.904-3.251-2.363-3.251
				c-0.828,0-1.836,0.36-2.959,1.072v0l-0.005,0.002c-0.011-0.909-0.103-2.911-0.644-4.123c-0.085-0.19-0.185-0.382-0.294-0.577
				c0.223-0.243,0.462-0.471,0.713-0.695c0,0,0.066-0.056,0.185-0.149c0.913-0.719,4.628-3.322,7.735-1.722
				C39.184,4.655,40.08,12.478,26.008,21.03z M28.178,16.438v-3.114v-0.539c0.808-0.719,1.536-1.074,2.082-1.074
				c0.633,0,1.025,0.473,1.025,1.404C31.285,14.852,28.178,16.438,28.178,16.438z"/>
		</g>
	</g>
	<g>
		<path d="M47.399,37.46h0.177v0.177h-0.177V37.46z"/>
		<path d="M48.534,36.252c-0.074,0.076-0.128,0.161-0.166,0.254c-0.036,0.092-0.055,0.188-0.055,0.285
			c0,0.096,0.019,0.192,0.055,0.286c0.037,0.093,0.092,0.178,0.166,0.251c0.072,0.073,0.157,0.129,0.25,0.167
			c0.094,0.039,0.189,0.058,0.287,0.058c0.097,0,0.191-0.019,0.286-0.056c0.095-0.036,0.177-0.093,0.252-0.169l0.062,0.062
			c-0.083,0.084-0.177,0.147-0.28,0.188c-0.104,0.042-0.21,0.062-0.318,0.062s-0.213-0.021-0.319-0.064
			c-0.105-0.042-0.2-0.104-0.281-0.186c-0.083-0.083-0.145-0.176-0.186-0.282c-0.042-0.104-0.062-0.209-0.062-0.318
			c0-0.109,0.021-0.214,0.062-0.318c0.041-0.103,0.102-0.197,0.186-0.282c0.082-0.083,0.176-0.146,0.281-0.188
			c0.106-0.043,0.212-0.063,0.319-0.063s0.214,0.021,0.318,0.063c0.103,0.042,0.197,0.105,0.28,0.188l-0.062,0.061
			c-0.075-0.073-0.157-0.129-0.252-0.167c-0.094-0.038-0.189-0.057-0.286-0.057c-0.098,0-0.193,0.019-0.287,0.057
			C48.691,36.124,48.606,36.179,48.534,36.252z"/>
		<path d="M51.898,37.17c-0.07,0.141-0.173,0.253-0.309,0.339c-0.135,0.085-0.287,0.127-0.455,0.127
			c-0.117,0-0.228-0.022-0.33-0.066c-0.104-0.044-0.193-0.104-0.269-0.18c-0.077-0.077-0.138-0.167-0.181-0.27
			c-0.044-0.102-0.066-0.213-0.066-0.33c0-0.118,0.022-0.229,0.066-0.332c0.043-0.102,0.104-0.193,0.181-0.271
			c0.075-0.077,0.165-0.138,0.269-0.181c0.102-0.045,0.213-0.067,0.33-0.067c0.168,0,0.319,0.042,0.455,0.131
			c0.135,0.086,0.239,0.199,0.309,0.34V35.94h0.088v0.851v0.846h-0.088V37.17z M50.378,36.791c0,0.106,0.02,0.204,0.058,0.295
			c0.04,0.09,0.095,0.171,0.164,0.24c0.069,0.069,0.149,0.123,0.241,0.163c0.091,0.04,0.19,0.059,0.294,0.059
			c0.106,0,0.206-0.02,0.298-0.059c0.093-0.041,0.173-0.094,0.243-0.163c0.069-0.069,0.124-0.15,0.164-0.24
			c0.039-0.091,0.059-0.189,0.059-0.295c-0.006-0.109-0.031-0.209-0.07-0.303c-0.042-0.092-0.098-0.172-0.166-0.242
			c-0.07-0.069-0.149-0.123-0.24-0.161c-0.091-0.038-0.187-0.057-0.287-0.057c-0.104,0-0.204,0.021-0.294,0.059
			c-0.091,0.04-0.172,0.095-0.241,0.164c-0.068,0.068-0.124,0.148-0.164,0.242C50.398,36.585,50.378,36.685,50.378,36.791z"/>
	</g>
</g>
</svg>
