<?xml version="1.0" encoding="utf-8"?>
<!DOCTYPE svg PUBLIC "-//W3C//DTD SVG 1.1//EN" "http://www.w3.org/Graphics/SVG/1.1/DTD/svg11.dtd">
<svg version="1.1" id="Layer_1" xmlns="http://www.w3.org/2000/svg" xmlns:xlink="http://www.w3.org/1999/xlink" x="0px" y="0px"
	 width="19px" height="18px" viewBox="0 0 19 18" enable-background="new 0 0 19 18" xml:space="preserve">
<path fill-rule="evenodd" clip-rule="evenodd" fill="#FFFFFF" d="M1.628,0h15.743C18.271,0,19,0.711,19,1.588
	c0,0.877-0.729,1.588-1.628,1.588H1.628C0.729,3.176,0,2.465,0,1.588C0,0.711,0.729,0,1.628,0z"/>
<path fill-rule="evenodd" clip-rule="evenodd" fill="#FFFFFF" d="M1.628,7.412h15.743C18.271,7.412,19,8.123,19,9
	s-0.729,1.588-1.628,1.588H1.628C0.729,10.588,0,9.877,0,9S0.729,7.412,1.628,7.412z"/>
<path fill-rule="evenodd" clip-rule="evenodd" fill="#FFFFFF" d="M1.628,14.824h15.743c0.899,0,1.628,0.711,1.628,1.588
	C19,17.289,18.271,18,17.372,18H1.628C0.729,18,0,17.289,0,16.412C0,15.535,0.729,14.824,1.628,14.824z"/>
</svg>
