<?xml version="1.0" encoding="utf-8"?>
<!DOCTYPE svg PUBLIC "-//W3C//DTD SVG 1.1//EN" "http://www.w3.org/Graphics/SVG/1.1/DTD/svg11.dtd">
<svg version="1.1" id="Layer_1" xmlns="http://www.w3.org/2000/svg" xmlns:xlink="http://www.w3.org/1999/xlink" x="0px" y="0px"
	 width="175px" height="127.859px" viewBox="0 0 175 127.859" enable-background="new 0 0 175 127.859" xml:space="preserve">
<g>
	<path fill="#97D3B7" d="M141.198,88.237c-1.402-1.25-2.502-1.133-2.502,0.265c0,1.398,2.502,2.531,2.502,2.531
		s2.501-1.133,2.501-2.531C143.699,87.104,142.602,86.987,141.198,88.237z"/>
	<path fill="#BCBEC0" d="M1.059,114.618H0V82.632h1.059v17.262c0.812-1.695,2.031-3.064,3.655-4.106
		c1.625-1.041,3.441-1.562,5.457-1.562c1.409,0,2.733,0.265,3.971,0.794c1.236,0.53,2.321,1.263,3.259,2.199
		c0.934,0.934,1.669,2.021,2.196,3.255c0.53,1.237,0.797,2.562,0.797,3.975v10.17h-1.06v-10.17c0-1.271-0.241-2.464-0.716-3.576
		c-0.476-1.113-1.13-2.08-1.959-2.913c-0.83-0.828-1.803-1.483-2.912-1.958c-1.114-0.479-2.307-0.716-3.576-0.716
		c-1.271,0-2.455,0.237-3.55,0.716c-1.098,0.475-2.058,1.13-2.887,1.958c-0.83,0.833-1.483,1.8-1.962,2.913
		c-0.476,1.112-0.714,2.305-0.714,3.576V114.618z"/>
	<path fill="#BCBEC0" d="M48.022,124.151c1.976,1.767,4.129,2.648,6.461,2.648c1.271,0,2.463-0.237,3.575-0.715
		c1.113-0.477,2.082-1.13,2.914-1.96c0.827-0.83,1.481-1.793,1.958-2.887c0.479-1.094,0.716-2.277,0.716-3.549v-8.688
		c-0.847,1.694-2.083,3.055-3.707,4.079c-1.624,1.026-3.444,1.537-5.456,1.537c-1.412,0-2.737-0.265-3.973-0.795
		c-1.237-0.529-2.312-1.253-3.232-2.171c-0.918-0.919-1.64-1.995-2.17-3.231s-0.795-2.56-0.795-3.973V94.226h1.061v10.223
		c0,1.272,0.235,2.454,0.715,3.549c0.477,1.094,1.127,2.058,1.959,2.887c0.83,0.828,1.793,1.483,2.887,1.959
		c1.093,0.477,2.276,0.715,3.549,0.715c1.271,0,2.463-0.238,3.575-0.715c1.113-0.476,2.082-1.131,2.914-1.959
		c0.827-0.829,1.481-1.793,1.958-2.887c0.479-1.095,0.716-2.276,0.716-3.549V94.226h1.059v23.464c0,1.412-0.264,2.737-0.792,3.973
		c-0.532,1.235-1.265,2.312-2.198,3.23c-0.937,0.919-2.022,1.643-3.259,2.172c-1.236,0.531-2.561,0.795-3.973,0.795
		c-1.377,0-2.684-0.257-3.92-0.768c-1.236-0.512-2.329-1.228-3.285-2.145L48.022,124.151z"/>
	<path fill="#BCBEC0" d="M73.614,114.618h-1.06V82.632h1.06v17.262c0.847-1.695,2.082-3.064,3.706-4.106
		c1.624-1.041,3.445-1.562,5.456-1.562c1.412,0,2.736,0.265,3.974,0.794c1.237,0.53,2.312,1.263,3.231,2.199
		c0.919,0.934,1.641,2.021,2.171,3.255c0.529,1.237,0.794,2.562,0.794,3.975s-0.265,2.736-0.794,3.973
		c-0.53,1.236-1.252,2.312-2.171,3.231c-0.92,0.918-1.994,1.642-3.231,2.171c-1.237,0.53-2.562,0.795-3.974,0.795
		c-2.011,0-3.832-0.511-5.456-1.537c-1.624-1.024-2.859-2.385-3.706-4.079V114.618z M91.886,104.448
		c0-1.271-0.235-2.464-0.714-3.576c-0.478-1.113-1.132-2.08-1.96-2.913c-0.83-0.828-1.793-1.483-2.885-1.958
		c-1.095-0.479-2.279-0.716-3.551-0.716c-1.236,0-2.391,0.23-3.469,0.687c-1.079,0.46-2.029,1.106-2.862,1.935
		c-0.827,0.831-1.499,1.801-2.01,2.913c-0.514,1.114-0.786,2.321-0.821,3.629c0,1.272,0.236,2.454,0.714,3.549
		c0.478,1.094,1.129,2.058,1.96,2.887c0.831,0.828,1.8,1.483,2.913,1.959c1.112,0.477,2.304,0.715,3.575,0.715
		s2.456-0.238,3.551-0.715c1.092-0.476,2.055-1.131,2.885-1.959c0.828-0.829,1.482-1.793,1.96-2.887
		C91.65,106.902,91.886,105.721,91.886,104.448z"/>
	<path fill="#BCBEC0" d="M114.079,109.002c-0.846,1.694-2.082,3.055-3.706,4.079c-1.624,1.026-3.444,1.537-5.456,1.537
		c-1.412,0-2.738-0.265-3.973-0.795c-1.238-0.529-2.312-1.253-3.23-2.171c-0.92-0.919-1.643-1.995-2.172-3.231
		c-0.53-1.236-0.795-2.56-0.795-3.973s0.265-2.737,0.795-3.975c0.529-1.233,1.252-2.321,2.172-3.255
		c0.918-0.937,1.992-1.669,3.23-2.199c1.234-0.529,2.561-0.794,3.973-0.794c2.012,0,3.832,0.521,5.456,1.562
		c1.624,1.042,2.86,2.411,3.706,4.106v-5.668h1.06v10.223v10.17h-1.06V109.002z M95.808,104.448c0,1.272,0.235,2.454,0.715,3.549
		c0.476,1.094,1.128,2.058,1.958,2.887c0.831,0.828,1.794,1.483,2.889,1.959c1.093,0.477,2.276,0.715,3.548,0.715
		s2.462-0.238,3.575-0.715c1.113-0.476,2.082-1.131,2.912-1.959c0.829-0.829,1.483-1.793,1.96-2.887
		c0.479-1.095,0.715-2.276,0.715-3.549c-0.07-1.308-0.353-2.515-0.846-3.629c-0.496-1.112-1.159-2.082-1.986-2.913
		c-0.831-0.828-1.793-1.475-2.888-1.935c-1.094-0.456-2.241-0.687-3.442-0.687c-1.271,0-2.455,0.237-3.548,0.716
		c-1.095,0.475-2.058,1.13-2.889,1.958c-0.83,0.833-1.482,1.8-1.958,2.913C96.043,101.984,95.808,103.177,95.808,104.448z"/>
	<path fill="#BCBEC0" d="M118.909,114.618h-1.062V82.632h1.062v17.262c0.846-1.695,2.082-3.064,3.705-4.106
		c1.624-1.041,3.445-1.562,5.456-1.562c1.414,0,2.738,0.265,3.975,0.794c1.236,0.53,2.311,1.263,3.23,2.199
		c0.918,0.934,1.641,2.021,2.172,3.255c0.529,1.237,0.794,2.562,0.794,3.975s-0.265,2.736-0.794,3.973
		c-0.531,1.236-1.254,2.312-2.172,3.231c-0.92,0.918-1.994,1.642-3.23,2.171c-1.236,0.53-2.561,0.795-3.975,0.795
		c-2.011,0-3.832-0.511-5.456-1.537c-1.623-1.024-2.859-2.385-3.705-4.079V114.618z M137.182,104.448
		c0-1.271-0.237-2.464-0.716-3.576c-0.476-1.113-1.131-2.08-1.959-2.913c-0.831-0.828-1.792-1.483-2.885-1.958
		c-1.096-0.479-2.279-0.716-3.552-0.716c-1.235,0-2.391,0.23-3.469,0.687c-1.077,0.46-2.029,1.106-2.859,1.935
		c-0.829,0.831-1.502,1.801-2.013,2.913c-0.515,1.114-0.785,2.321-0.82,3.629c0,1.272,0.236,2.454,0.716,3.549
		c0.475,1.094,1.128,2.058,1.958,2.887c0.83,0.828,1.8,1.483,2.913,1.959c1.113,0.477,2.305,0.715,3.574,0.715
		c1.272,0,2.456-0.238,3.552-0.715c1.093-0.476,2.054-1.131,2.885-1.959c0.828-0.829,1.483-1.793,1.959-2.887
		C136.944,106.902,137.182,105.721,137.182,104.448z"/>
	<path fill="#BCBEC0" d="M140.52,94.226h1.058v20.393h-1.058V94.226z"/>
	<path fill="#BCBEC0" d="M173.888,106.407c0.425,0.566,0.726,1.176,0.901,1.828c0.176,0.654,0.218,1.335,0.133,2.038
		c-0.091,0.709-0.309,1.379-0.663,2.015c-0.354,0.635-0.812,1.164-1.377,1.588c-0.566,0.425-1.174,0.724-1.827,0.899
		c-0.655,0.178-1.334,0.23-2.04,0.159c-0.707-0.069-1.377-0.299-2.011-0.687l-1.432-0.796v-1.218l1.959,1.06
		c1.024,0.602,2.101,0.749,3.23,0.45c1.131-0.299,1.994-0.961,2.597-1.986c0.6-1.024,0.757-2.083,0.477-3.18
		c-0.283-1.093-0.92-1.939-1.906-2.541l-3.656-2.172c-0.635-0.354-1.174-0.812-1.614-1.375c-0.444-0.566-0.751-1.185-0.927-1.856
		c-0.179-0.67-0.221-1.356-0.133-2.064c0.087-0.706,0.326-1.378,0.715-2.014c0.353-0.636,0.813-1.165,1.377-1.588
		c0.564-0.427,1.174-0.725,1.827-0.9c0.654-0.178,1.332-0.222,2.04-0.133c0.706,0.088,1.377,0.326,2.011,0.714L175,95.445v1.217
		l-1.959-1.112c-0.53-0.316-1.07-0.512-1.616-0.582c-0.547-0.071-1.086-0.035-1.614,0.105c-0.53,0.142-1.024,0.38-1.483,0.714
		c-0.461,0.337-0.83,0.769-1.112,1.298c-0.602,1.062-0.751,2.146-0.451,3.259c0.299,1.111,0.979,1.969,2.039,2.569l3.495,2.063
		C172.935,105.366,173.464,105.843,173.888,106.407z"/>
	<g>
		<path fill="#BCBEC0" d="M40.557,109.24c-0.523,1.049-1.194,1.968-2.004,2.754c-0.813,0.786-1.76,1.399-2.851,1.837
			c-1.06,0.427-2.184,0.642-3.351,0.651c-1.171-0.01-2.289-0.225-3.353-0.651c-1.088-0.438-2.037-1.051-2.85-1.837
			c-0.812-0.786-1.478-1.705-2.002-2.754c-0.526-1.048-0.813-2.172-0.861-3.371l19.368,0.039l-0.038-0.564
			c-0.003-1.398-0.265-2.724-0.788-3.969c-0.524-1.252-1.242-2.332-2.153-3.242c-0.911-0.911-1.998-1.636-3.257-2.175
			c-1.265-0.534-2.595-0.804-3.991-0.804c-1.423,0.026-2.749,0.3-3.971,0.823c-1.225,0.525-2.299,1.249-3.223,2.175
			c-0.926,0.924-1.654,2.004-2.191,3.24c-0.536,1.234-0.807,2.553-0.807,3.951s0.271,2.73,0.807,3.99
			c0.537,1.262,1.262,2.348,2.17,3.259c0.914,0.911,1.987,1.637,3.224,2.175c1.193,0.518,2.476,0.767,3.842,0.762v0.005
			c0.023,0.001,0.049-0.002,0.074-0.002c0.024,0,0.049,0.003,0.075,0.002v-0.005c1.364,0.005,2.648-0.244,3.84-0.762
			c1.235-0.538,2.309-1.264,3.22-2.175c0.914-0.911,1.637-1.997,2.174-3.259c0.308-0.716,0.517-1.458,0.646-2.218h-1.045
			C41.12,107.854,40.892,108.564,40.557,109.24z M24.128,101.431c0.514-1.062,1.181-1.979,2.004-2.757
			c0.823-0.772,1.779-1.379,2.867-1.814c1.086-0.438,2.228-0.657,3.428-0.657c1.197,0,2.336,0.224,3.409,0.676
			c1.073,0.45,2.021,1.062,2.847,1.833c0.823,0.778,1.491,1.681,2.001,2.72c0.515,1.036,0.81,2.164,0.882,3.389H23.286
			C23.334,103.62,23.617,102.49,24.128,101.431z"/>
	</g>
	<g>
		<path fill="#BCBEC0" d="M162.306,109.24c-0.523,1.049-1.193,1.968-2.004,2.754c-0.815,0.786-1.761,1.399-2.852,1.837
			c-1.061,0.427-2.184,0.642-3.352,0.651c-1.171-0.01-2.287-0.225-3.351-0.651c-1.088-0.438-2.037-1.051-2.851-1.837
			c-0.811-0.786-1.478-1.705-2.003-2.754c-0.524-1.048-0.812-2.172-0.86-3.371l19.367,0.039l-0.036-0.564
			c-0.003-1.398-0.267-2.724-0.79-3.969c-0.523-1.252-1.242-2.332-2.151-3.242c-0.913-0.911-2-1.636-3.259-2.175
			c-1.263-0.534-2.594-0.804-3.991-0.804c-1.423,0.026-2.749,0.3-3.97,0.823c-1.224,0.525-2.3,1.249-3.223,2.175
			c-0.925,0.924-1.654,2.004-2.19,3.24c-0.537,1.234-0.807,2.553-0.807,3.951s0.27,2.73,0.807,3.99
			c0.536,1.262,1.26,2.348,2.17,3.259c0.914,0.911,1.985,1.637,3.224,2.175c1.191,0.518,2.473,0.767,3.842,0.762v0.005
			c0.022,0.001,0.047-0.002,0.072-0.002c0.026,0,0.051,0.003,0.075,0.002v-0.005c1.366,0.005,2.65-0.244,3.841-0.762
			c1.236-0.538,2.308-1.264,3.221-2.175c0.914-0.911,1.637-1.997,2.172-3.259c0.308-0.716,0.517-1.458,0.646-2.218h-1.044
			C162.869,107.854,162.641,108.564,162.306,109.24z M145.875,101.431c0.513-1.062,1.181-1.979,2.004-2.757
			c0.823-0.772,1.781-1.379,2.869-1.814c1.086-0.438,2.228-0.657,3.426-0.657c1.199,0,2.338,0.224,3.409,0.676
			c1.073,0.45,2.022,1.062,2.85,1.833c0.822,0.778,1.489,1.681,2,2.72c0.514,1.036,0.81,2.164,0.882,3.389h-18.28
			C145.083,103.62,145.363,102.49,145.875,101.431z"/>
	</g>
	<g>
		<path fill="none" d="M105.258,44.126c0-3.131-1.32-4.724-3.447-4.724c-1.842,0-4.289,1.193-7.008,3.614v1.812v10.478
			C94.803,55.305,105.258,49.969,105.258,44.126z"/>
		<path fill="#9BD4B7" d="M104.92,2.33c-6.188,2.444-10.817,5.142-14.297,7.928c-1.166,0.934-2.203,1.878-3.123,2.826
			C83.836,9.31,78.345,5.594,70.081,2.33C46.25-7.081,38.064,14.55,38.336,22.271c0.208,5.873-1.726,27.978,49.163,55.715v-0.001
			l0.002,0.001h0.091v-0.052c50.792-27.712,48.864-49.794,49.072-55.663C136.936,14.55,128.75-7.081,104.92,2.33z M87.501,70.758
			c0,0.008,0,0.014,0,0.022h-0.002c0-0.008,0-0.015,0-0.022C40.153,41.983,43.167,15.663,54.325,9.916
			c11.812-6.083,26.646,6.294,26.646,6.294c0.845,0.754,1.649,1.522,2.397,2.34c-0.364,0.652-0.697,1.299-0.984,1.94
			c-0.487,1.088-0.859,2.156-1.152,3.2c-0.805,2.847-0.987,8.402-1.015,10.642l-0.156-0.135
			c-10.285-6.397-17.633-3.777-17.633,7.487c0,4.996,3.297,9.83,7.453,13.943V44.126c0-5.842,4.594-6.327,10.453-1.11v1.812v19.044
			c3.562,2.319,6.235,3.691,6.235,3.691V44.828v-2.89V39.11c0-0.335,0-0.693,0-1.039c0-0.525,0-1.045,0-1.576
			c0-3.071,0.338-8.479,0.931-10.586c0.594,2.107,0.932,7.515,0.932,10.586c0,2.963,0,5.442,0,5.442
			c0,1.589,0.051,2.833,0.138,3.813v21.812c0,0,24.142-12.358,24.142-25.878c0-7.252-3.039-10.938-7.949-10.938
			c-2.785,0-6.183,1.21-9.959,3.608v-0.003l-0.019,0.01c-0.037-3.062-0.348-9.796-2.166-13.872c-0.286-0.641-0.62-1.289-0.986-1.94
			c0.75-0.818,1.553-1.586,2.397-2.34c0,0,0.225-0.187,0.622-0.502c3.071-2.419,15.568-11.176,26.023-5.792
			C131.834,15.663,134.847,41.983,87.501,70.758z M94.803,55.305V44.828v-1.812c2.719-2.421,5.166-3.614,7.008-3.614
			c2.127,0,3.447,1.593,3.447,4.724C105.258,49.969,94.803,55.305,94.803,55.305z"/>
	</g>
	<path fill="#97D3B7" d="M159.476,126.034h0.594v0.594h-0.594V126.034z"/>
	<path fill="#97D3B7" d="M163.29,121.973c-0.247,0.256-0.433,0.54-0.557,0.852c-0.122,0.311-0.186,0.631-0.186,0.957
		s0.063,0.647,0.186,0.965c0.124,0.315,0.31,0.598,0.557,0.844c0.247,0.247,0.528,0.436,0.846,0.562
		c0.315,0.129,0.637,0.193,0.964,0.193c0.326,0,0.647-0.061,0.963-0.186c0.317-0.123,0.598-0.312,0.846-0.57l0.207,0.208
		c-0.276,0.286-0.59,0.498-0.941,0.638c-0.35,0.139-0.706,0.207-1.067,0.207s-0.719-0.071-1.075-0.215
		c-0.356-0.143-0.672-0.354-0.948-0.63s-0.485-0.591-0.623-0.942c-0.139-0.351-0.209-0.708-0.209-1.074s0.07-0.722,0.209-1.067
		c0.138-0.347,0.347-0.663,0.623-0.95c0.276-0.276,0.592-0.486,0.948-0.63s0.714-0.214,1.075-0.214s0.718,0.07,1.067,0.214
		c0.352,0.144,0.665,0.354,0.941,0.63l-0.207,0.209c-0.248-0.248-0.528-0.436-0.846-0.563c-0.315-0.13-0.637-0.194-0.963-0.194
		c-0.327,0-0.648,0.064-0.964,0.194C163.818,121.537,163.537,121.725,163.29,121.973z"/>
	<path fill="#97D3B7" d="M174.61,125.057c-0.237,0.474-0.583,0.854-1.038,1.142c-0.454,0.286-0.964,0.43-1.527,0.43
		c-0.396,0-0.767-0.074-1.112-0.223c-0.346-0.147-0.647-0.351-0.903-0.607c-0.258-0.258-0.461-0.559-0.608-0.904
		c-0.149-0.347-0.223-0.717-0.223-1.112s0.073-0.767,0.223-1.112c0.147-0.346,0.351-0.65,0.608-0.912
		c0.256-0.263,0.558-0.467,0.903-0.615c0.346-0.147,0.717-0.222,1.112-0.222c0.563,0,1.073,0.145,1.527,0.438
		c0.455,0.291,0.801,0.674,1.038,1.147v-1.585h0.298v2.861v2.847h-0.298V125.057z M169.495,123.781c0,0.356,0.066,0.687,0.199,0.993
		c0.134,0.307,0.317,0.577,0.549,0.808c0.231,0.233,0.503,0.416,0.809,0.549c0.307,0.134,0.639,0.2,0.993,0.2
		c0.355,0,0.688-0.066,1-0.2c0.313-0.133,0.584-0.315,0.816-0.549c0.232-0.23,0.414-0.501,0.55-0.808
		c0.134-0.307,0.199-0.637,0.199-0.993c-0.02-0.366-0.1-0.704-0.237-1.018c-0.139-0.311-0.324-0.581-0.556-0.814
		c-0.233-0.231-0.502-0.412-0.809-0.54c-0.307-0.13-0.629-0.194-0.964-0.194c-0.354,0-0.687,0.067-0.993,0.201
		c-0.306,0.134-0.577,0.316-0.809,0.549s-0.415,0.504-0.549,0.815C169.562,123.092,169.495,123.425,169.495,123.781z"/>
	<linearGradient id="SVGID_1_" gradientUnits="userSpaceOnUse" x1="85.4141" y1="17.6504" x2="90.7451" y2="14.6214">
		<stop  offset="0" style="stop-color:#67917E"/>
		<stop  offset="0.357" style="stop-color:#7BAB95"/>
		<stop  offset="0.7825" style="stop-color:#8EC6AC"/>
		<stop  offset="1" style="stop-color:#97D3B7"/>
	</linearGradient>
	<path fill="url(#SVGID_1_)" d="M90.623,10.258c-1.166,0.934-2.203,1.878-3.123,2.826c1.772,1.824,3.116,3.66,4.132,5.467
		c0.75-0.818,1.553-1.586,2.397-2.34c0,0,0.225-0.187,0.622-0.502C93.604,13.525,92.213,11.816,90.623,10.258z"/>
	<linearGradient id="SVGID_2_" gradientUnits="userSpaceOnUse" x1="89.792" y1="23.2939" x2="86.1862" y2="27.0463">
		<stop  offset="0" style="stop-color:#67917E"/>
		<stop  offset="0.357" style="stop-color:#7BAB95"/>
		<stop  offset="0.7825" style="stop-color:#8EC6AC"/>
		<stop  offset="1" style="stop-color:#97D3B7"/>
	</linearGradient>
	<path fill="url(#SVGID_2_)" d="M82.384,20.491c-0.487,1.088-0.859,2.156-1.152,3.2c2.65,2.729,4.675,8.902,5.338,14.381
		c0-0.525,0-1.045,0-1.576c0-3.071,0.338-8.479,0.931-10.586c-0.886-3.142-2.345-5.406-4.132-7.359
		C83.004,19.203,82.671,19.85,82.384,20.491z"/>
</g>
</svg>
