<?xml version="1.0" encoding="utf-8"?>
<!DOCTYPE svg PUBLIC "-//W3C//DTD SVG 1.1//EN" "http://www.w3.org/Graphics/SVG/1.1/DTD/svg11.dtd">
<svg version="1.1" id="Layer_1" xmlns="http://www.w3.org/2000/svg" xmlns:xlink="http://www.w3.org/1999/xlink" x="0px" y="0px"
	 width="41px" height="32.516px" viewBox="-106.218 -2.522 41 32.516" enable-background="new -106.218 -2.522 41 32.516"
	 xml:space="preserve">
<g>
	<g>
		<g>
			<path fill="#FFFFFF" d="M-78.453-1.551c-2.582,1.018-4.513,2.144-5.961,3.305c-0.487,0.39-0.922,0.784-1.304,1.179
				c-1.529-1.574-3.818-3.124-7.264-4.483c-9.935-3.923-13.348,5.095-13.233,8.314c0.085,2.45-0.72,11.666,20.498,23.231l0,0l0,0
				h0.037v-0.022c21.176-11.555,20.373-20.76,20.459-23.208C-65.104,3.543-68.52-5.474-78.453-1.551z M-85.716,26.979
				c0,0.005,0,0.005,0,0.009l0,0C-85.718,26.983-85.718,26.983-85.716,26.979C-105.458,14.98-104.202,4.008-99.55,1.611
				c4.926-2.536,11.108,2.625,11.108,2.625c0.353,0.314,0.688,0.634,1,0.976c-0.152,0.271-0.293,0.541-0.411,0.809
				c-0.203,0.455-0.357,0.899-0.479,1.334c-0.336,1.188-0.412,3.506-0.424,4.439l-0.065-0.055c-4.29-2.667-7.351-1.578-7.351,3.12
				c0,2.084,1.375,4.1,3.107,5.813v-4.795c0-2.437,1.916-2.637,4.358-0.465v0.757v7.938c1.485,0.97,2.598,1.54,2.598,1.54v-9.478
				v-1.206v-1.179c0-0.141,0-0.289,0-0.434c0-0.218,0-0.435,0-0.655c0-1.281,0.145-3.536,0.39-4.414
				c0.246,0.878,0.389,3.133,0.389,4.414c0,1.233,0,2.267,0,2.267c0,0.665,0.021,1.182,0.058,1.592v9.092
				c0,0,10.065-5.152,10.065-10.789c0-3.024-1.269-4.561-3.316-4.561c-1.161,0-2.574,0.505-4.149,1.503l0,0l-0.007,0.002
				c-0.016-1.273-0.145-4.083-0.904-5.783c-0.119-0.266-0.258-0.536-0.412-0.809c0.314-0.341,0.648-0.661,1.001-0.975
				c0,0,0.093-0.079,0.26-0.21c1.28-1.007,6.492-4.66,10.852-2.415C-67.234,4.008-65.977,14.98-85.716,26.979z M-82.673,20.535
				v-4.366v-0.757c1.133-1.008,2.156-1.506,2.921-1.506c0.889,0,1.438,0.666,1.438,1.971
				C-78.314,18.312-82.673,20.535-82.673,20.535z"/>
		</g>
	</g>
</g>
</svg>
