<?xml version="1.0" encoding="utf-8"?>
<!DOCTYPE svg PUBLIC "-//W3C//DTD SVG 1.1//EN" "http://www.w3.org/Graphics/SVG/1.1/DTD/svg11.dtd">
<svg version="1.1" id="Layer_1" xmlns="http://www.w3.org/2000/svg" xmlns:xlink="http://www.w3.org/1999/xlink" x="0px" y="0px"
	 width="340px" height="248.411px" viewBox="0 0 340 248.411" enable-background="new 0 0 340 248.411" xml:space="preserve">
<path fill="#97D3B7" d="M274.328,171.432c-2.725-2.428-4.861-2.201-4.861,0.516s4.861,4.917,4.861,4.917s4.859-2.2,4.859-4.917
	S277.054,169.004,274.328,171.432z"/>
<path fill="#FFFFFF" d="M2.058,222.688H0v-62.146h2.058v33.535c1.577-3.292,3.945-5.952,7.101-7.978
	c3.158-2.022,6.688-3.033,10.604-3.033c2.737,0,5.311,0.514,7.713,1.543s4.51,2.453,6.331,4.271
	c1.813,1.813,3.243,3.927,4.269,6.326c1.029,2.401,1.548,4.974,1.548,7.722v19.759h-2.06v-19.759c0-2.472-0.467-4.789-1.391-6.95
	c-0.924-2.162-2.194-4.04-3.806-5.658c-1.612-1.609-3.502-2.881-5.657-3.805c-2.166-0.929-4.482-1.391-6.947-1.391
	c-2.472,0-4.771,0.462-6.898,1.391c-2.131,0.924-3.996,2.195-5.608,3.805c-1.612,1.618-2.881,3.496-3.811,5.658
	c-0.924,2.161-1.387,4.479-1.387,6.95V222.688z"/>
<path fill="#FFFFFF" d="M93.301,241.208c3.839,3.431,8.021,5.146,12.552,5.146c2.472,0,4.786-0.462,6.947-1.391
	c2.162-0.926,4.046-2.195,5.66-3.808c1.608-1.612,2.88-3.483,3.806-5.608c0.929-2.123,1.391-4.425,1.391-6.894v-16.88
	c-1.646,3.292-4.048,5.934-7.203,7.925c-3.155,1.995-6.692,2.988-10.601,2.988c-2.743,0-5.316-0.517-7.718-1.546
	c-2.402-1.029-4.492-2.436-6.28-4.218c-1.782-1.785-3.186-3.875-4.216-6.276c-1.03-2.402-1.544-4.975-1.544-7.719v-19.862h2.061
	v19.862c0,2.471,0.458,4.767,1.39,6.893c0.924,2.126,2.188,3.999,3.806,5.608c1.612,1.61,3.483,2.882,5.608,3.806
	c2.124,0.929,4.422,1.391,6.894,1.391s4.786-0.462,6.947-1.391c2.162-0.924,4.046-2.195,5.66-3.806
	c1.608-1.609,2.88-3.482,3.806-5.608c0.929-2.126,1.391-4.422,1.391-6.893v-19.862h2.056v45.588c0,2.742-0.512,5.317-1.537,7.719
	c-1.034,2.399-2.458,4.491-4.272,6.274c-1.818,1.785-3.929,3.191-6.331,4.221c-2.401,1.031-4.975,1.542-7.719,1.542
	c-2.675,0-5.214-0.497-7.615-1.491c-2.402-0.993-4.525-2.384-6.383-4.166L93.301,241.208z"/>
<path fill="#FFFFFF" d="M143.022,222.688h-2.06v-62.146h2.06v33.535c1.644-3.292,4.046-5.952,7.2-7.978
	c3.155-2.022,6.692-3.033,10.601-3.033c2.743,0,5.316,0.514,7.721,1.543c2.403,1.029,4.49,2.453,6.276,4.271
	c1.785,1.813,3.188,3.927,4.22,6.326c1.027,2.401,1.541,4.974,1.541,7.722c0,2.744-0.514,5.316-1.541,7.719
	c-1.031,2.401-2.435,4.491-4.22,6.276c-1.786,1.782-3.873,3.188-6.276,4.218c-2.404,1.029-4.978,1.546-7.721,1.546
	c-3.908,0-7.445-0.993-10.601-2.988c-3.154-1.991-5.557-4.633-7.2-7.925V222.688z M178.521,202.929c0-2.472-0.458-4.789-1.387-6.95
	c-0.928-2.162-2.199-4.04-3.81-5.658c-1.612-1.609-3.482-2.881-5.604-3.805c-2.128-0.929-4.428-1.391-6.898-1.391
	c-2.402,0-4.646,0.446-6.741,1.334c-2.095,0.895-3.941,2.148-5.559,3.759c-1.607,1.614-2.914,3.498-3.906,5.66
	c-0.998,2.164-1.526,4.509-1.595,7.051c0,2.471,0.458,4.767,1.387,6.893c0.928,2.126,2.193,3.999,3.808,5.608
	c1.614,1.61,3.497,2.882,5.659,3.806c2.162,0.929,4.477,1.391,6.947,1.391s4.771-0.462,6.898-1.391
	c2.121-0.924,3.991-2.195,5.604-3.806c1.61-1.609,2.882-3.482,3.81-5.608C178.063,207.696,178.521,205.4,178.521,202.929z"/>
<path fill="#FFFFFF" d="M221.639,211.775c-1.643,3.292-4.045,5.934-7.2,7.925c-3.155,1.995-6.691,2.988-10.599,2.988
	c-2.745,0-5.321-0.517-7.719-1.546c-2.406-1.029-4.493-2.436-6.277-4.218c-1.787-1.785-3.191-3.875-4.219-6.276
	c-1.031-2.402-1.544-4.975-1.544-7.719c0-2.748,0.513-5.32,1.544-7.722c1.027-2.399,2.432-4.513,4.219-6.326
	c1.784-1.818,3.871-3.242,6.277-4.271c2.397-1.029,4.974-1.543,7.719-1.543c3.907,0,7.443,1.011,10.599,3.033
	c3.155,2.025,5.558,4.686,7.2,7.978v-11.011h2.059v19.862v19.759h-2.059V211.775z M186.141,202.929c0,2.471,0.458,4.767,1.388,6.893
	c0.925,2.126,2.192,3.999,3.804,5.608c1.617,1.61,3.487,2.882,5.613,3.806c2.123,0.929,4.423,1.391,6.895,1.391
	c2.47,0,4.783-0.462,6.946-1.391c2.161-0.924,4.045-2.195,5.657-3.806c1.611-1.609,2.882-3.482,3.808-5.608
	c0.931-2.126,1.388-4.422,1.388-6.893c-0.135-2.542-0.684-4.887-1.643-7.051c-0.964-2.162-2.251-4.046-3.858-5.66
	c-1.615-1.61-3.484-2.864-5.611-3.759c-2.124-0.888-4.354-1.334-6.687-1.334c-2.472,0-4.771,0.462-6.895,1.391
	c-2.126,0.924-3.996,2.195-5.613,3.805c-1.611,1.618-2.879,3.496-3.804,5.658C186.599,198.14,186.141,200.458,186.141,202.929z"/>
<path fill="#FFFFFF" d="M231.023,222.688h-2.062v-62.146h2.062v33.535c1.643-3.292,4.045-5.952,7.199-7.978
	c3.154-2.022,6.693-3.033,10.6-3.033c2.748,0,5.32,0.514,7.722,1.543s4.49,2.453,6.276,4.271c1.784,1.813,3.188,3.927,4.221,6.326
	c1.027,2.401,1.542,4.974,1.542,7.722c0,2.744-0.515,5.316-1.542,7.719c-1.033,2.401-2.437,4.491-4.221,6.276
	c-1.786,1.782-3.875,3.188-6.276,4.218s-4.974,1.546-7.722,1.546c-3.906,0-7.445-0.993-10.6-2.988
	c-3.154-1.991-5.557-4.633-7.199-7.925V222.688z M266.524,202.929c0-2.472-0.461-4.789-1.391-6.95
	c-0.924-2.162-2.197-4.04-3.806-5.658c-1.615-1.609-3.482-2.881-5.604-3.805c-2.13-0.929-4.43-1.391-6.901-1.391
	c-2.4,0-4.645,0.446-6.739,1.334c-2.093,0.895-3.943,2.148-5.556,3.759c-1.61,1.614-2.918,3.498-3.91,5.66
	c-0.999,2.164-1.525,4.509-1.594,7.051c0,2.471,0.46,4.767,1.391,6.893c0.922,2.126,2.192,3.999,3.805,5.608
	c1.612,1.61,3.496,2.882,5.659,3.806c2.163,0.929,4.478,1.391,6.944,1.391c2.472,0,4.771-0.462,6.901-1.391
	c2.122-0.924,3.989-2.195,5.604-3.806c1.608-1.609,2.882-3.482,3.806-5.608C266.063,207.696,266.524,205.4,266.524,202.929z"/>
<path fill="#FFFFFF" d="M273.01,183.067h2.055v39.621h-2.055V183.067z"/>
<path fill="#FFFFFF" d="M337.838,206.734c0.827,1.099,1.41,2.283,1.752,3.553c0.342,1.271,0.424,2.593,0.258,3.96
	c-0.176,1.375-0.6,2.678-1.287,3.913c-0.69,1.233-1.578,2.263-2.676,3.086c-1.1,0.823-2.281,1.406-3.551,1.746
	c-1.271,0.346-2.592,0.446-3.963,0.31c-1.373-0.134-2.675-0.58-3.906-1.333l-2.781-1.546v-2.368l3.805,2.059
	c1.992,1.171,4.083,1.455,6.278,0.875c2.196-0.581,3.874-1.865,5.044-3.857c1.166-1.991,1.472-4.048,0.926-6.179
	c-0.55-2.123-1.787-3.769-3.703-4.938l-7.104-4.218c-1.233-0.687-2.281-1.579-3.136-2.673c-0.863-1.102-1.459-2.301-1.801-3.606
	c-0.348-1.303-0.43-2.637-0.259-4.012c0.17-1.372,0.634-2.676,1.389-3.911c0.685-1.235,1.581-2.265,2.675-3.085
	c1.098-0.828,2.28-1.409,3.552-1.75c1.271-0.346,2.587-0.431,3.962-0.258c1.373,0.171,2.676,0.632,3.907,1.386l2.781,1.548v2.365
	l-3.805-2.161c-1.032-0.614-2.08-0.993-3.142-1.13c-1.062-0.14-2.11-0.067-3.136,0.203c-1.03,0.276-1.991,0.738-2.882,1.388
	c-0.896,0.656-1.613,1.494-2.161,2.521c-1.169,2.064-1.459,4.172-0.876,6.334c0.58,2.159,1.901,3.823,3.961,4.989l6.79,4.009
	C335.987,204.711,337.016,205.637,337.838,206.734z"/>
<g>
	<path fill="#FFFFFF" d="M78.796,212.24c-1.017,2.038-2.319,3.82-3.894,5.348c-1.581,1.529-3.419,2.719-5.537,3.57
		c-2.061,0.828-4.243,1.246-6.511,1.265c-2.275-0.019-4.447-0.437-6.514-1.265c-2.113-0.852-3.958-2.041-5.536-3.57
		c-1.576-1.527-2.871-3.31-3.89-5.348c-1.022-2.036-1.58-4.221-1.674-6.551l37.631,0.075l-0.075-1.097
		c-0.005-2.717-0.514-5.291-1.53-7.711c-1.019-2.431-2.414-4.53-4.185-6.3c-1.77-1.77-3.882-3.176-6.328-4.224
		c-2.456-1.037-5.039-1.563-7.753-1.563c-2.765,0.052-5.342,0.583-7.716,1.603c-2.378,1.019-4.465,2.425-6.261,4.223
		c-1.798,1.796-3.215,3.894-4.258,6.298c-1.041,2.396-1.566,4.958-1.566,7.675s0.525,5.304,1.566,7.753
		c1.043,2.45,2.452,4.561,4.217,6.33c1.776,1.771,3.86,3.182,6.263,4.227c2.318,1.006,4.81,1.488,7.464,1.48v0.008
		c0.046,0.002,0.095-0.003,0.145-0.003c0.047,0,0.096,0.005,0.146,0.003v-0.008c2.65,0.008,5.146-0.475,7.459-1.48
		c2.4-1.045,4.486-2.456,6.256-4.227c1.776-1.77,3.18-3.88,4.224-6.33c0.598-1.391,1.004-2.833,1.256-4.309h-2.03
		C79.891,209.546,79.447,210.926,78.796,212.24z M46.877,197.065c0.998-2.064,2.295-3.847,3.894-5.355
		c1.6-1.502,3.457-2.678,5.57-3.524c2.11-0.854,4.329-1.277,6.66-1.277c2.325,0,4.539,0.434,6.623,1.311
		c2.085,0.875,3.927,2.064,5.531,3.563c1.6,1.512,2.896,3.266,3.888,5.283c0.999,2.015,1.572,4.205,1.713,6.584H45.241
		C45.335,201.319,45.885,199.124,46.877,197.065z"/>
</g>
<g>
	<path fill="#FFFFFF" d="M315.337,212.24c-1.018,2.038-2.319,3.82-3.895,5.348c-1.584,1.529-3.419,2.719-5.54,3.57
		c-2.06,0.828-4.241,1.246-6.512,1.265c-2.273-0.019-4.443-0.437-6.509-1.265c-2.114-0.852-3.957-2.041-5.538-3.57
		c-1.574-1.527-2.871-3.31-3.891-5.348c-1.021-2.036-1.578-4.221-1.672-6.551l37.628,0.075l-0.071-1.097
		c-0.006-2.717-0.517-5.291-1.535-7.711c-1.016-2.431-2.413-4.53-4.179-6.3c-1.773-1.77-3.886-3.176-6.331-4.224
		c-2.455-1.037-5.04-1.563-7.755-1.563c-2.765,0.052-5.342,0.583-7.714,1.603c-2.376,1.019-4.468,2.425-6.261,4.223
		c-1.797,1.796-3.214,3.894-4.256,6.298c-1.042,2.396-1.565,4.958-1.565,7.675s0.523,5.304,1.565,7.753
		c1.042,2.45,2.448,4.561,4.216,6.33c1.776,1.771,3.857,3.182,6.264,4.227c2.315,1.006,4.805,1.488,7.465,1.48v0.008
		c0.044,0.002,0.09-0.003,0.139-0.003c0.052,0,0.1,0.005,0.147,0.003v-0.008c2.653,0.008,5.149-0.475,7.462-1.48
		c2.402-1.045,4.484-2.456,6.258-4.227c1.774-1.77,3.18-3.88,4.219-6.33c0.598-1.391,1.004-2.833,1.257-4.309h-2.029
		C316.431,209.546,315.987,210.926,315.337,212.24z M283.414,197.065c0.997-2.064,2.294-3.847,3.895-5.355
		c1.6-1.502,3.459-2.678,5.573-3.524c2.109-0.854,4.328-1.277,6.656-1.277c2.329,0,4.542,0.434,6.622,1.311
		c2.086,0.875,3.931,2.064,5.537,3.563c1.598,1.512,2.895,3.266,3.886,5.283c0.999,2.015,1.572,4.205,1.713,6.584h-35.515
		C281.875,201.319,282.421,199.124,283.414,197.065z"/>
</g>
<g>
	<path fill="none" d="M204.501,85.731c0-6.083-2.565-9.178-6.698-9.178c-3.577,0-8.332,2.317-13.613,7.021v3.519v20.357
		C184.189,107.45,204.501,97.082,204.501,85.731z"/>
	<path fill="#9BD4B7" d="M203.845,4.526c-12.023,4.748-21.017,9.99-27.777,15.403c-2.266,1.814-4.281,3.648-6.067,5.491
		c-7.119-7.333-17.788-14.552-33.844-20.894c-46.3-18.283-62.202,23.743-61.674,38.744c0.403,11.411-3.353,54.357,95.515,108.246
		c0,0,0-0.001,0-0.003l0.006,0.003h0.177v-0.101c98.681-53.84,94.936-96.743,95.338-108.146
		C266.047,28.269,250.144-13.757,203.845,4.526z M170.003,137.473c0,0.016,0,0.026,0,0.044h-0.006c0-0.015,0-0.028,0-0.044
		c-91.984-55.905-86.13-107.042-64.45-118.208c22.949-11.818,51.769,12.23,51.769,12.23c1.641,1.464,3.204,2.957,4.657,4.547
		c-0.708,1.266-1.355,2.524-1.913,3.77c-0.946,2.113-1.669,4.189-2.239,6.216c-1.562,5.531-1.916,16.324-1.971,20.676l-0.305-0.262
		c-19.981-12.428-34.257-7.337-34.257,14.547c0,9.707,6.405,19.099,14.48,27.089V85.731c0-11.351,8.925-12.293,20.308-2.157v3.519
		v37.002c6.924,4.506,12.115,7.17,12.115,7.17V87.093v-5.614v-5.493c0-0.651,0-1.346,0-2.018c0-1.021,0-2.03,0-3.061
		c0-5.967,0.656-16.474,1.809-20.567c1.153,4.093,1.81,14.6,1.81,20.567c0,5.758,0,10.572,0,10.572c0,3.089,0.1,5.504,0.268,7.409
		v42.377c0,0,46.904-24.009,46.904-50.277c0-14.089-5.905-21.25-15.443-21.25c-5.413,0-12.012,2.352-19.349,7.01v-0.006
		l-0.038,0.019c-0.07-5.948-0.675-19.033-4.207-26.95c-0.557-1.246-1.205-2.503-1.916-3.77c1.456-1.59,3.016-3.083,4.657-4.547
		c0,0,0.436-0.364,1.208-0.976c5.968-4.699,30.247-21.713,50.56-11.254C256.134,30.431,261.988,81.567,170.003,137.473z
		 M184.189,107.45V87.093v-3.519c5.281-4.704,10.036-7.021,13.613-7.021c4.133,0,6.698,3.094,6.698,9.178
		C204.501,97.082,184.189,107.45,184.189,107.45z"/>
</g>
<path fill="#97D3B7" d="M309.838,244.867h1.154v1.153h-1.154V244.867z"/>
<path fill="#97D3B7" d="M317.248,236.975c-0.479,0.497-0.839,1.05-1.08,1.656c-0.237,0.604-0.361,1.225-0.361,1.857
	c0,0.634,0.124,1.259,0.361,1.875c0.241,0.611,0.602,1.161,1.08,1.639c0.481,0.482,1.027,0.846,1.644,1.094
	c0.613,0.25,1.238,0.376,1.873,0.376s1.258-0.118,1.87-0.36c0.617-0.24,1.163-0.609,1.644-1.109l0.402,0.404
	c-0.536,0.558-1.146,0.968-1.829,1.238c-0.68,0.271-1.372,0.403-2.072,0.403c-0.703,0-1.397-0.137-2.09-0.416
	c-0.692-0.278-1.306-0.688-1.844-1.226c-0.536-0.536-0.942-1.147-1.21-1.831c-0.27-0.682-0.404-1.375-0.404-2.087
	c0-0.71,0.135-1.401,0.404-2.074c0.268-0.671,0.674-1.288,1.21-1.845c0.538-0.537,1.151-0.944,1.844-1.223
	c0.692-0.279,1.387-0.418,2.09-0.418c0.7,0,1.393,0.139,2.072,0.418c0.683,0.278,1.293,0.686,1.829,1.223l-0.402,0.405
	c-0.48-0.48-1.026-0.847-1.644-1.095c-0.612-0.252-1.235-0.376-1.87-0.376s-1.26,0.124-1.873,0.376
	C318.275,236.128,317.729,236.495,317.248,236.975z"/>
<path fill="#97D3B7" d="M339.243,242.967c-0.461,0.919-1.133,1.659-2.017,2.219c-0.884,0.555-1.873,0.834-2.968,0.834
	c-0.769,0-1.489-0.145-2.161-0.434c-0.672-0.287-1.259-0.682-1.755-1.18c-0.501-0.5-0.896-1.086-1.182-1.757
	c-0.29-0.673-0.434-1.393-0.434-2.161c0-0.767,0.144-1.489,0.434-2.16c0.286-0.673,0.681-1.264,1.182-1.771
	c0.496-0.511,1.083-0.908,1.755-1.197c0.672-0.286,1.393-0.431,2.161-0.431c1.095,0,2.084,0.281,2.968,0.851
	c0.884,0.565,1.556,1.311,2.017,2.229v-3.08h0.577v5.56v5.531h-0.577V242.967z M329.304,240.489c0,0.693,0.13,1.333,0.388,1.93
	c0.26,0.596,0.616,1.122,1.067,1.57c0.449,0.452,0.977,0.808,1.57,1.066c0.596,0.26,1.241,0.389,1.93,0.389
	c0.691,0,1.337-0.129,1.943-0.389c0.608-0.259,1.134-0.614,1.586-1.066c0.451-0.448,0.805-0.975,1.067-1.57
	c0.26-0.597,0.388-1.236,0.388-1.93c-0.039-0.71-0.194-1.367-0.461-1.977c-0.27-0.604-0.631-1.13-1.079-1.581
	c-0.454-0.452-0.977-0.803-1.571-1.051c-0.597-0.252-1.222-0.376-1.873-0.376c-0.688,0-1.334,0.129-1.93,0.39
	c-0.594,0.261-1.121,0.613-1.57,1.067c-0.451,0.449-0.808,0.979-1.067,1.584C329.434,239.15,329.304,239.797,329.304,240.489z"/>
<linearGradient id="SVGID_1_" gradientUnits="userSpaceOnUse" x1="165.9482" y1="34.2915" x2="176.3058" y2="28.4066">
	<stop  offset="0" style="stop-color:#67917E"/>
	<stop  offset="0.357" style="stop-color:#7BAB95"/>
	<stop  offset="0.7825" style="stop-color:#8EC6AC"/>
	<stop  offset="1" style="stop-color:#97D3B7"/>
</linearGradient>
<path fill="url(#SVGID_1_)" d="M176.067,19.93c-2.266,1.814-4.281,3.648-6.067,5.491c3.442,3.544,6.055,7.111,8.028,10.622
	c1.456-1.59,3.016-3.083,4.657-4.547c0,0,0.436-0.364,1.208-0.976C181.858,26.278,179.157,22.958,176.067,19.93z"/>
<linearGradient id="SVGID_2_" gradientUnits="userSpaceOnUse" x1="174.4502" y1="45.2554" x2="167.4449" y2="52.5454">
	<stop  offset="0" style="stop-color:#67917E"/>
	<stop  offset="0.357" style="stop-color:#7BAB95"/>
	<stop  offset="0.7825" style="stop-color:#8EC6AC"/>
	<stop  offset="1" style="stop-color:#97D3B7"/>
</linearGradient>
<path fill="url(#SVGID_2_)" d="M160.06,39.812c-0.946,2.113-1.669,4.189-2.239,6.216c5.151,5.303,9.083,17.296,10.371,27.94
	c0-1.021,0-2.03,0-3.061c0-5.967,0.656-16.474,1.809-20.567c-1.721-6.104-4.556-10.503-8.027-14.298
	C161.265,37.308,160.617,38.566,160.06,39.812z"/>
</svg>
