<?xml version="1.0" encoding="utf-8"?>
<!DOCTYPE svg PUBLIC "-//W3C//DTD SVG 1.1//EN" "http://www.w3.org/Graphics/SVG/1.1/DTD/svg11.dtd">
<svg version="1.1" id="Layer_1" xmlns="http://www.w3.org/2000/svg" xmlns:xlink="http://www.w3.org/1999/xlink" x="0px" y="0px"
	 width="154.569px" height="29.215px" viewBox="0 0 154.569 29.215" enable-background="new 0 0 154.569 29.215"
	 xml:space="preserve">
<g>
	<g>
		<path fill="#FFFFFF" stroke="#FFFFFF" stroke-width="0.3309" stroke-miterlimit="10" d="M133.478,4.52
			c-0.868-0.773-1.549-0.701-1.549,0.164c0,0.866,1.549,1.567,1.549,1.567s1.549-0.701,1.549-1.567
			C135.026,3.818,134.346,3.746,133.478,4.52z"/>
		<path fill="#FFFFFF" stroke="#FFFFFF" stroke-width="0.3309" stroke-miterlimit="10" d="M46.718,20.853h-0.655V1.05h0.655v10.687
			c0.503-1.05,1.258-1.897,2.263-2.542c1.006-0.645,2.131-0.968,3.379-0.968c0.873,0,1.692,0.165,2.458,0.492
			c0.765,0.328,1.438,0.781,2.018,1.361c0.578,0.578,1.033,1.252,1.36,2.016c0.328,0.766,0.493,1.586,0.493,2.461v6.296h-0.657
			v-6.296c0-0.787-0.148-1.525-0.442-2.215c-0.295-0.688-0.699-1.288-1.213-1.803c-0.514-0.514-1.116-0.919-1.803-1.213
			c-0.69-0.296-1.429-0.442-2.214-0.442c-0.787,0-1.521,0.146-2.198,0.442c-0.679,0.294-1.273,0.699-1.787,1.213
			c-0.514,0.515-0.918,1.114-1.214,1.803c-0.294,0.689-0.442,1.428-0.442,2.215V20.853z"/>
		<path fill="#FFFFFF" stroke="#FFFFFF" stroke-width="0.3309" stroke-miterlimit="10" d="M75.793,26.755
			c1.223,1.093,2.557,1.64,4,1.64c0.787,0,1.524-0.147,2.213-0.443c0.689-0.295,1.289-0.699,1.805-1.213
			c0.512-0.515,0.917-1.11,1.212-1.787c0.296-0.678,0.443-1.41,0.443-2.197v-5.379c-0.524,1.05-1.29,1.892-2.295,2.525
			c-1.006,0.636-2.133,0.952-3.378,0.952c-0.875,0-1.694-0.164-2.46-0.492c-0.765-0.328-1.431-0.776-2.001-1.345
			c-0.568-0.568-1.016-1.234-1.343-2c-0.329-0.766-0.492-1.585-0.492-2.459v-6.33h0.656v6.33c0,0.787,0.146,1.519,0.442,2.196
			c0.295,0.678,0.698,1.274,1.213,1.788c0.515,0.513,1.109,0.918,1.787,1.212c0.677,0.296,1.41,0.442,2.197,0.442
			s1.524-0.146,2.213-0.442c0.689-0.294,1.289-0.699,1.805-1.212c0.512-0.514,0.917-1.11,1.212-1.788
			c0.296-0.678,0.443-1.409,0.443-2.196v-6.33h0.655v14.527c0,0.874-0.163,1.694-0.49,2.46c-0.329,0.764-0.783,1.431-1.361,1.999
			c-0.58,0.569-1.252,1.018-2.018,1.345c-0.765,0.329-1.585,0.492-2.459,0.492c-0.853,0-1.662-0.159-2.428-0.476
			c-0.765-0.316-1.441-0.759-2.033-1.327L75.793,26.755z"/>
		<path fill="#FFFFFF" stroke="#FFFFFF" stroke-width="0.3309" stroke-miterlimit="10" d="M91.637,20.853H90.98V1.05h0.656v10.687
			c0.523-1.05,1.289-1.897,2.295-2.542c1.005-0.645,2.133-0.968,3.378-0.968c0.874,0,1.693,0.165,2.46,0.492
			c0.766,0.328,1.431,0.781,2,1.361c0.568,0.578,1.016,1.252,1.345,2.016c0.327,0.766,0.491,1.586,0.491,2.461
			c0,0.874-0.164,1.693-0.491,2.459c-0.329,0.766-0.776,1.432-1.345,2c-0.569,0.568-1.234,1.017-2,1.345
			c-0.767,0.328-1.586,0.492-2.46,0.492c-1.245,0-2.373-0.316-3.378-0.952c-1.006-0.634-1.771-1.476-2.295-2.525V20.853z
			 M102.948,14.557c0-0.787-0.146-1.525-0.441-2.215c-0.296-0.688-0.7-1.288-1.214-1.803c-0.514-0.514-1.109-0.919-1.785-1.213
			c-0.679-0.296-1.411-0.442-2.198-0.442c-0.766,0-1.481,0.143-2.148,0.425c-0.667,0.285-1.256,0.685-1.771,1.197
			c-0.512,0.515-0.929,1.115-1.245,1.804c-0.317,0.689-0.485,1.438-0.508,2.247c0,0.787,0.146,1.519,0.442,2.196
			c0.295,0.678,0.698,1.274,1.213,1.788c0.515,0.513,1.114,0.918,1.804,1.212c0.688,0.296,1.426,0.442,2.214,0.442
			c0.787,0,1.52-0.146,2.198-0.442c0.676-0.294,1.271-0.699,1.785-1.212c0.514-0.514,0.918-1.11,1.214-1.788
			S102.948,15.344,102.948,14.557z"/>
		<path fill="#FFFFFF" stroke="#FFFFFF" stroke-width="0.3309" stroke-miterlimit="10" d="M116.688,17.375
			c-0.524,1.05-1.289,1.892-2.294,2.525c-1.006,0.636-2.133,0.952-3.378,0.952c-0.875,0-1.695-0.164-2.46-0.492
			c-0.767-0.328-1.432-0.776-2-1.345c-0.569-0.568-1.017-1.234-1.345-2s-0.491-1.585-0.491-2.459c0-0.875,0.163-1.695,0.491-2.461
			c0.328-0.764,0.775-1.438,1.345-2.016c0.568-0.58,1.233-1.033,2-1.361c0.765-0.327,1.585-0.492,2.46-0.492
			c1.245,0,2.372,0.323,3.378,0.968c1.005,0.645,1.77,1.492,2.294,2.542v-3.51h0.656v6.33v6.296h-0.656V17.375z M105.377,14.557
			c0,0.787,0.146,1.519,0.441,2.196c0.295,0.678,0.699,1.274,1.213,1.788c0.515,0.513,1.11,0.918,1.788,1.212
			c0.677,0.296,1.409,0.442,2.197,0.442c0.787,0,1.524-0.146,2.213-0.442c0.689-0.294,1.289-0.699,1.803-1.212
			c0.514-0.514,0.919-1.11,1.214-1.788c0.296-0.678,0.442-1.409,0.442-2.196c-0.044-0.81-0.218-1.558-0.524-2.247
			c-0.307-0.688-0.717-1.289-1.229-1.804c-0.515-0.513-1.11-0.912-1.788-1.197c-0.677-0.282-1.388-0.425-2.131-0.425
			c-0.788,0-1.521,0.146-2.197,0.442c-0.678,0.294-1.273,0.699-1.788,1.213c-0.514,0.515-0.918,1.114-1.213,1.803
			C105.522,13.031,105.377,13.77,105.377,14.557z"/>
		<path fill="#FFFFFF" stroke="#FFFFFF" stroke-width="0.3309" stroke-miterlimit="10" d="M119.679,20.853h-0.657V1.05h0.657v10.687
			c0.523-1.05,1.289-1.897,2.294-2.542s2.133-0.968,3.378-0.968c0.875,0,1.694,0.165,2.46,0.492c0.766,0.328,1.432,0.781,2,1.361
			c0.568,0.578,1.016,1.252,1.346,2.016c0.327,0.766,0.491,1.586,0.491,2.461c0,0.874-0.164,1.693-0.491,2.459
			c-0.33,0.766-0.777,1.432-1.346,2s-1.234,1.017-2,1.345s-1.585,0.492-2.46,0.492c-1.245,0-2.373-0.316-3.378-0.952
			c-1.005-0.634-1.771-1.476-2.294-2.525V20.853z M130.991,14.557c0-0.787-0.146-1.525-0.443-2.215
			c-0.294-0.688-0.7-1.288-1.213-1.803c-0.514-0.514-1.109-0.919-1.786-1.213c-0.678-0.296-1.411-0.442-2.198-0.442
			c-0.766,0-1.48,0.143-2.147,0.425c-0.667,0.285-1.257,0.685-1.771,1.197c-0.513,0.515-0.93,1.115-1.246,1.804
			c-0.318,0.689-0.486,1.438-0.508,2.247c0,0.787,0.146,1.519,0.442,2.196c0.295,0.678,0.699,1.274,1.213,1.788
			c0.514,0.513,1.114,0.918,1.803,1.212c0.69,0.296,1.428,0.442,2.214,0.442c0.787,0,1.521-0.146,2.198-0.442
			c0.677-0.294,1.272-0.699,1.786-1.212c0.513-0.514,0.919-1.11,1.213-1.788C130.845,16.075,130.991,15.344,130.991,14.557z"/>
		<path fill="#FFFFFF" stroke="#FFFFFF" stroke-width="0.3309" stroke-miterlimit="10" d="M133.058,8.227h0.655v12.626h-0.655V8.227
			z"/>
		<path fill="#FFFFFF" stroke="#FFFFFF" stroke-width="0.3309" stroke-miterlimit="10" d="M153.715,15.769
			c0.264,0.351,0.449,0.728,0.559,1.132c0.109,0.405,0.136,0.826,0.082,1.262c-0.056,0.439-0.191,0.854-0.41,1.247
			c-0.22,0.394-0.502,0.722-0.852,0.983c-0.352,0.263-0.728,0.448-1.132,0.557c-0.405,0.11-0.826,0.143-1.263,0.099
			c-0.438-0.043-0.853-0.185-1.245-0.425l-0.886-0.492v-0.755l1.212,0.656c0.635,0.373,1.301,0.464,2,0.279
			c0.7-0.186,1.235-0.596,1.607-1.229c0.372-0.635,0.47-1.29,0.296-1.969c-0.176-0.677-0.57-1.201-1.181-1.573l-2.264-1.345
			c-0.393-0.219-0.727-0.503-0.999-0.852c-0.275-0.351-0.465-0.732-0.574-1.149c-0.11-0.415-0.137-0.84-0.082-1.277
			c0.054-0.438,0.202-0.854,0.442-1.247c0.218-0.394,0.504-0.722,0.853-0.983c0.35-0.264,0.727-0.448,1.132-0.557
			c0.404-0.11,0.824-0.138,1.263-0.083c0.437,0.055,0.853,0.202,1.245,0.442l0.886,0.493v0.754l-1.213-0.689
			c-0.328-0.195-0.662-0.316-1.001-0.36c-0.338-0.044-0.672-0.021-0.999,0.065c-0.328,0.088-0.635,0.235-0.918,0.442
			c-0.285,0.208-0.514,0.476-0.689,0.804c-0.372,0.657-0.464,1.328-0.278,2.017c0.185,0.688,0.605,1.22,1.263,1.591l2.163,1.277
			C153.126,15.125,153.453,15.42,153.715,15.769z"/>
		<g>
			<path fill="#FFFFFF" stroke="#FFFFFF" stroke-width="0.3309" stroke-miterlimit="10" d="M71.171,17.522
				c-0.324,0.65-0.739,1.219-1.24,1.705c-0.504,0.487-1.09,0.866-1.765,1.138c-0.657,0.264-1.352,0.396-2.075,0.402
				c-0.725-0.006-1.417-0.139-2.075-0.402c-0.673-0.271-1.261-0.65-1.765-1.138c-0.502-0.486-0.915-1.055-1.239-1.705
				c-0.325-0.648-0.503-1.344-0.533-2.087L72.47,15.46l-0.023-0.349c-0.002-0.866-0.164-1.687-0.488-2.458
				c-0.324-0.774-0.77-1.443-1.333-2.007c-0.563-0.564-1.237-1.013-2.017-1.347c-0.783-0.33-1.605-0.497-2.471-0.497
				c-0.881,0.016-1.702,0.186-2.458,0.51c-0.758,0.325-1.424,0.773-1.995,1.346c-0.573,0.572-1.024,1.241-1.357,2.007
				c-0.332,0.764-0.499,1.58-0.499,2.446c0,0.865,0.167,1.689,0.499,2.47c0.333,0.78,0.781,1.453,1.344,2.018
				c0.566,0.563,1.23,1.013,1.996,1.346c0.738,0.321,1.532,0.475,2.378,0.472v0.003c0.015,0.001,0.03-0.001,0.046-0.001
				s0.031,0.002,0.047,0.001v-0.003c0.845,0.003,1.64-0.15,2.377-0.472c0.765-0.333,1.43-0.782,1.994-1.346
				c0.565-0.564,1.013-1.237,1.345-2.018c0.19-0.443,0.32-0.902,0.4-1.373h-0.646C71.52,16.665,71.378,17.104,71.171,17.522z
				 M61,12.688c0.318-0.658,0.73-1.227,1.24-1.707c0.51-0.479,1.103-0.854,1.775-1.123c0.672-0.272,1.38-0.407,2.122-0.407
				c0.741,0,1.446,0.139,2.11,0.418c0.665,0.278,1.252,0.657,1.763,1.136c0.51,0.481,0.923,1.04,1.239,1.684
				c0.318,0.642,0.501,1.339,0.546,2.098H60.479C60.509,14.044,60.684,13.344,61,12.688z"/>
		</g>
		<g>
			<path fill="#FFFFFF" stroke="#FFFFFF" stroke-width="0.3309" stroke-miterlimit="10" d="M146.545,17.522
				c-0.324,0.65-0.738,1.219-1.24,1.705c-0.505,0.487-1.09,0.866-1.766,1.138c-0.656,0.264-1.352,0.396-2.074,0.402
				c-0.726-0.006-1.417-0.139-2.075-0.402c-0.673-0.271-1.261-0.65-1.765-1.138c-0.501-0.486-0.914-1.055-1.239-1.705
				c-0.325-0.648-0.503-1.344-0.533-2.087l11.99,0.024l-0.022-0.349c-0.002-0.866-0.165-1.687-0.488-2.458
				c-0.324-0.774-0.77-1.443-1.333-2.007c-0.564-0.564-1.237-1.013-2.017-1.347c-0.782-0.33-1.606-0.497-2.472-0.497
				c-0.881,0.016-1.702,0.186-2.458,0.51c-0.757,0.325-1.424,0.773-1.995,1.346c-0.572,0.572-1.023,1.241-1.355,2.007
				c-0.333,0.764-0.499,1.58-0.499,2.446c0,0.865,0.166,1.689,0.499,2.47c0.332,0.78,0.78,1.453,1.343,2.018
				c0.566,0.563,1.229,1.013,1.996,1.346c0.738,0.321,1.531,0.475,2.379,0.472v0.003c0.014,0.001,0.028-0.001,0.045-0.001
				c0.016,0,0.031,0.002,0.046,0.001v-0.003c0.846,0.003,1.642-0.15,2.378-0.472c0.766-0.333,1.429-0.782,1.994-1.346
				c0.565-0.564,1.013-1.237,1.344-2.018c0.191-0.443,0.32-0.902,0.4-1.373h-0.646C146.894,16.665,146.753,17.104,146.545,17.522z
				 M136.373,12.688c0.318-0.658,0.73-1.227,1.241-1.707c0.509-0.479,1.103-0.854,1.775-1.123c0.673-0.272,1.38-0.407,2.121-0.407
				c0.743,0,1.447,0.139,2.11,0.418c0.665,0.278,1.253,0.657,1.765,1.136c0.509,0.481,0.922,1.04,1.238,1.684
				c0.318,0.642,0.501,1.339,0.546,2.098h-11.317C135.883,14.044,136.057,13.344,136.373,12.688z"/>
		</g>
	</g>
</g>
<g>
	<g>
		<path fill="none" d="M23.82,15.706c0-1.114-0.471-1.682-1.228-1.682c-0.654,0-1.525,0.425-2.493,1.286v0.645v3.729
			C20.1,19.685,23.82,17.785,23.82,15.706z"/>
		<path fill="#FFFFFF" d="M23.7,0.829c-2.203,0.871-3.85,1.831-5.089,2.823C18.196,3.983,17.827,4.32,17.5,4.657
			c-1.304-1.344-3.259-2.666-6.199-3.828C2.818-2.52-0.095,5.18,0.002,7.928c0.074,2.091-0.614,9.957,17.498,19.829v-0.001
			l0.001,0.001h0.032v-0.019C35.61,17.875,34.924,10.017,34.998,7.928C35.095,5.18,32.182-2.52,23.7,0.829z M17.501,25.185
			c0,0.002,0,0.004,0,0.008H17.5C17.5,25.189,17.5,25.187,17.501,25.185C0.649,14.943,1.722,5.575,5.692,3.53
			c4.204-2.165,9.484,2.24,9.484,2.24c0.3,0.269,0.587,0.542,0.853,0.832c-0.13,0.232-0.249,0.463-0.351,0.691
			c-0.173,0.388-0.306,0.767-0.41,1.139c-0.286,1.013-0.351,2.99-0.361,3.787l-0.055-0.048c-3.661-2.276-6.276-1.345-6.276,2.665
			c0,1.777,1.174,3.499,2.652,4.963v-4.094c0-2.079,1.636-2.252,3.721-0.396v0.645v6.778c1.268,0.825,2.22,1.314,2.22,1.314v-8.093
			v-1.028v-1.006c0-0.119,0-0.247,0-0.37c0-0.187,0-0.372,0-0.561c0-1.094,0.12-3.019,0.331-3.768
			c0.211,0.749,0.331,2.674,0.331,3.768c0,1.055,0,1.937,0,1.937c0,0.565,0.019,1.009,0.05,1.356v7.765c0,0,8.592-4.399,8.592-9.211
			c0-2.58-1.081-3.894-2.828-3.894c-0.992,0-2.201,0.433-3.545,1.285v-0.001l-0.007,0.004c-0.013-1.09-0.124-3.487-0.771-4.938
			c-0.102-0.229-0.221-0.459-0.352-0.691c0.267-0.29,0.553-0.563,0.853-0.832c0,0,0.08-0.066,0.222-0.179
			c1.093-0.861,5.541-3.979,9.263-2.062C33.278,5.575,34.351,14.943,17.501,25.185z M20.1,19.685v-3.729v-0.645
			c0.968-0.861,1.839-1.286,2.493-1.286c0.757,0,1.228,0.567,1.228,1.682C23.82,17.785,20.1,19.685,20.1,19.685z"/>
	</g>
	<linearGradient id="SVGID_1_" gradientUnits="userSpaceOnUse" x1="16.7578" y1="6.2822" x2="18.655" y2="5.2043">
		<stop  offset="0" style="stop-color:#808285"/>
		<stop  offset="0.1391" style="stop-color:#939598"/>
		<stop  offset="0.5484" style="stop-color:#CACCCE"/>
		<stop  offset="0.8444" style="stop-color:#EEEFEF"/>
		<stop  offset="0.9949" style="stop-color:#FFFFFF"/>
	</linearGradient>
	<path fill="url(#SVGID_1_)" d="M18.611,3.652C18.196,3.983,17.827,4.32,17.5,4.657c0.63,0.649,1.109,1.303,1.471,1.945
		c0.267-0.29,0.553-0.563,0.853-0.832c0,0,0.08-0.066,0.222-0.179C19.672,4.814,19.178,4.206,18.611,3.652z"/>
	<linearGradient id="SVGID_2_" gradientUnits="userSpaceOnUse" x1="18.3154" y1="8.291" x2="17.0322" y2="9.6265">
		<stop  offset="0" style="stop-color:#808285"/>
		<stop  offset="0.1399" style="stop-color:#939598"/>
		<stop  offset="0.5512" style="stop-color:#CACCCE"/>
		<stop  offset="0.8488" style="stop-color:#EEEFEF"/>
		<stop  offset="1" style="stop-color:#FFFFFF"/>
	</linearGradient>
	<path fill="url(#SVGID_2_)" d="M15.679,7.294c-0.173,0.388-0.306,0.767-0.41,1.139c0.944,0.972,1.664,3.169,1.9,5.118
		c0-0.187,0-0.372,0-0.561c0-1.094,0.12-3.019,0.331-3.768c-0.314-1.118-0.834-1.925-1.471-2.62
		C15.899,6.835,15.78,7.065,15.679,7.294z"/>
</g>
</svg>
