<?xml version="1.0" encoding="utf-8"?>
<!DOCTYPE svg PUBLIC "-//W3C//DTD SVG 1.1//EN" "http://www.w3.org/Graphics/SVG/1.1/DTD/svg11.dtd">
<svg version="1.1" id="Layer_1" xmlns="http://www.w3.org/2000/svg" xmlns:xlink="http://www.w3.org/1999/xlink" x="0px" y="0px"
	 width="34.045px" height="27px" viewBox="-102.742 0.235 34.045 27" enable-background="new -102.742 0.235 34.045 27"
	 xml:space="preserve">
<g>
	<g>
		<g>
			<path fill="#FFFFFF" d="M-79.685,1.042c-2.144,0.845-3.747,1.78-4.95,2.744c-0.404,0.324-0.766,0.651-1.083,0.979
				c-1.27-1.307-3.17-2.594-6.032-3.723c-8.25-3.258-11.084,4.231-10.989,6.904c0.071,2.034-0.598,9.687,17.021,19.29l0,0l0,0h0.031
				v-0.018c17.584-9.595,16.917-17.239,16.989-19.272C-68.601,5.272-71.437-2.216-79.685,1.042z M-85.717,24.733
				c0,0.003,0,0.004,0,0.006l0,0C-85.718,24.737-85.718,24.736-85.717,24.733c-16.393-9.963-15.35-19.075-11.487-21.065
				c4.09-2.106,9.224,2.179,9.224,2.179c0.293,0.261,0.571,0.527,0.83,0.81c-0.126,0.226-0.243,0.449-0.341,0.672
				c-0.169,0.378-0.297,0.747-0.398,1.108c-0.279,0.987-0.342,2.911-0.352,3.686l-0.054-0.046c-3.562-2.214-6.104-1.31-6.104,2.591
				c0,1.73,1.142,3.404,2.58,4.827v-3.981c0-2.024,1.591-2.19,3.619-0.386v0.628v6.592c1.233,0.804,2.157,1.278,2.157,1.278v-7.87
				v-1.001v-0.979c0-0.117,0-0.24,0-0.36c0-0.181,0-0.361,0-0.544c0-1.064,0.12-2.936,0.324-3.665
				c0.204,0.729,0.323,2.601,0.323,3.665c0,1.024,0,1.883,0,1.883c0,0.551,0.017,0.981,0.048,1.321v7.55
				c0,0,8.358-4.278,8.358-8.959c0-2.511-1.054-3.787-2.754-3.787c-0.964,0-2.138,0.419-3.446,1.248l0,0l-0.006,0.002
				c-0.013-1.058-0.12-3.391-0.751-4.802c-0.099-0.221-0.214-0.445-0.342-0.672c0.261-0.283,0.538-0.549,0.831-0.81
				c0,0,0.077-0.065,0.216-0.174c1.063-0.836,5.391-3.869,9.011-2.005C-70.369,5.658-69.325,14.77-85.717,24.733z M-83.19,19.382
				v-3.626v-0.628c0.941-0.837,1.79-1.251,2.426-1.251c0.738,0,1.194,0.552,1.194,1.636C-79.57,17.536-83.19,19.382-83.19,19.382z"
				/>
		</g>
	</g>
</g>
</svg>
