<?xml version="1.0" encoding="utf-8"?>
<!DOCTYPE svg PUBLIC "-//W3C//DTD SVG 1.1//EN" "http://www.w3.org/Graphics/SVG/1.1/DTD/svg11.dtd">
<svg version="1.1" id="Layer_1" xmlns="http://www.w3.org/2000/svg" xmlns:xlink="http://www.w3.org/1999/xlink" x="0px" y="0px"
	 width="19.992px" height="20.378px" viewBox="0 0 19.992 20.378" enable-background="new 0 0 19.992 20.378" xml:space="preserve">
<path fill="#FFFFFF" d="M19.992,15.367V8.463h-0.006v7.148C19.989,15.53,19.992,15.449,19.992,15.367z"/>
<path fill="#FFFFFF" d="M4.971,20.378h10.051c0.127,0,0.252-0.006,0.376-0.016H4.594C4.719,20.372,4.844,20.378,4.971,20.378z"/>
<path fill="#FFFFFF" d="M0,8.463v6.904c0,0.016,0.001,0.032,0.001,0.048V8.463H0z"/>
<path fill="#FFFFFF" d="M14.534,8.463c0.242,0.582,0.377,1.222,0.377,1.893c0,2.707-2.176,4.9-4.86,4.9s-4.86-2.193-4.86-4.9
	c0-0.671,0.134-1.311,0.376-1.893H0.001v6.953v1.434c0,1.94,1.544,3.513,3.45,3.513h1.143h10.803h1.139
	c1.905,0,3.449-1.573,3.449-3.513v-1.238V8.463H14.534z"/>
<path fill="#FFFFFF" d="M10.916,8.463c-0.277-0.141-0.589-0.223-0.92-0.223s-0.644,0.082-0.92,0.223
	C8.409,8.803,7.952,9.496,7.952,10.3c0,1.138,0.915,2.061,2.043,2.061s2.043-0.922,2.043-2.061
	C12.039,9.496,11.582,8.803,10.916,8.463z"/>
<path fill="#FFFFFF" d="M19.992,6.57V5.011c0-0.082-0.002-0.164-0.006-0.245V6.57H19.992z"/>
<path fill="#FFFFFF" d="M15.021,0H4.971C4.888,0,4.805,0.002,4.723,0.006h10.545C15.187,0.002,15.104,0,15.021,0z"/>
<path fill="#FFFFFF" d="M0,5.011V6.57h0.001V4.962C0.001,4.979,0,4.995,0,5.011z"/>
<path fill="#FFFFFF" d="M16.536,0.006h-1.268H4.723H3.451c-1.905,0-3.45,1.574-3.45,3.514v1.443V6.57h6.965
	c0.839-0.696,1.914-1.113,3.084-1.113c1.171,0,2.246,0.417,3.085,1.113h6.85V4.767V3.52C19.985,1.58,18.441,0.006,16.536,0.006z
	 M16.899,4.844c0,0.277-0.223,0.501-0.497,0.501h-1.768c-0.274,0-0.497-0.224-0.497-0.501V3.062c0-0.277,0.223-0.501,0.497-0.501
	h1.768c0.274,0,0.497,0.225,0.497,0.501V4.844z"/>
</svg>
