<?xml version="1.0" encoding="utf-8"?>
<!DOCTYPE svg PUBLIC "-//W3C//DTD SVG 1.1//EN" "http://www.w3.org/Graphics/SVG/1.1/DTD/svg11.dtd">
<svg version="1.1" id="Layer_1" xmlns="http://www.w3.org/2000/svg" xmlns:xlink="http://www.w3.org/1999/xlink" x="0px" y="0px"
	 width="35px" height="35px" viewBox="0 0 35 35" enable-background="new 0 0 35 35" xml:space="preserve">
<path fill="#FFFFFF" d="M33.339,0H1.661C0.745,0,0,0.745,0,1.661V33.34C0,34.255,0.745,35,1.661,35h31.679
	C34.255,35,35,34.255,35,33.34V1.661C35,0.745,34.255,0,33.339,0z M32.9,32.901H2.1V2.1H32.9V32.901z"/>
<path fill="#FFFFFF" d="M19.069,17.5l5.677-5.677c0.434-0.434,0.434-1.136,0-1.569c-0.434-0.433-1.135-0.433-1.569,0L17.5,15.931
	l-5.677-5.678c-0.434-0.433-1.136-0.433-1.569,0c-0.434,0.433-0.434,1.136,0,1.569l5.677,5.677l-5.621,5.621
	c-0.433,0.433-0.433,1.136,0,1.569c0.217,0.217,0.501,0.325,0.784,0.325c0.284,0,0.568-0.109,0.785-0.325l5.621-5.621l5.677,5.678
	c0.218,0.217,0.501,0.325,0.785,0.325c0.284,0,0.567-0.108,0.784-0.325c0.434-0.433,0.434-1.136,0-1.569L19.069,17.5z"/>
</svg>
