<?xml version="1.0" encoding="utf-8"?>
<!DOCTYPE svg PUBLIC "-//W3C//DTD SVG 1.1//EN" "http://www.w3.org/Graphics/SVG/1.1/DTD/svg11.dtd">
<svg version="1.1" id="Layer_1" xmlns="http://www.w3.org/2000/svg" xmlns:xlink="http://www.w3.org/1999/xlink" x="0px" y="0px"
	 width="17px" height="21px" viewBox="0 0 17 21" enable-background="new 0 0 17 21" xml:space="preserve">
<path fill="none" stroke="#FFFFFF" stroke-width="2" stroke-miterlimit="10" d="M8.496,1C6.133,1,4.218,2.862,4.218,5.159
	c0,2.296,1.916,4.159,4.278,4.159s4.278-1.862,4.278-4.159C12.773,2.862,10.858,1,8.496,1z"/>
<path fill="none" stroke="#FFFFFF" stroke-width="2" stroke-miterlimit="10" d="M15.766,17.497c-0.529-2.609-1.864-4.791-3.64-6.066
	c-1.075-0.772-2.312-1.213-3.627-1.213c-0.001,0-0.001,0-0.002,0s-0.001,0-0.002,0c-1.315,0-2.551,0.441-3.627,1.213
	c-1.775,1.275-3.111,3.457-3.64,6.066c-0.116,0.572-0.193,1.165-0.228,1.773c-0.013,0.24,0.108,0.727,0.776,0.727
	c1.596,0,4.176,0,6.705,0c0.01,0,0.021,0,0.031,0c2.528,0,5.108,0,6.705,0c0.668,0,0.79-0.487,0.776-0.727
	C15.959,18.662,15.882,18.069,15.766,17.497z"/>
</svg>
