<?xml version="1.0" encoding="utf-8"?>
<!DOCTYPE svg PUBLIC "-//W3C//DTD SVG 1.1//EN" "http://www.w3.org/Graphics/SVG/1.1/DTD/svg11.dtd">
<svg version="1.1" id="Layer_1" xmlns="http://www.w3.org/2000/svg" xmlns:xlink="http://www.w3.org/1999/xlink" x="0px" y="0px"
	 width="19.982px" height="22.011px" viewBox="0 0 19.982 22.011" enable-background="new 0 0 19.982 22.011" xml:space="preserve">
<g>
	<path fill="#FFFFFF" d="M4.323,10.007l1.417,0.145l0.002-0.005l4.113,0.406l0.197,0.02l0.197-0.02l3.902-0.388l0.001,0.003
		l1.57-0.158l0.029-0.003c0.011,0.046,0.022,0.1,0.031,0.162l0.228,1.717l0.165,1.242l0.805,0.267v2.914l-0.318,0.501l0.095,0.721
		l0.196,1.48H3.126l0.181-1.362l0.11-0.834L3,16.283v-2.851l0.894-0.218l0.18-1.356l0.229-1.735
		C4.308,10.078,4.315,10.04,4.323,10.007 M9.919,1C8.494,1,7.097,2.238,5.768,4.681c-0.602,1.106-1.211,2.551-1.45,3.315
		L4.136,7.978c-1.006,0-1.701,0.819-1.821,1.929l-0.224,1.688C1.466,11.747,1,12.339,1,13.046v3.39c0,0.361,0.122,0.693,0.324,0.951
		L1.1,19.083c0,1.065,0.815,1.929,1.821,1.929h14.24c1.006,0,1.821-0.863,1.821-1.929l-0.24-1.814
		c0.151-0.238,0.24-0.524,0.24-0.832v-3.39c0-0.668-0.416-1.233-0.987-1.422l-0.228-1.717c-0.208-1.344-0.815-1.929-1.821-1.929
		l-0.422,0.042C15.08,6.747,12.912,1,9.919,1L9.919,1z M10.052,8.563L5.818,8.145c0.231-0.627,0.686-1.75,1.295-2.844
		c0.993-1.778,1.989-2.758,2.806-2.758c0.833,0,1.854,1.043,2.878,2.937c0.558,1.032,0.983,2.077,1.215,2.689L10.052,8.563
		L10.052,8.563z"/>
</g>
</svg>
