<?xml version="1.0" encoding="utf-8"?>
<!DOCTYPE svg PUBLIC "-//W3C//DTD SVG 1.1//EN" "http://www.w3.org/Graphics/SVG/1.1/DTD/svg11.dtd">
<svg version="1.1" id="Layer_1" xmlns="http://www.w3.org/2000/svg" xmlns:xlink="http://www.w3.org/1999/xlink" x="0px" y="0px"
	 width="15.548px" height="20.591px" viewBox="0 0 15.548 20.591" enable-background="new 0 0 15.548 20.591" xml:space="preserve">
<path fill="#FFFFFF" d="M0.501,4.923c0.579-1.63,2.221-3.951,5.165-4.617s6.154-0.419,8.543,2.519s1.231,8.37-0.748,10.246
	s-5.406,2.889-6.927,0.345c-0.241,1.062-0.555,2.396-0.821,3.234c-0.265,0.84-0.748,2.148-1.906,3.654
	c-0.241,0.345-0.459,0.469-0.483-0.148s-0.217-3.209-0.096-3.752c0.12-0.543,1.352-5.95,1.617-6.839
	C4.676,9.071,4.17,7.762,4.507,6.75c0.338-1.012,1.086-2.691,2.872-2.099c1.786,0.593,0.58,3.753,0.217,4.691
	c-0.362,0.938-0.82,2.518,0.651,3.308c1.473,0.79,3.596-0.667,4.127-3.457c0.531-2.79,0.506-5.703-2.969-6.814
	C5.932,1.269,2.915,4.034,2.504,6.183C2.094,8.33,2.625,9.293,2.938,9.787c0.314,0.494,0.435,0.568,0.314,0.914
	s-0.265,0.913-0.362,1.135c-0.097,0.223-0.386,0.297-0.941-0.049C0.646,10.651-0.778,8.676,0.501,4.923z"/>
</svg>
