<?xml version="1.0" encoding="utf-8"?>
<!DOCTYPE svg PUBLIC "-//W3C//DTD SVG 1.1//EN" "http://www.w3.org/Graphics/SVG/1.1/DTD/svg11.dtd">
<svg version="1.1" id="Layer_1" xmlns="http://www.w3.org/2000/svg" xmlns:xlink="http://www.w3.org/1999/xlink" x="0px" y="0px"
	 width="19.482px" height="21.511px" viewBox="0 0 19.482 21.511" enable-background="new 0 0 19.482 21.511" xml:space="preserve">
<g>
	<path fill="#FFFFFF" d="M15.753,9.23c0.042,0.002,0.066,0.006,0.074,0.006c0.001,0,0.002,0,0.003,0
		c0.023,0.029,0.132,0.186,0.199,0.618l0.228,1.717l0.123,0.932l0.853,0.282c-0.002,0.001-0.002,0.005-0.002,0.012l-0.006,3.417
		l-0.292,0.46l0.071,0.541l0.224,1.686c-0.026,0.218-0.176,0.36-0.317,0.36H2.671c-0.141,0-0.291-0.142-0.317-0.36l0.208-1.567
		l0.079-0.651l-0.39-0.497l0.004-3.398l0.938-0.229l0.135-1.017l0.228-1.723C3.573,9.664,3.657,9.276,3.85,9.232l0.035,0.003
		l0.033,0.003l1.217,0.123l0.001-0.002L5.42,9.387l4.234,0.418l0.148,0.015L9.95,9.806l3.962-0.393l0.333-0.033l0,0l1.176-0.117
		L15.753,9.23 M9.669,0.75c-1.425,0-2.822,1.238-4.152,3.681c-0.602,1.106-1.211,2.551-1.45,3.315L3.886,7.728
		c-1.006,0-1.701,0.818-1.822,1.928l-0.224,1.688c-0.625,0.153-1.091,0.744-1.091,1.451v3.39c0,0.362,0.122,0.693,0.324,0.951
		L0.85,18.833c0,1.065,0.815,1.929,1.821,1.929h14.24c1.006,0,1.821-0.863,1.821-1.929l-0.24-1.815
		c0.151-0.238,0.24-0.524,0.24-0.832v-3.39c0-0.668-0.415-1.233-0.987-1.423l-0.228-1.717c-0.208-1.344-0.815-1.928-1.821-1.928
		L15.273,7.77C14.83,6.497,12.662,0.75,9.669,0.75L9.669,0.75z M9.802,8.313L5.568,7.895c0.231-0.628,0.685-1.75,1.295-2.844
		c0.993-1.779,1.989-2.758,2.806-2.758c0.833,0,1.854,1.043,2.878,2.937c0.558,1.032,0.983,2.077,1.215,2.69L9.802,8.313
		L9.802,8.313z"/>
</g>
</svg>
