<?xml version="1.0" encoding="utf-8"?>
<!DOCTYPE svg PUBLIC "-//W3C//DTD SVG 1.1//EN" "http://www.w3.org/Graphics/SVG/1.1/DTD/svg11.dtd">
<svg version="1.1" id="Layer_1" xmlns="http://www.w3.org/2000/svg" xmlns:xlink="http://www.w3.org/1999/xlink" x="0px" y="0px"
	 width="20.395px" height="17.247px" viewBox="0 0 20.395 17.247" enable-background="new 0 0 20.395 17.247" xml:space="preserve">
<path fill="#FFFFFF" d="M18.509,4.269C19.174,14.275,8.085,20.517,0,15.446c2.268,0.018,4.781-0.617,6.13-1.923
	c-1.961-0.324-3.352-1.23-3.891-3.005c0.575-0.055,1.381,0.126,1.769-0.12C2.214,9.704,0.795,8.626,0.707,6.192
	c0.64,0.069,0.972,0.452,1.769,0.361C1.315,5.794-0.01,2.91,1.179,0.783c2.106,2.38,4.734,4.228,8.842,4.567
	c-1.019-4.418,4.725-7.155,7.309-3.966c1.005-0.218,1.851-0.596,2.711-0.961c-0.352,1.003-1.068,1.636-1.768,2.284
	c0.761-0.146,1.566-0.247,2.122-0.601C20.297,2.888,19.184,3.674,18.509,4.269z"/>
</svg>
