<?xml version="1.0" encoding="utf-8"?>
<!DOCTYPE svg PUBLIC "-//W3C//DTD SVG 1.1//EN" "http://www.w3.org/Graphics/SVG/1.1/DTD/svg11.dtd">
<svg version="1.1" id="Layer_1" xmlns="http://www.w3.org/2000/svg" xmlns:xlink="http://www.w3.org/1999/xlink" x="0px" y="0px"
	 width="20px" height="20px" viewBox="0 0 20 20" enable-background="new 0 0 20 20" xml:space="preserve">
<path fill="#96D2B7" d="M17.768,0H2.232C1,0,0,1,0,2.232v15.535C0,19,1,20,2.232,20h15.535C19,20,20,19,20,17.768V2.232
	C20,1,19,0,17.768,0z M10,6.159c2.147,0,3.888,1.74,3.888,3.888S12.147,13.935,10,13.935s-3.888-1.74-3.888-3.888
	S7.853,6.159,10,6.159z M17.658,16.979c0,0.388-0.314,0.702-0.703,0.702H3.021c-0.388,0-0.703-0.314-0.703-0.702V8.501h1.742
	c-0.128,0.494-0.196,1.011-0.196,1.546c0,3.389,2.747,6.136,6.136,6.136s6.136-2.747,6.136-6.136c0-0.534-0.068-1.052-0.196-1.546
	h1.719V16.979z M17.658,5.441c0,0.409-0.332,0.741-0.742,0.741h-2.334c-0.409,0-0.741-0.332-0.741-0.741V3.083
	c0-0.409,0.332-0.741,0.741-0.741h2.334c0.41,0,0.742,0.332,0.742,0.741V5.441z"/>
</svg>
