<?xml version="1.0" encoding="utf-8"?>
<!DOCTYPE svg PUBLIC "-//W3C//DTD SVG 1.1//EN" "http://www.w3.org/Graphics/SVG/1.1/DTD/svg11.dtd">
<svg version="1.1" id="Layer_1" xmlns="http://www.w3.org/2000/svg" xmlns:xlink="http://www.w3.org/1999/xlink" x="0px" y="0px"
	 width="15.689px" height="19px" viewBox="118.438 144.123 15.689 19" enable-background="new 118.438 144.123 15.689 19"
	 xml:space="preserve">
<g>
	<g>
		<g>
			<g>
				<g>
					<defs>
						<path id="SVGID_1_" d="M133.931,145.996c-1.605-0.887-3.426-1.305-4.889-1.502c-1.597-0.215-2.766-0.165-2.76-0.174
							c0.004,0.005-0.308-0.007-0.831,0.012c-0.533,0.019-1.286,0.066-2.148,0.193c-0.681,0.1-1.429,0.248-2.192,0.468
							c-0.831,0.239-1.679,0.563-2.474,1.003c0,0.616,0,1.233,0,1.85c0,0.18,0,0.526,0,0.705c0,0.507,0,0.845,0,1.352
							c0,1.719,0,3.438,0,5.156c0,1.835,0.632,3.447,2.015,4.597c0.313,0.266,0.795,0.568,1.347,0.875
							c0.469,0.261,0.988,0.524,1.5,0.771c0.603,0.292,1.193,0.56,1.674,0.772c0.66,0.292,1.114,0.479,1.11,0.475
							c-0.005,0.005,1.005-0.411,2.199-0.968c1.271-0.595,2.751-1.348,3.434-1.926c1.383-1.148,2.016-2.762,2.016-4.597
							c0-1.719,0-3.438,0-5.156c0-0.507,0-0.9,0-1.407c0-0.179,0-0.47,0-0.649C133.931,147.229,133.931,146.612,133.931,145.996"/>
					</defs>
					<clipPath id="SVGID_2_">
						<use xlink:href="#SVGID_1_"  overflow="visible"/>
					</clipPath>
					
						<linearGradient id="SVGID_3_" gradientUnits="userSpaceOnUse" x1="175.1318" y1="685.9004" x2="190.9775" y2="685.9004" gradientTransform="matrix(1 0 0 1 -56.7402 -532.5547)">
						<stop  offset="0" style="stop-color:#FFD66B"/>
						<stop  offset="0.2821" style="stop-color:#FDE2D2"/>
						<stop  offset="0.4908" style="stop-color:#E9AA70"/>
						<stop  offset="1" style="stop-color:#DC931D"/>
					</linearGradient>
					<rect x="118.392" y="144.161" clip-path="url(#SVGID_2_)" fill="url(#SVGID_3_)" width="15.846" height="18.369"/>
				</g>
			</g>
		</g>
		<g>
			<g>
				<g>
					<defs>
						<path id="SVGID_4_" d="M133.331,146.114c-2.237-0.235-4.703-0.297-7.157,0.192c-0.712,0.143-1.424,0.332-2.125,0.578
							c-0.75,0.263-1.489,0.59-2.206,0.993c-0.917,0.517-1.798,1.158-2.619,1.95c0,0.169-0.001,0.338-0.001,0.508
							c-0.001,0.812-0.002,1.625-0.003,2.438c0,0.763,0,1.526,0.001,2.29c0.001,1.703,0.613,3.135,1.81,4.129
							c0.736,0.382,1.473,0.763,2.209,1.144c0.562,0.292,1.125,0.583,1.687,0.874c0.452,0.234,0.905,0.468,1.357,0.702
							c0.901-0.375,4.186-1.818,5.253-2.72c1.196-0.994,1.808-2.427,1.809-4.129c0.002-1.641,0.001-3.282-0.001-4.922
							c-0.003-1.113-0.006-2.227-0.01-3.335C133.332,146.576,133.332,146.345,133.331,146.114"/>
					</defs>
					<clipPath id="SVGID_5_">
						<use xlink:href="#SVGID_4_"  overflow="visible"/>
					</clipPath>
					
						<linearGradient id="SVGID_6_" gradientUnits="userSpaceOnUse" x1="175.6025" y1="684.7461" x2="182.3985" y2="686.2937" gradientTransform="matrix(1 0 0 1 -56.7402 -532.5547)">
						<stop  offset="0" style="stop-color:#DBC9B8"/>
						<stop  offset="0.3114" style="stop-color:#775024"/>
						<stop  offset="1" style="stop-color:#4E2700"/>
					</linearGradient>
					<rect x="119.132" y="145.742" clip-path="url(#SVGID_5_)" fill="url(#SVGID_6_)" width="14.467" height="16.316"/>
				</g>
			</g>
		</g>
		<path fill="#3F1800" d="M126.283,161.913l-5.253-2.72C122.097,160.095,125.382,161.538,126.283,161.913"/>
		<path fill="#3F1800" d="M134.028,155.058c0,0.949-0.167,1.822-0.496,2.596c-0.346,0.809-0.868,1.508-1.555,2.077
			c-0.691,0.585-2.191,1.346-3.328,1.88c-0.65,0.307-1.244,0.568-1.629,0.734c-0.229,0.1-0.632,0.268-0.738,0.311v0.055
			c0.106-0.045,0.527-0.221,0.758-0.32c0.385-0.166,0.979-0.429,1.63-0.734c1.658-0.78,2.782-1.414,3.34-1.887
			c0.691-0.575,1.22-1.281,1.566-2.097c0.333-0.779,0.502-1.658,0.502-2.614v-9.148l-0.049,0.028L134.028,155.058"/>
		<path fill="#3F1800" d="M118.589,145.91c2.796-1.546,6.255-1.695,7.61-1.688h0.083h0.085c1.355-0.007,4.814,0.143,7.61,1.688
			l0.051,0.027l0.05-0.028l-0.077-0.042c-2.807-1.552-6.273-1.701-7.635-1.694h-0.084h-0.083c-1.36-0.007-4.828,0.143-7.635,1.693
			l-0.076,0.042l0.049,0.029L118.589,145.91"/>
		<path fill="#3F1800" d="M118.99,157.673c0.348,0.814,0.875,1.521,1.567,2.097c0.558,0.472,1.681,1.105,3.339,1.886
			c0.65,0.306,1.245,0.568,1.63,0.734c0.229,0.1,0.651,0.275,0.756,0.32v-0.055c-0.104-0.043-0.507-0.211-0.736-0.311
			c-0.385-0.166-0.979-0.428-1.629-0.734c-1.138-0.534-2.637-1.295-3.327-1.879c-0.687-0.57-1.21-1.27-1.555-2.078
			c-0.329-0.773-0.496-1.646-0.496-2.596l-0.002-9.12l-0.049-0.029l0.001,9.149C118.49,156.014,118.658,156.893,118.99,157.673"/>
		<path fill="#3F1800" d="M132.678,150.481l0.036,0.029l0.05-0.024l-0.056-0.044c-0.238-0.189-0.758-0.505-1.559-0.489l0.001,0.049
			C131.937,149.986,132.444,150.295,132.678,150.481"/>
		<path fill="#3F1800" d="M132.548,151.806c-0.24-0.254-0.661-0.53-1.122-0.538v0.049c0.445,0.009,0.853,0.275,1.086,0.523
			l0.256,0.271l-0.049-0.124L132.548,151.806"/>
		<path fill="#3F1800" d="M130.736,151.819l0.049,0.001c0.012-0.465,0.451-0.507,0.641-0.503v-0.05
			C131.268,151.265,130.749,151.296,130.736,151.819"/>
		<polyline fill="#3F1800" points="132.719,151.987 132.768,152.111 132.764,150.486 132.714,150.511 132.719,151.987 		"/>
		<path fill="#3F1800" d="M128.406,150.888c0.443,0.578,0.676,1.42,0.677,2.437h0.049c0-1.027-0.237-1.881-0.687-2.466
			c-0.468-0.609-1.161-0.931-2.006-0.932v0.049C127.269,149.977,127.948,150.292,128.406,150.888"/>
		<path fill="#3F1800" d="M129.242,151.856c0-0.682,0.329-1.113,0.605-1.356c0.352-0.308,0.826-0.489,1.304-0.498l-0.002-0.049
			c-0.487,0.009-0.975,0.195-1.333,0.51c-0.285,0.25-0.624,0.694-0.624,1.394c0,0.004,0,0.009,0,0.013h0.05
			C129.242,151.864,129.242,151.86,129.242,151.856"/>
		<path fill="#3F1800" d="M130.591,153.937l0.025-0.041c-1.146-0.68-1.37-1.258-1.374-2.027h-0.05
			C129.195,152.656,129.426,153.246,130.591,153.937"/>
		<path fill="#3F1800" d="M131.467,152.664l0.107,0.063l0.024-0.041l-0.106-0.064c-0.47-0.28-0.715-0.442-0.707-0.802l-0.049-0.001
			C130.728,152.224,131.021,152.398,131.467,152.664"/>
		<path fill="#3F1800" d="M130.886,156.81l0.001,0.049c0.648-0.007,1.189-0.23,1.564-0.647c0.316-0.352,0.501-0.825,0.518-1.332
			l-0.05-0.001C132.888,155.828,132.247,156.794,130.886,156.81"/>
		<path fill="#3F1800" d="M130.616,153.896l-0.025,0.041c0.593,0.354,0.758,0.543,0.765,0.89l0.05-0.002
			C131.396,154.462,131.221,154.254,130.616,153.896"/>
		<path fill="#3F1800" d="M131.24,155.293c0.107-0.109,0.165-0.266,0.165-0.448c0-0.007,0-0.014,0-0.021l-0.05,0.002
			c0.001,0.006,0.001,0.012,0.001,0.019c0,0.17-0.053,0.312-0.151,0.414c-0.116,0.119-0.291,0.181-0.508,0.181v0.05
			C130.927,155.489,131.115,155.421,131.24,155.293"/>
		<path fill="#3F1800" d="M132.686,153.751c0.177,0.314,0.246,0.651,0.233,1.127l0.05,0.001c0.022-0.831-0.199-1.487-1.369-2.193
			l-0.025,0.042C132.126,153.061,132.479,153.387,132.686,153.751"/>
		<path fill="#3F1800" d="M128.437,155.825c-0.442,0.642-1.084,0.98-1.854,0.981v0.049c0.787,0,1.441-0.347,1.894-1.002
			c0.429-0.622,0.655-1.497,0.655-2.529h-0.049C129.083,154.347,128.859,155.212,128.437,155.825"/>
		<path fill="#3F1800" d="M129.465,154.962c0.352,0.315,0.847,0.527,1.232,0.527v-0.05c-0.374,0-0.856-0.206-1.198-0.514
			l-0.246-0.221l0.049,0.11L129.465,154.962"/>
		<path fill="#3F1800" d="M129.347,156.384l-0.049-0.029l-0.05,0.028l0.074,0.043c0.478,0.283,1.033,0.438,1.564,0.433l-0.001-0.05
			C130.364,156.813,129.817,156.663,129.347,156.384"/>
		<polyline fill="#3F1800" points="129.302,154.815 129.253,154.705 129.248,156.383 129.298,156.354 129.302,154.815 		"/>
		<path fill="#3F1800" d="M126.11,151.378l-0.05-0.035c0,0.125,0,3.962,0,4.097l0.05-0.037
			C126.11,155.203,126.11,151.565,126.11,151.378"/>
		<path fill="#3F1800" d="M126.11,155.402l-0.05,0.037c0.085,0.025,0.209,0.055,0.349,0.055v-0.049
			C126.293,155.445,126.188,155.424,126.11,155.402"/>
		<path fill="#3F1800" d="M127.205,154.995c0.185-0.352,0.277-0.9,0.277-1.634h-0.049c-0.001,0.726-0.091,1.268-0.271,1.611
			c-0.17,0.321-0.409,0.473-0.753,0.473v0.049C126.769,155.494,127.029,155.331,127.205,154.995"/>
		<path fill="#3F1800" d="M126.062,156.758l0.05,0.06c0.142,0.025,0.299,0.039,0.472,0.038v-0.049
			C126.39,156.807,126.215,156.79,126.062,156.758"/>
		<path fill="#3F1800" d="M126.063,159.484l0.001,0.1l0.049,0.049v-0.148c0,0-0.002-2.343-0.002-2.667l-0.05-0.061
			C126.062,156.987,126.063,159.484,126.063,159.484"/>
		<path fill="#3F1800" d="M124.503,159.482c-0.015-2.915-0.019-5.916-0.013-8.917l0.001-0.054l-0.049-0.026v0.079
			c-0.008,3.002-0.003,6.003,0.012,8.918l0.001,0.146l0.048-0.049V159.482"/>
		<rect x="124.455" y="159.58" fill="#3F1800" width="1.658" height="0.053"/>
		<path fill="#3F1800" d="M124.032,150.219c-0.007,1.962-0.007,3.967-0.001,5.958v0.053l0.05,0.025v-0.078
			c-0.007-1.991-0.006-3.996,0.001-5.958v-0.149l-0.049,0.051L124.032,150.219"/>
		<path fill="#3F1800" d="M123.988,156.259c-0.545,0.37-1.271,0.56-2.104,0.552l-0.001,0.05c0.843,0.008,1.58-0.186,2.133-0.561
			l0.065-0.045l-0.05-0.025L123.988,156.259"/>
		<path fill="#3F1800" d="M122.471,155.338l-0.05-0.029c-0.126,0.064-0.298,0.1-0.493,0.099v0.049
			C122.145,155.458,122.334,155.415,122.471,155.338"/>
		<path fill="#3F1800" d="M122.417,153.439c0,0.624,0.002,1.247,0.004,1.869l0.05,0.029c-0.003-0.631-0.004-1.265-0.004-1.898
			c0-1.074,0.003-2.149,0.008-3.213v-0.097l-0.048-0.049l-0.002,0.146C122.421,151.29,122.417,152.365,122.417,153.439"/>
		<path fill="#3F1800" d="M120.313,156.219c-0.347-0.382-0.518-0.953-0.519-1.694h-0.05c0.002,0.754,0.178,1.335,0.532,1.728
			c0.36,0.396,0.9,0.602,1.605,0.608l0.001-0.05C121.192,156.804,120.665,156.604,120.313,156.219"/>
		<path fill="#3F1800" d="M121.429,155.17c0.1,0.19,0.264,0.283,0.499,0.286v-0.05c-0.139-0.001-0.56-0.005-0.562-0.816l-0.05,0.001
			C121.317,154.833,121.354,155.028,121.429,155.17"/>
		<rect x="119.745" y="150.11" fill="#3F1800" width="0.05" height="4.414"/>
		<path fill="#3F1800" d="M121.323,150.24c-0.006,1.45-0.009,2.914-0.007,4.351l0.05-0.001c-0.003-1.436-0.001-2.899,0.006-4.35
			l0.002-0.149l-0.05,0.05L121.323,150.24"/>
		<polyline fill="#3F1800" points="123.934,150.12 124.033,150.12 124.082,150.069 123.933,150.07 122.427,150.081 122.475,150.13 
			123.934,150.12 		"/>
		<rect x="119.745" y="150.091" fill="#3F1800" width="1.629" height="0.068"/>
		<path fill="#3F1800" d="M126.449,151.326c0.353,0,0.58,0.132,0.734,0.433c0.168,0.323,0.25,0.848,0.25,1.603h0.049
			c0-0.764-0.083-1.296-0.255-1.626c-0.162-0.313-0.41-0.458-0.778-0.459V151.326"/>
		<path fill="#3F1800" d="M126.449,151.326v-0.05c-0.148,0-0.292,0.031-0.389,0.066l0.05,0.035
			C126.199,151.35,126.323,151.326,126.449,151.326"/>
		<path fill="#3F1800" d="M124.442,150.485l0.049,0.026l0.045-0.029c0.522-0.341,1.146-0.506,1.903-0.506v-0.05
			c-0.768,0-1.4,0.168-1.93,0.515L124.442,150.485"/>
		<path fill="#3F1800" d="M126.193,146.403c-2.728,0.547-5.039,1.713-6.871,3.468l0.049,0.021c1.823-1.74,4.121-2.898,6.832-3.441
			c2.039-0.406,4.323-0.473,6.979-0.203l0.05-0.044C130.552,145.929,128.248,145.993,126.193,146.403"/>
		<path fill="#3F1800" d="M133.198,153.438c0,0.544-0.001,1.087-0.001,1.627c-0.002,1.674-0.608,3.062-1.757,4.016
			c-0.988,0.835-4.003,2.189-5.157,2.673v0.054c1.142-0.478,4.19-1.845,5.189-2.688c1.159-0.963,1.772-2.365,1.774-4.054
			c0-0.54,0.001-1.083,0.001-1.627c0-2.394-0.006-4.819-0.016-7.233l-0.049,0.045C133.193,148.647,133.198,151.059,133.198,153.438"
			/>
		<path fill="#3F1800" d="M121.125,159.08c-1.147-0.953-1.755-2.342-1.756-4.016c-0.001-0.532-0.001-1.072-0.001-1.62
			c0-1.158,0.001-2.347,0.003-3.552l-0.049-0.021c-0.002,1.212-0.003,2.408-0.003,3.573c0,0.548,0,1.089,0,1.62
			c0.002,1.688,0.615,3.09,1.773,4.054c0.994,0.839,4.047,2.209,5.19,2.688v-0.054C125.127,161.268,122.108,159.91,121.125,159.08"
			/>
		<path fill="#3F1800" d="M126.366,144.123l-0.084,0.001l-0.083-0.001c-1.363-0.007-4.841,0.144-7.657,1.701l-0.104,0.055
			l0.05,0.029l0.076-0.042c2.807-1.551,6.274-1.7,7.635-1.693h0.083h0.084c1.361-0.007,4.828,0.143,7.635,1.694l0.077,0.042
			l0.05-0.03l-0.104-0.055C131.208,144.267,127.73,144.116,126.366,144.123"/>
		<path fill="#3F1800" d="M134.078,155.058c0,0.956-0.169,1.835-0.502,2.615c-0.347,0.814-0.875,1.521-1.566,2.096
			c-0.558,0.473-1.682,1.106-3.34,1.887c-0.65,0.306-1.245,0.568-1.63,0.734c-0.23,0.1-0.651,0.275-0.758,0.32v0.053
			c0.106-0.045,0.547-0.228,0.778-0.327c0.384-0.168,0.979-0.43,1.631-0.735c1.66-0.782,2.788-1.419,3.35-1.894
			c0.698-0.58,1.231-1.292,1.581-2.115c0.335-0.785,0.505-1.671,0.506-2.634v-9.179l-0.05,0.03V155.058"/>
		<path fill="#3F1800" d="M125.526,162.39c-0.385-0.166-0.98-0.429-1.63-0.734c-1.658-0.78-2.781-1.414-3.339-1.886
			c-0.692-0.576-1.22-1.282-1.567-2.097c-0.332-0.78-0.5-1.659-0.501-2.615l-0.001-9.149l-0.05-0.029l0.002,9.179
			c0,0.963,0.17,1.849,0.505,2.634c0.351,0.823,0.883,1.535,1.58,2.115c0.562,0.475,1.688,1.111,3.35,1.894
			c0.65,0.306,1.246,0.567,1.631,0.735c0.23,0.1,0.672,0.283,0.776,0.327v-0.053C126.178,162.665,125.756,162.489,125.526,162.39"/>
		<g>
			<g>
				<g>
					<defs>
						<path id="SVGID_7_" d="M131.205,155.259c0.099-0.102,0.151-0.244,0.151-0.414c0-0.007,0-0.013-0.001-0.019l-0.049,0.001
							c0,0.006,0,0.013,0,0.019c0,0.159-0.046,0.286-0.137,0.38c-0.106,0.108-0.27,0.165-0.473,0.165v0.049
							C130.914,155.439,131.089,155.378,131.205,155.259"/>
					</defs>
					<clipPath id="SVGID_8_">
						<use xlink:href="#SVGID_7_"  overflow="visible"/>
					</clipPath>
					<path clip-path="url(#SVGID_8_)" fill="#492300" d="M131.205,155.259c0.099-0.102,0.151-0.244,0.151-0.414
						c0-0.007,0-0.013-0.001-0.019l-0.049,0.001c0,0.006,0,0.013,0,0.019c0,0.159-0.046,0.286-0.137,0.38
						c-0.106,0.108-0.27,0.165-0.473,0.165v0.049C130.914,155.439,131.089,155.378,131.205,155.259"/>
				</g>
			</g>
			<g>
				<g>
					<defs>
						<path id="SVGID_9_" d="M131.205,155.259c0.099-0.102,0.151-0.244,0.151-0.414c0-0.007,0-0.013-0.001-0.019l-0.049,0.001
							c0,0.006,0,0.013,0,0.019c0,0.159-0.046,0.286-0.137,0.38c-0.106,0.108-0.27,0.165-0.473,0.165v0.049
							C130.914,155.439,131.089,155.378,131.205,155.259"/>
					</defs>
					<clipPath id="SVGID_10_">
						<use xlink:href="#SVGID_9_"  overflow="visible"/>
					</clipPath>
					
						<linearGradient id="SVGID_11_" gradientUnits="userSpaceOnUse" x1="-703.7646" y1="461.6299" x2="-703.4531" y2="461.6299" gradientTransform="matrix(2.1164 0 0 -4.7729 1620.1442 2358.4478)">
						<stop  offset="0" style="stop-color:#492300"/>
						<stop  offset="1" style="stop-color:#492300"/>
					</linearGradient>
					<rect x="130.697" y="154.826" clip-path="url(#SVGID_10_)" fill="url(#SVGID_11_)" width="0.659" height="0.613"/>
				</g>
			</g>
		</g>
		<polyline fill="#3F1800" points="129.253,154.705 129.204,154.596 129.199,156.41 129.248,156.383 129.253,154.705 		"/>
		<g>
			<g>
				<g>
					<defs>
						<path id="SVGID_12_" d="M132.969,154.879l0.049,0.002c0.023-0.849-0.201-1.519-1.393-2.237l-0.026,0.043
							C132.77,153.392,132.991,154.048,132.969,154.879"/>
					</defs>
					<clipPath id="SVGID_13_">
						<use xlink:href="#SVGID_12_"  overflow="visible"/>
					</clipPath>
					<path clip-path="url(#SVGID_13_)" fill="#70491C" d="M132.969,154.879l0.049,0.002c0.023-0.849-0.201-1.519-1.393-2.237
						l-0.026,0.043C132.77,153.392,132.991,154.048,132.969,154.879"/>
				</g>
			</g>
			<g>
				<g>
					<defs>
						<path id="SVGID_14_" d="M132.969,154.879l0.049,0.002c0.023-0.849-0.201-1.519-1.393-2.237l-0.026,0.043
							C132.77,153.392,132.991,154.048,132.969,154.879"/>
					</defs>
					<clipPath id="SVGID_15_">
						<use xlink:href="#SVGID_14_"  overflow="visible"/>
					</clipPath>
					
						<linearGradient id="SVGID_16_" gradientUnits="userSpaceOnUse" x1="-836.479" y1="535.2412" x2="-836.1678" y2="535.2412" gradientTransform="matrix(4.5568 0 0 -9.988 3943.2695 5499.7617)">
						<stop  offset="0" style="stop-color:#70491C"/>
						<stop  offset="1" style="stop-color:#9C7955"/>
					</linearGradient>
					<rect x="131.599" y="152.644" clip-path="url(#SVGID_15_)" fill="url(#SVGID_16_)" width="1.442" height="2.237"/>
				</g>
			</g>
		</g>
		<g>
			<g>
				<g>
					<defs>
						<path id="SVGID_17_" d="M129.322,156.426l-0.074-0.043l-0.049,0.027l0.097,0.059c0.486,0.288,1.051,0.444,1.59,0.438v-0.049
							C130.355,156.863,129.8,156.709,129.322,156.426 M132.969,154.879l0.049,0.002c-0.018,0.519-0.205,1.003-0.529,1.363
							c-0.385,0.427-0.938,0.656-1.603,0.663v-0.049c0.649-0.007,1.19-0.23,1.565-0.647
							C132.768,155.858,132.952,155.385,132.969,154.879z"/>
					</defs>
					<clipPath id="SVGID_18_">
						<use xlink:href="#SVGID_17_"  overflow="visible"/>
					</clipPath>
					<path clip-path="url(#SVGID_18_)" fill="#492300" d="M129.322,156.426l-0.074-0.043l-0.049,0.027l0.097,0.059
						c0.486,0.288,1.051,0.444,1.59,0.438v-0.049C130.355,156.863,129.8,156.709,129.322,156.426 M132.969,154.879l0.049,0.002
						c-0.018,0.519-0.205,1.003-0.529,1.363c-0.385,0.427-0.938,0.656-1.603,0.663v-0.049c0.649-0.007,1.19-0.23,1.565-0.647
						C132.768,155.858,132.952,155.385,132.969,154.879z"/>
				</g>
			</g>
			<g>
				<g>
					<defs>
						<path id="SVGID_19_" d="M129.322,156.426l-0.074-0.043l-0.049,0.027l0.097,0.059c0.486,0.288,1.051,0.444,1.59,0.438v-0.049
							C130.355,156.863,129.8,156.709,129.322,156.426 M132.969,154.879l0.049,0.002c-0.018,0.519-0.205,1.003-0.529,1.363
							c-0.385,0.427-0.938,0.656-1.603,0.663v-0.049c0.649-0.007,1.19-0.23,1.565-0.647
							C132.768,155.858,132.952,155.385,132.969,154.879z"/>
					</defs>
					<clipPath id="SVGID_20_">
						<use xlink:href="#SVGID_19_"  overflow="visible"/>
					</clipPath>
					
						<linearGradient id="SVGID_21_" gradientUnits="userSpaceOnUse" x1="-907.8652" y1="530.9951" x2="-907.5542" y2="530.9951" gradientTransform="matrix(12.2657 0 0 -9.3352 11264.8066 5112.8447)">
						<stop  offset="0" style="stop-color:#492300"/>
						<stop  offset="1" style="stop-color:#9C7955"/>
					</linearGradient>
					<rect x="129.199" y="154.879" clip-path="url(#SVGID_20_)" fill="url(#SVGID_21_)" width="3.818" height="2.034"/>
				</g>
			</g>
		</g>
		<g>
			<g>
				<g>
					<defs>
						<path id="SVGID_22_" d="M129.499,154.926c0.343,0.308,0.824,0.514,1.198,0.514v-0.05c-0.358,0-0.837-0.205-1.166-0.5
							l-0.327-0.294l0.049,0.109L129.499,154.926"/>
					</defs>
					<clipPath id="SVGID_23_">
						<use xlink:href="#SVGID_22_"  overflow="visible"/>
					</clipPath>
					<path clip-path="url(#SVGID_23_)" fill="#663F0F" d="M129.499,154.926c0.343,0.308,0.824,0.514,1.198,0.514v-0.05
						c-0.358,0-0.837-0.205-1.166-0.5l-0.327-0.294l0.049,0.109L129.499,154.926"/>
				</g>
			</g>
			<g>
				<g>
					<defs>
						<path id="SVGID_24_" d="M129.499,154.926c0.343,0.308,0.824,0.514,1.198,0.514v-0.05c-0.358,0-0.837-0.205-1.166-0.5
							l-0.327-0.294l0.049,0.109L129.499,154.926"/>
					</defs>
					<clipPath id="SVGID_25_">
						<use xlink:href="#SVGID_24_"  overflow="visible"/>
					</clipPath>
					
						<linearGradient id="SVGID_26_" gradientUnits="userSpaceOnUse" x1="-841.0718" y1="480.5791" x2="-840.7603" y2="480.5791" gradientTransform="matrix(4.7961 0 0 -5.5125 4163.0693 2804.2117)">
						<stop  offset="0" style="stop-color:#663F0F"/>
						<stop  offset="1" style="stop-color:#492300"/>
					</linearGradient>
					<rect x="129.204" y="154.596" clip-path="url(#SVGID_25_)" fill="url(#SVGID_26_)" width="1.493" height="0.844"/>
				</g>
			</g>
		</g>
		<g>
			<g>
				<g>
					<defs>
						<path id="SVGID_27_" d="M131.492,152.622l0.106,0.064l0.026-0.043l-0.107-0.064c-0.467-0.277-0.69-0.426-0.684-0.757
							l-0.049-0.002C130.777,152.18,131.022,152.342,131.492,152.622"/>
					</defs>
					<clipPath id="SVGID_28_">
						<use xlink:href="#SVGID_27_"  overflow="visible"/>
					</clipPath>
					<path clip-path="url(#SVGID_28_)" fill="#70491C" d="M131.492,152.622l0.106,0.064l0.026-0.043l-0.107-0.064
						c-0.467-0.277-0.69-0.426-0.684-0.757l-0.049-0.002C130.777,152.18,131.022,152.342,131.492,152.622"/>
				</g>
			</g>
			<g>
				<g>
					<defs>
						<path id="SVGID_29_" d="M131.492,152.622l0.106,0.064l0.026-0.043l-0.107-0.064c-0.467-0.277-0.69-0.426-0.684-0.757
							l-0.049-0.002C130.777,152.18,131.022,152.342,131.492,152.622"/>
					</defs>
					<clipPath id="SVGID_30_">
						<use xlink:href="#SVGID_29_"  overflow="visible"/>
					</clipPath>
					
						<linearGradient id="SVGID_31_" gradientUnits="userSpaceOnUse" x1="-1143.873" y1="725.4033" x2="-1143.5615" y2="725.4033" gradientTransform="matrix(-2.6961 0 0 5.5802 -2952.3726 -3895.6465)">
						<stop  offset="0" style="stop-color:#70491C"/>
						<stop  offset="1" style="stop-color:#9C7955"/>
					</linearGradient>
					<rect x="130.777" y="151.82" clip-path="url(#SVGID_30_)" fill="url(#SVGID_31_)" width="0.848" height="0.866"/>
				</g>
			</g>
		</g>
		<g>
			<g>
				<g>
					<defs>
						<path id="SVGID_32_" d="M121.372,150.24c-0.007,1.45-0.009,2.914-0.006,4.35h0.049c-0.002-1.436,0-2.899,0.006-4.35
							l0.002-0.199l-0.049,0.05L121.372,150.24"/>
					</defs>
					<clipPath id="SVGID_33_">
						<use xlink:href="#SVGID_32_"  overflow="visible"/>
					</clipPath>
					<path clip-path="url(#SVGID_33_)" fill="#9C7955" d="M121.372,150.24c-0.007,1.45-0.009,2.914-0.006,4.35h0.049
						c-0.002-1.436,0-2.899,0.006-4.35l0.002-0.199l-0.049,0.05L121.372,150.24"/>
				</g>
			</g>
			<g>
				<g>
					<defs>
						<path id="SVGID_34_" d="M121.372,150.24c-0.007,1.45-0.009,2.914-0.006,4.35h0.049c-0.002-1.436,0-2.899,0.006-4.35
							l0.002-0.199l-0.049,0.05L121.372,150.24"/>
					</defs>
					<clipPath id="SVGID_35_">
						<use xlink:href="#SVGID_34_"  overflow="visible"/>
					</clipPath>
					
						<linearGradient id="SVGID_36_" gradientUnits="userSpaceOnUse" x1="-997.0596" y1="421.5244" x2="-996.7485" y2="421.5244" gradientTransform="matrix(0 -14.6153 -2.9907 0 1382.0474 -14417.7324)">
						<stop  offset="0" style="stop-color:#9C7955"/>
						<stop  offset="1" style="stop-color:#AF906F"/>
					</linearGradient>
					<rect x="121.363" y="150.041" clip-path="url(#SVGID_35_)" fill="url(#SVGID_36_)" width="0.06" height="4.549"/>
				</g>
			</g>
		</g>
		<path fill="#8A643E" d="M126.159,151.414l-0.049-0.036c0,0.188,0,3.825,0,4.024l0.049-0.039
			C126.159,155.102,126.159,151.662,126.159,151.414"/>
		<rect x="119.695" y="150.041" fill="#785228" width="1.728" height="0.069"/>
		<path fill="#70491C" d="M122.417,153.439c0-1.074,0.004-2.149,0.008-3.213l0.002-0.146l-0.05-0.049v0.194
			c-0.006,1.063-0.009,2.139-0.009,3.213c0,0.613,0.001,1.228,0.003,1.839l0.049,0.03
			C122.419,154.687,122.417,154.063,122.417,153.439"/>
		<g>
			<g>
				<g>
					<defs>
						<path id="SVGID_37_" d="M121.928,155.407l0.001-0.05c-0.141-0.001-0.512-0.004-0.514-0.767h-0.049
							C121.368,155.401,121.789,155.405,121.928,155.407 M121.928,155.407l0.001-0.05c0.174,0.001,0.326-0.027,0.442-0.079
							l0.049,0.03C122.295,155.373,122.123,155.408,121.928,155.407z"/>
					</defs>
					<clipPath id="SVGID_38_">
						<use xlink:href="#SVGID_37_"  overflow="visible"/>
					</clipPath>
					<path clip-path="url(#SVGID_38_)" fill="#532D00" d="M121.928,155.407l0.001-0.05c-0.141-0.001-0.512-0.004-0.514-0.767h-0.049
						C121.368,155.401,121.789,155.405,121.928,155.407 M121.928,155.407l0.001-0.05c0.174,0.001,0.326-0.027,0.442-0.079
						l0.049,0.03C122.295,155.373,122.123,155.408,121.928,155.407z"/>
				</g>
			</g>
			<g>
				<g>
					<defs>
						<path id="SVGID_39_" d="M121.928,155.407l0.001-0.05c-0.141-0.001-0.512-0.004-0.514-0.767h-0.049
							C121.368,155.401,121.789,155.405,121.928,155.407 M121.928,155.407l0.001-0.05c0.174,0.001,0.326-0.027,0.442-0.079
							l0.049,0.03C122.295,155.373,122.123,155.408,121.928,155.407z"/>
					</defs>
					<clipPath id="SVGID_40_">
						<use xlink:href="#SVGID_39_"  overflow="visible"/>
					</clipPath>
					
						<linearGradient id="SVGID_41_" gradientUnits="userSpaceOnUse" x1="-1110.4453" y1="727.7305" x2="-1110.1343" y2="727.7305" gradientTransform="matrix(-3.3879 0 0 5.4271 -3639.6602 -3794.4629)">
						<stop  offset="0" style="stop-color:#532D00"/>
						<stop  offset="1" style="stop-color:#9C7955"/>
					</linearGradient>
					<rect x="121.366" y="154.59" clip-path="url(#SVGID_40_)" fill="url(#SVGID_41_)" width="1.055" height="0.818"/>
				</g>
			</g>
		</g>
		<polyline fill="#663F0F" points="122.377,150.032 122.427,150.081 123.933,150.07 124.082,150.069 124.131,150.021 
			123.933,150.021 122.377,150.032 		"/>
		<g>
			<g>
				<g>
					<defs>
						<path id="SVGID_42_" d="M124.016,156.3c-0.553,0.375-1.29,0.568-2.133,0.561v0.049c0.853,0.008,1.601-0.188,2.16-0.569
							l0.087-0.059l-0.049-0.026L124.016,156.3 M120.277,156.252c-0.354-0.393-0.53-0.974-0.532-1.728h-0.05
							c0.002,0.767,0.183,1.359,0.546,1.76c0.369,0.407,0.922,0.618,1.642,0.625v-0.049
							C121.178,156.854,120.638,156.648,120.277,156.252z M119.695,150.062l0.05,0.048v4.414h-0.05V150.062z"/>
					</defs>
					<clipPath id="SVGID_43_">
						<use xlink:href="#SVGID_42_"  overflow="visible"/>
					</clipPath>
					<path clip-path="url(#SVGID_43_)" fill="#815B33" d="M124.016,156.3c-0.553,0.375-1.29,0.568-2.133,0.561v0.049
						c0.853,0.008,1.601-0.188,2.16-0.569l0.087-0.059l-0.049-0.026L124.016,156.3 M120.277,156.252
						c-0.354-0.393-0.53-0.974-0.532-1.728h-0.05c0.002,0.767,0.183,1.359,0.546,1.76c0.369,0.407,0.922,0.618,1.642,0.625v-0.049
						C121.178,156.854,120.638,156.648,120.277,156.252z M119.695,150.062l0.05,0.048v4.414h-0.05V150.062z"/>
				</g>
			</g>
			<g>
				<g>
					<defs>
						<path id="SVGID_44_" d="M124.016,156.3c-0.553,0.375-1.29,0.568-2.133,0.561v0.049c0.853,0.008,1.601-0.188,2.16-0.569
							l0.087-0.059l-0.049-0.026L124.016,156.3 M120.277,156.252c-0.354-0.393-0.53-0.974-0.532-1.728h-0.05
							c0.002,0.767,0.183,1.359,0.546,1.76c0.369,0.407,0.922,0.618,1.642,0.625v-0.049
							C121.178,156.854,120.638,156.648,120.277,156.252z M119.695,150.062l0.05,0.048v4.414h-0.05V150.062z"/>
					</defs>
					<clipPath id="SVGID_45_">
						<use xlink:href="#SVGID_44_"  overflow="visible"/>
					</clipPath>
					
						<linearGradient id="SVGID_46_" gradientUnits="userSpaceOnUse" x1="-912.3452" y1="575.8213" x2="-912.0337" y2="575.8213" gradientTransform="matrix(14.2448 0 0 -24.8207 13115.875 14445.7744)">
						<stop  offset="0" style="stop-color:#815B33"/>
						<stop  offset="1" style="stop-color:#9C7955"/>
					</linearGradient>
					<rect x="119.695" y="150.062" clip-path="url(#SVGID_45_)" fill="url(#SVGID_46_)" width="4.435" height="6.854"/>
				</g>
			</g>
		</g>
		<path fill="#8A643E" d="M124.082,150.219c-0.007,1.962-0.008,3.967-0.002,5.958l0.001,0.078l0.049,0.026v-0.104
			c-0.006-1.991-0.006-3.996,0.001-5.957v-0.199l-0.049,0.049V150.219"/>
		<g>
			<g>
				<g>
					<defs>
						<path id="SVGID_47_" d="M130.591,153.937l-0.025,0.043c0.575,0.342,0.734,0.523,0.741,0.848l0.049-0.001
							C131.349,154.479,131.184,154.29,130.591,153.937 M130.591,153.937l-0.025,0.043c-0.564-0.335-0.929-0.656-1.148-1.011
							c-0.189-0.31-0.271-0.639-0.273-1.1l0.049-0.001C129.195,152.656,129.426,153.246,130.591,153.937z"/>
					</defs>
					<clipPath id="SVGID_48_">
						<use xlink:href="#SVGID_47_"  overflow="visible"/>
					</clipPath>
					<path clip-path="url(#SVGID_48_)" fill="#492300" d="M130.591,153.937l-0.025,0.043c0.575,0.342,0.734,0.523,0.741,0.848
						l0.049-0.001C131.349,154.479,131.184,154.29,130.591,153.937 M130.591,153.937l-0.025,0.043
						c-0.564-0.335-0.929-0.656-1.148-1.011c-0.189-0.31-0.271-0.639-0.273-1.1l0.049-0.001
						C129.195,152.656,129.426,153.246,130.591,153.937z"/>
				</g>
			</g>
			<g>
				<g>
					<defs>
						<path id="SVGID_49_" d="M130.591,153.937l-0.025,0.043c0.575,0.342,0.734,0.523,0.741,0.848l0.049-0.001
							C131.349,154.479,131.184,154.29,130.591,153.937 M130.591,153.937l-0.025,0.043c-0.564-0.335-0.929-0.656-1.148-1.011
							c-0.189-0.31-0.271-0.639-0.273-1.1l0.049-0.001C129.195,152.656,129.426,153.246,130.591,153.937z"/>
					</defs>
					<clipPath id="SVGID_50_">
						<use xlink:href="#SVGID_49_"  overflow="visible"/>
					</clipPath>
					
						<linearGradient id="SVGID_51_" gradientUnits="userSpaceOnUse" x1="-876.71" y1="547.9512" x2="-876.3989" y2="547.9512" gradientTransform="matrix(7.1067 0 0 -12.3026 6359.6621 6894.5767)">
						<stop  offset="0" style="stop-color:#492300"/>
						<stop  offset="0.5" style="stop-color:#9C7955"/>
						<stop  offset="1" style="stop-color:#492300"/>
					</linearGradient>
					<rect x="129.144" y="151.868" clip-path="url(#SVGID_50_)" fill="url(#SVGID_51_)" width="2.212" height="2.959"/>
				</g>
			</g>
		</g>
		<path fill="#532D00" d="M124.454,159.482c-0.015-2.915-0.019-5.916-0.012-8.918v-0.079l-0.049-0.027l-0.001,0.106
			c-0.007,3.002-0.003,6.003,0.013,8.918l0.001,0.195l0.049-0.049L124.454,159.482"/>
		<g>
			<g>
				<g>
					<defs>
						<path id="SVGID_52_" d="M127.118,154.949c-0.16,0.305-0.386,0.446-0.71,0.446l0.001,0.05c0.344,0,0.583-0.151,0.753-0.473
							c0.181-0.344,0.271-0.886,0.271-1.611h-0.049C127.385,154.079,127.295,154.613,127.118,154.949 M126.408,155.396l0.001,0.05
							c-0.116,0-0.221-0.021-0.299-0.043l0.049-0.039C126.229,155.382,126.315,155.396,126.408,155.396z"/>
					</defs>
					<clipPath id="SVGID_53_">
						<use xlink:href="#SVGID_52_"  overflow="visible"/>
					</clipPath>
					<path clip-path="url(#SVGID_53_)" fill="#492300" d="M127.118,154.949c-0.16,0.305-0.386,0.446-0.71,0.446l0.001,0.05
						c0.344,0,0.583-0.151,0.753-0.473c0.181-0.344,0.271-0.886,0.271-1.611h-0.049
						C127.385,154.079,127.295,154.613,127.118,154.949 M126.408,155.396l0.001,0.05c-0.116,0-0.221-0.021-0.299-0.043l0.049-0.039
						C126.229,155.382,126.315,155.396,126.408,155.396z"/>
				</g>
			</g>
			<g>
				<g>
					<defs>
						<path id="SVGID_54_" d="M127.118,154.949c-0.16,0.305-0.386,0.446-0.71,0.446l0.001,0.05c0.344,0,0.583-0.151,0.753-0.473
							c0.181-0.344,0.271-0.886,0.271-1.611h-0.049C127.385,154.079,127.295,154.613,127.118,154.949 M126.408,155.396l0.001,0.05
							c-0.116,0-0.221-0.021-0.299-0.043l0.049-0.039C126.229,155.382,126.315,155.396,126.408,155.396z"/>
					</defs>
					<clipPath id="SVGID_55_">
						<use xlink:href="#SVGID_54_"  overflow="visible"/>
					</clipPath>
					
						<linearGradient id="SVGID_56_" gradientUnits="userSpaceOnUse" x1="-1075.4023" y1="674.5146" x2="-1075.0913" y2="674.5146" gradientTransform="matrix(-4.2513 0 0 9.4948 -4444.4199 -6249.9854)">
						<stop  offset="0" style="stop-color:#492300"/>
						<stop  offset="1" style="stop-color:#70491C"/>
					</linearGradient>
					<rect x="126.11" y="153.361" clip-path="url(#SVGID_55_)" fill="url(#SVGID_56_)" width="1.323" height="2.084"/>
				</g>
			</g>
		</g>
		<g>
			<g>
				<g>
					<defs>
						<path id="SVGID_57_" d="M126.449,151.326L126.449,151.326v0.049c0.332,0,0.546,0.125,0.69,0.406
							c0.165,0.315,0.244,0.833,0.245,1.58h0.049c0-0.755-0.082-1.279-0.25-1.603C127.029,151.458,126.802,151.326,126.449,151.326
							 M126.159,151.414l-0.049-0.036c0.089-0.028,0.213-0.052,0.339-0.052v0.049C126.344,151.375,126.239,151.392,126.159,151.414z
							"/>
					</defs>
					<clipPath id="SVGID_58_">
						<use xlink:href="#SVGID_57_"  overflow="visible"/>
					</clipPath>
					<path clip-path="url(#SVGID_58_)" fill="#492300" d="M126.449,151.326L126.449,151.326v0.049c0.332,0,0.546,0.125,0.69,0.406
						c0.165,0.315,0.244,0.833,0.245,1.58h0.049c0-0.755-0.082-1.279-0.25-1.603C127.029,151.458,126.802,151.326,126.449,151.326
						 M126.159,151.414l-0.049-0.036c0.089-0.028,0.213-0.052,0.339-0.052v0.049C126.344,151.375,126.239,151.392,126.159,151.414z"
						/>
				</g>
			</g>
			<g>
				<g>
					<defs>
						<path id="SVGID_59_" d="M126.449,151.326L126.449,151.326v0.049c0.332,0,0.546,0.125,0.69,0.406
							c0.165,0.315,0.244,0.833,0.245,1.58h0.049c0-0.755-0.082-1.279-0.25-1.603C127.029,151.458,126.802,151.326,126.449,151.326
							 M126.159,151.414l-0.049-0.036c0.089-0.028,0.213-0.052,0.339-0.052v0.049C126.344,151.375,126.239,151.392,126.159,151.414z
							"/>
					</defs>
					<clipPath id="SVGID_60_">
						<use xlink:href="#SVGID_59_"  overflow="visible"/>
					</clipPath>
					
						<linearGradient id="SVGID_61_" gradientUnits="userSpaceOnUse" x1="-1075.4009" y1="676.2041" x2="-1075.0898" y2="676.2041" gradientTransform="matrix(-4.2513 0 0 9.3376 -4444.4199 -6161.7812)">
						<stop  offset="0" style="stop-color:#492300"/>
						<stop  offset="1" style="stop-color:#9C7955"/>
					</linearGradient>
					<rect x="126.11" y="151.326" clip-path="url(#SVGID_60_)" fill="url(#SVGID_61_)" width="1.323" height="2.035"/>
				</g>
			</g>
		</g>
		<rect x="124.406" y="159.629" fill="#8A643E" width="1.757" height="0.054"/>
		<g>
			<g>
				<g>
					<defs>
						<path id="SVGID_62_" d="M124.51,150.441c0.529-0.347,1.162-0.515,1.93-0.515v-0.049c-0.778,0-1.418,0.17-1.957,0.521
							l-0.089,0.059l0.049,0.027L124.51,150.441 M126.439,149.878v0.049c0.845,0.001,1.538,0.322,2.006,0.932
							c0.449,0.586,0.687,1.438,0.687,2.466h0.05c-0.001-1.039-0.242-1.902-0.697-2.496
							C128.008,150.207,127.301,149.878,126.439,149.878z M126.111,156.817l0.049,0.059c0.13,0.02,0.27,0.028,0.423,0.028v-0.049
							C126.41,156.856,126.253,156.843,126.111,156.817z M129.132,153.324h0.05c0,1.043-0.229,1.927-0.664,2.558
							c-0.462,0.669-1.131,1.022-1.935,1.022v-0.049c0.787,0,1.441-0.347,1.894-1.002
							C128.905,155.231,129.132,154.356,129.132,153.324z"/>
					</defs>
					<clipPath id="SVGID_63_">
						<use xlink:href="#SVGID_62_"  overflow="visible"/>
					</clipPath>
					<path clip-path="url(#SVGID_63_)" fill="#3E1700" d="M124.51,150.441c0.529-0.347,1.162-0.515,1.93-0.515v-0.049
						c-0.778,0-1.418,0.17-1.957,0.521l-0.089,0.059l0.049,0.027L124.51,150.441 M126.439,149.878v0.049
						c0.845,0.001,1.538,0.322,2.006,0.932c0.449,0.586,0.687,1.438,0.687,2.466h0.05c-0.001-1.039-0.242-1.902-0.697-2.496
						C128.008,150.207,127.301,149.878,126.439,149.878z M126.111,156.817l0.049,0.059c0.13,0.02,0.27,0.028,0.423,0.028v-0.049
						C126.41,156.856,126.253,156.843,126.111,156.817z M129.132,153.324h0.05c0,1.043-0.229,1.927-0.664,2.558
						c-0.462,0.669-1.131,1.022-1.935,1.022v-0.049c0.787,0,1.441-0.347,1.894-1.002
						C128.905,155.231,129.132,154.356,129.132,153.324z"/>
				</g>
			</g>
			<g>
				<g>
					<defs>
						<path id="SVGID_64_" d="M124.51,150.441c0.529-0.347,1.162-0.515,1.93-0.515v-0.049c-0.778,0-1.418,0.17-1.957,0.521
							l-0.089,0.059l0.049,0.027L124.51,150.441 M126.439,149.878v0.049c0.845,0.001,1.538,0.322,2.006,0.932
							c0.449,0.586,0.687,1.438,0.687,2.466h0.05c-0.001-1.039-0.242-1.902-0.697-2.496
							C128.008,150.207,127.301,149.878,126.439,149.878z M126.111,156.817l0.049,0.059c0.13,0.02,0.27,0.028,0.423,0.028v-0.049
							C126.41,156.856,126.253,156.843,126.111,156.817z M129.132,153.324h0.05c0,1.043-0.229,1.927-0.664,2.558
							c-0.462,0.669-1.131,1.022-1.935,1.022v-0.049c0.787,0,1.441-0.347,1.894-1.002
							C128.905,155.231,129.132,154.356,129.132,153.324z"/>
					</defs>
					<clipPath id="SVGID_65_">
						<use xlink:href="#SVGID_64_"  overflow="visible"/>
					</clipPath>
					
						<linearGradient id="SVGID_66_" gradientUnits="userSpaceOnUse" x1="-915.8608" y1="576.4111" x2="-915.5498" y2="576.4111" gradientTransform="matrix(15.3826 0 0 -25.3747 14212.7158 14779.6377)">
						<stop  offset="0" style="stop-color:#3E1700"/>
						<stop  offset="1" style="stop-color:#9C7955"/>
					</linearGradient>
					<rect x="124.394" y="149.878" clip-path="url(#SVGID_65_)" fill="url(#SVGID_66_)" width="4.788" height="7.026"/>
				</g>
			</g>
		</g>
		<polyline fill="#8A643E" points="132.768,152.111 132.817,152.235 132.813,150.463 132.764,150.486 132.768,152.111 		"/>
		<g>
			<g>
				<g>
					<defs>
						<path id="SVGID_67_" d="M132.512,151.84c-0.233-0.248-0.641-0.515-1.086-0.522l-0.002,0.049
							c0.431,0.008,0.826,0.268,1.053,0.508l0.341,0.361l-0.05-0.124L132.512,151.84 M131.426,151.317l-0.002,0.049
							c-0.167-0.004-0.316,0.033-0.419,0.104c-0.111,0.076-0.166,0.191-0.171,0.352l-0.049-0.002
							C130.797,151.355,131.236,151.313,131.426,151.317z"/>
					</defs>
					<clipPath id="SVGID_68_">
						<use xlink:href="#SVGID_67_"  overflow="visible"/>
					</clipPath>
					<path clip-path="url(#SVGID_68_)" fill="#3E1700" d="M132.512,151.84c-0.233-0.248-0.641-0.515-1.086-0.522l-0.002,0.049
						c0.431,0.008,0.826,0.268,1.053,0.508l0.341,0.361l-0.05-0.124L132.512,151.84 M131.426,151.317l-0.002,0.049
						c-0.167-0.004-0.316,0.033-0.419,0.104c-0.111,0.076-0.166,0.191-0.171,0.352l-0.049-0.002
						C130.797,151.355,131.236,151.313,131.426,151.317z"/>
				</g>
			</g>
			<g>
				<g>
					<defs>
						<path id="SVGID_69_" d="M132.512,151.84c-0.233-0.248-0.641-0.515-1.086-0.522l-0.002,0.049
							c0.431,0.008,0.826,0.268,1.053,0.508l0.341,0.361l-0.05-0.124L132.512,151.84 M131.426,151.317l-0.002,0.049
							c-0.167-0.004-0.316,0.033-0.419,0.104c-0.111,0.076-0.166,0.191-0.171,0.352l-0.049-0.002
							C130.797,151.355,131.236,151.313,131.426,151.317z"/>
					</defs>
					<clipPath id="SVGID_70_">
						<use xlink:href="#SVGID_69_"  overflow="visible"/>
					</clipPath>
					
						<linearGradient id="SVGID_71_" gradientUnits="userSpaceOnUse" x1="-1030.0952" y1="721.751" x2="-1029.7842" y2="721.751" gradientTransform="matrix(-6.529 0 0 5.7613 -6592.6675 -4006.4478)">
						<stop  offset="0" style="stop-color:#3E1700"/>
						<stop  offset="1" style="stop-color:#9C7955"/>
					</linearGradient>
					<rect x="130.785" y="151.313" clip-path="url(#SVGID_70_)" fill="url(#SVGID_71_)" width="2.032" height="0.922"/>
				</g>
			</g>
		</g>
		<g>
			<g>
				<g>
					<defs>
						<path id="SVGID_72_" d="M129.144,151.857c0,0.003,0,0.008,0,0.012l0.049-0.001c0-0.003,0-0.008,0-0.012
							c0-0.699,0.339-1.144,0.624-1.394c0.358-0.315,0.846-0.501,1.333-0.51l-0.001-0.05c-0.499,0.01-0.997,0.2-1.366,0.523
							C129.37,150.788,129.144,151.296,129.144,151.857 M131.149,149.953l-0.001-0.05c0.816-0.016,1.348,0.307,1.591,0.501
							l0.074,0.059l-0.05,0.023l-0.055-0.044C132.47,150.253,131.95,149.938,131.149,149.953z"/>
					</defs>
					<clipPath id="SVGID_73_">
						<use xlink:href="#SVGID_72_"  overflow="visible"/>
					</clipPath>
					<path clip-path="url(#SVGID_73_)" fill="#492300" d="M129.144,151.857c0,0.003,0,0.008,0,0.012l0.049-0.001
						c0-0.003,0-0.008,0-0.012c0-0.699,0.339-1.144,0.624-1.394c0.358-0.315,0.846-0.501,1.333-0.51l-0.001-0.05
						c-0.499,0.01-0.997,0.2-1.366,0.523C129.37,150.788,129.144,151.296,129.144,151.857 M131.149,149.953l-0.001-0.05
						c0.816-0.016,1.348,0.307,1.591,0.501l0.074,0.059l-0.05,0.023l-0.055-0.044C132.47,150.253,131.95,149.938,131.149,149.953z"
						/>
				</g>
			</g>
			<g>
				<g>
					<defs>
						<path id="SVGID_74_" d="M129.144,151.857c0,0.003,0,0.008,0,0.012l0.049-0.001c0-0.003,0-0.008,0-0.012
							c0-0.699,0.339-1.144,0.624-1.394c0.358-0.315,0.846-0.501,1.333-0.51l-0.001-0.05c-0.499,0.01-0.997,0.2-1.366,0.523
							C129.37,150.788,129.144,151.296,129.144,151.857 M131.149,149.953l-0.001-0.05c0.816-0.016,1.348,0.307,1.591,0.501
							l0.074,0.059l-0.05,0.023l-0.055-0.044C132.47,150.253,131.95,149.938,131.149,149.953z"/>
					</defs>
					<clipPath id="SVGID_75_">
						<use xlink:href="#SVGID_74_"  overflow="visible"/>
					</clipPath>
					
						<linearGradient id="SVGID_76_" gradientUnits="userSpaceOnUse" x1="-906.1191" y1="528.4355" x2="-905.8076" y2="528.4355" gradientTransform="matrix(11.7886 0 0 -9.1643 10811.0127 4993.6177)">
						<stop  offset="0" style="stop-color:#492300"/>
						<stop  offset="1" style="stop-color:#70491C"/>
					</linearGradient>
					<rect x="129.144" y="149.888" clip-path="url(#SVGID_75_)" fill="url(#SVGID_76_)" width="3.67" height="1.981"/>
				</g>
			</g>
		</g>
		<path fill="#785228" d="M126.113,159.484v0.148l0.05,0.05l-0.001-0.198c0,0-0.002-2.201-0.002-2.608l-0.05-0.059
			C126.111,157.142,126.113,159.484,126.113,159.484"/>
		<g>
			<g>
				<g>
					<defs>
						<path id="SVGID_77_" d="M126.213,146.5c2.021-0.403,4.288-0.471,6.921-0.207l0.05-0.044c-2.657-0.271-4.941-0.204-6.98,0.203
							c-2.711,0.542-5.009,1.7-6.832,3.44l0.051,0.021C121.234,148.188,123.519,147.04,126.213,146.5"/>
					</defs>
					<clipPath id="SVGID_78_">
						<use xlink:href="#SVGID_77_"  overflow="visible"/>
					</clipPath>
					<path clip-path="url(#SVGID_78_)" fill="#8C6741" d="M126.213,146.5c2.021-0.403,4.288-0.471,6.921-0.207l0.05-0.044
						c-2.657-0.271-4.941-0.204-6.98,0.203c-2.711,0.542-5.009,1.7-6.832,3.44l0.051,0.021
						C121.234,148.188,123.519,147.04,126.213,146.5"/>
				</g>
			</g>
			<g>
				<g>
					<defs>
						<path id="SVGID_79_" d="M126.213,146.5c2.021-0.403,4.288-0.471,6.921-0.207l0.05-0.044c-2.657-0.271-4.941-0.204-6.98,0.203
							c-2.711,0.542-5.009,1.7-6.832,3.44l0.051,0.021C121.234,148.188,123.519,147.04,126.213,146.5"/>
					</defs>
					<clipPath id="SVGID_80_">
						<use xlink:href="#SVGID_79_"  overflow="visible"/>
					</clipPath>
					
						<linearGradient id="SVGID_81_" gradientUnits="userSpaceOnUse" x1="-938.4038" y1="558.4072" x2="-938.0928" y2="558.4072" gradientTransform="matrix(44.3701 0 0 -15.4421 41756.4531 8770.915)">
						<stop  offset="0" style="stop-color:#8C6741"/>
						<stop  offset="1" style="stop-color:#9C7955"/>
					</linearGradient>
					<rect x="119.371" y="145.979" clip-path="url(#SVGID_80_)" fill="url(#SVGID_81_)" width="13.812" height="3.936"/>
				</g>
			</g>
		</g>
		<path fill="#3F1800" d="M133.148,153.438c0,0.544,0,1.087-0.001,1.627c-0.001,1.658-0.602,3.033-1.739,3.979
			c-0.978,0.826-3.959,2.167-5.126,2.656v0.054c1.155-0.483,4.169-1.838,5.158-2.673c1.147-0.954,1.755-2.342,1.757-4.016
			c0-0.54,0-1.083,0-1.627c0-2.379-0.004-4.79-0.015-7.188l-0.049,0.044C133.144,148.678,133.148,151.073,133.148,153.438"/>
		<g>
			<g>
				<g>
					<defs>
						<path id="SVGID_82_" d="M119.369,155.064c0.001,1.674,0.608,3.062,1.756,4.016c0.983,0.83,4.002,2.188,5.158,2.673v-0.054
							c-1.168-0.491-4.152-1.835-5.127-2.658c-1.136-0.943-1.737-2.319-1.738-3.977c0-0.532,0-1.072,0-1.62
							c0-1.151,0-2.333,0.003-3.53l-0.05-0.021c-0.002,1.205-0.003,2.394-0.003,3.552
							C119.368,153.992,119.368,154.532,119.369,155.064"/>
					</defs>
					<clipPath id="SVGID_83_">
						<use xlink:href="#SVGID_82_"  overflow="visible"/>
					</clipPath>
					<path clip-path="url(#SVGID_83_)" fill="#492300" d="M119.369,155.064c0.001,1.674,0.608,3.062,1.756,4.016
						c0.983,0.83,4.002,2.188,5.158,2.673v-0.054c-1.168-0.491-4.152-1.835-5.127-2.658c-1.136-0.943-1.737-2.319-1.738-3.977
						c0-0.532,0-1.072,0-1.62c0-1.151,0-2.333,0.003-3.53l-0.05-0.021c-0.002,1.205-0.003,2.394-0.003,3.552
						C119.368,153.992,119.368,154.532,119.369,155.064"/>
				</g>
			</g>
			<g>
				<g>
					<defs>
						<path id="SVGID_84_" d="M119.369,155.064c0.001,1.674,0.608,3.062,1.756,4.016c0.983,0.83,4.002,2.188,5.158,2.673v-0.054
							c-1.168-0.491-4.152-1.835-5.127-2.658c-1.136-0.943-1.737-2.319-1.738-3.977c0-0.532,0-1.072,0-1.62
							c0-1.151,0-2.333,0.003-3.53l-0.05-0.021c-0.002,1.205-0.003,2.394-0.003,3.552
							C119.368,153.992,119.368,154.532,119.369,155.064"/>
					</defs>
					<clipPath id="SVGID_85_">
						<use xlink:href="#SVGID_84_"  overflow="visible"/>
					</clipPath>
					
						<linearGradient id="SVGID_86_" gradientUnits="userSpaceOnUse" x1="-974.7202" y1="619.6689" x2="-974.4092" y2="619.6689" gradientTransform="matrix(-22.2141 0 0 40.9025 -21526.2441 -25190.1758)">
						<stop  offset="0" style="stop-color:#492300"/>
						<stop  offset="1" style="stop-color:#70491C"/>
					</linearGradient>
					<rect x="119.368" y="149.893" clip-path="url(#SVGID_85_)" fill="url(#SVGID_86_)" width="6.915" height="11.86"/>
				</g>
			</g>
		</g>
		<path fill="#905800" d="M128.649,161.61c1.137-0.534,2.637-1.295,3.328-1.88c0.687-0.569,1.209-1.269,1.555-2.077
			c0.329-0.773,0.496-1.646,0.496-2.595v-9.121l-0.098,0.059c0,3.021,0,6.041,0,9.062c0,1.835-0.633,3.447-2.016,4.597
			c-1.323,1.12-5.644,2.904-5.633,2.894v0.106c0.106-0.043,0.509-0.211,0.738-0.311C127.405,162.179,127.999,161.917,128.649,161.61
			"/>
		<g>
			<g>
				<g>
					<defs>
						<path id="SVGID_87_" d="M120.651,159.655c-1.382-1.149-2.015-2.762-2.015-4.597c0-3.021,0-6.041,0-9.063l-0.099-0.058
							l0.001,9.121c0,0.948,0.167,1.821,0.496,2.595c0.345,0.809,0.868,1.508,1.555,2.078c0.69,0.584,2.19,1.345,3.327,1.879
							c0.649,0.307,1.244,0.568,1.629,0.734c0.229,0.1,0.632,0.268,0.736,0.311v-0.106
							C126.295,162.56,121.975,160.774,120.651,159.655"/>
					</defs>
					<clipPath id="SVGID_88_">
						<use xlink:href="#SVGID_87_"  overflow="visible"/>
					</clipPath>
					<path clip-path="url(#SVGID_88_)" fill="#FFD568" d="M120.651,159.655c-1.382-1.149-2.015-2.762-2.015-4.597
						c0-3.021,0-6.041,0-9.063l-0.099-0.058l0.001,9.121c0,0.948,0.167,1.821,0.496,2.595c0.345,0.809,0.868,1.508,1.555,2.078
						c0.69,0.584,2.19,1.345,3.327,1.879c0.649,0.307,1.244,0.568,1.629,0.734c0.229,0.1,0.632,0.268,0.736,0.311v-0.106
						C126.295,162.56,121.975,160.774,120.651,159.655"/>
				</g>
			</g>
			<g>
				<g>
					<defs>
						<path id="SVGID_89_" d="M120.651,159.655c-1.382-1.149-2.015-2.762-2.015-4.597c0-3.021,0-6.041,0-9.063l-0.099-0.058
							l0.001,9.121c0,0.948,0.167,1.821,0.496,2.595c0.345,0.809,0.868,1.508,1.555,2.078c0.69,0.584,2.19,1.345,3.327,1.879
							c0.649,0.307,1.244,0.568,1.629,0.734c0.229,0.1,0.632,0.268,0.736,0.311v-0.106
							C126.295,162.56,121.975,160.774,120.651,159.655"/>
					</defs>
					<clipPath id="SVGID_90_">
						<use xlink:href="#SVGID_89_"  overflow="visible"/>
					</clipPath>
					
						<linearGradient id="SVGID_91_" gradientUnits="userSpaceOnUse" x1="-928.6606" y1="591.2002" x2="-928.3492" y2="591.2002" gradientTransform="matrix(24.8811 0 0 -56.5076 23224.6445 33561.5781)">
						<stop  offset="0" style="stop-color:#FFD568"/>
						<stop  offset="0.8353" style="stop-color:#A36D12"/>
						<stop  offset="1" style="stop-color:#905800"/>
					</linearGradient>
					<rect x="118.537" y="145.938" clip-path="url(#SVGID_90_)" fill="url(#SVGID_91_)" width="7.758" height="16.718"/>
				</g>
			</g>
		</g>
		<path fill="#FFD568" d="M126.282,144.319c-0.011,0.017,4.292-0.179,7.648,1.677l0.098-0.059l-0.051-0.027
			c-2.796-1.547-6.255-1.695-7.61-1.688h-0.085h-0.083c-1.355-0.007-4.814,0.143-7.61,1.688l-0.052,0.027l0.099,0.058
			C121.993,144.141,126.295,144.336,126.282,144.319"/>
		<g>
			<g>
				<g>
					<defs>
						<path id="SVGID_92_" d="M130.638,151.817l0.099,0.002c0.013-0.523,0.531-0.555,0.689-0.552l0.002-0.098
							C131.047,151.162,130.649,151.33,130.638,151.817"/>
					</defs>
					<clipPath id="SVGID_93_">
						<use xlink:href="#SVGID_92_"  overflow="visible"/>
					</clipPath>
					<path clip-path="url(#SVGID_93_)" fill="#905800" d="M130.638,151.817l0.099,0.002c0.013-0.523,0.531-0.555,0.689-0.552
						l0.002-0.098C131.047,151.162,130.649,151.33,130.638,151.817"/>
				</g>
			</g>
			<g>
				<g>
					<defs>
						<path id="SVGID_94_" d="M130.638,151.817l0.099,0.002c0.013-0.523,0.531-0.555,0.689-0.552l0.002-0.098
							C131.047,151.162,130.649,151.33,130.638,151.817"/>
					</defs>
					<clipPath id="SVGID_95_">
						<use xlink:href="#SVGID_94_"  overflow="visible"/>
					</clipPath>
					
						<linearGradient id="SVGID_96_" gradientUnits="userSpaceOnUse" x1="-744.8584" y1="464.0479" x2="-744.5474" y2="464.0479" gradientTransform="matrix(2.5396 0 0 -4.9137 2022.2786 2431.6855)">
						<stop  offset="0" style="stop-color:#905800"/>
						<stop  offset="1" style="stop-color:#905800"/>
					</linearGradient>
					<rect x="130.638" y="151.162" clip-path="url(#SVGID_95_)" fill="url(#SVGID_96_)" width="0.79" height="0.657"/>
				</g>
			</g>
		</g>
		<g>
			<g>
				<g>
					<defs>
						<path id="SVGID_97_" d="M131.151,150.101v-0.099c-0.478,0.009-0.952,0.19-1.304,0.498c-0.276,0.243-0.605,0.675-0.605,1.356
							c0,0.004,0,0.008,0,0.012h0.099C129.334,150.759,130.27,150.117,131.151,150.101"/>
					</defs>
					<clipPath id="SVGID_98_">
						<use xlink:href="#SVGID_97_"  overflow="visible"/>
					</clipPath>
					<path clip-path="url(#SVGID_98_)" fill="#EFCB95" d="M131.151,150.101v-0.099c-0.478,0.009-0.952,0.19-1.304,0.498
						c-0.276,0.243-0.605,0.675-0.605,1.356c0,0.004,0,0.008,0,0.012h0.099C129.334,150.759,130.27,150.117,131.151,150.101"/>
				</g>
			</g>
			<g>
				<g>
					<defs>
						<path id="SVGID_99_" d="M131.151,150.101v-0.099c-0.478,0.009-0.952,0.19-1.304,0.498c-0.276,0.243-0.605,0.675-0.605,1.356
							c0,0.004,0,0.008,0,0.012h0.099C129.334,150.759,130.27,150.117,131.151,150.101"/>
					</defs>
					<clipPath id="SVGID_100_">
						<use xlink:href="#SVGID_99_"  overflow="visible"/>
					</clipPath>
					
						<linearGradient id="SVGID_101_" gradientUnits="userSpaceOnUse" x1="-865.0376" y1="525.3369" x2="-864.7266" y2="525.3369" gradientTransform="matrix(6.1359 0 0 -8.7975 5437.0229 4772.5884)">
						<stop  offset="0" style="stop-color:#EFCB95"/>
						<stop  offset="1" style="stop-color:#E2AB53"/>
					</linearGradient>
					<rect x="129.242" y="150.002" clip-path="url(#SVGID_100_)" fill="url(#SVGID_101_)" width="1.909" height="1.866"/>
				</g>
			</g>
		</g>
		<g>
			<g>
				<g>
					<defs>
						<path id="SVGID_102_" d="M131.428,151.17l-0.002,0.098c0.461,0.008,0.882,0.284,1.122,0.538l0.171,0.182l-0.1-0.248
							C132.344,151.446,131.896,151.177,131.428,151.17"/>
					</defs>
					<clipPath id="SVGID_103_">
						<use xlink:href="#SVGID_102_"  overflow="visible"/>
					</clipPath>
					<path clip-path="url(#SVGID_103_)" fill="#905800" d="M131.428,151.17l-0.002,0.098c0.461,0.008,0.882,0.284,1.122,0.538
						l0.171,0.182l-0.1-0.248C132.344,151.446,131.896,151.177,131.428,151.17"/>
				</g>
			</g>
			<g>
				<g>
					<defs>
						<path id="SVGID_104_" d="M131.428,151.17l-0.002,0.098c0.461,0.008,0.882,0.284,1.122,0.538l0.171,0.182l-0.1-0.248
							C132.344,151.446,131.896,151.177,131.428,151.17"/>
					</defs>
					<clipPath id="SVGID_105_">
						<use xlink:href="#SVGID_104_"  overflow="visible"/>
					</clipPath>
					
						<linearGradient id="SVGID_106_" gradientUnits="userSpaceOnUse" x1="-825.2686" y1="477.2402" x2="-824.9575" y2="477.2402" gradientTransform="matrix(4.1528 0 0 -5.4267 3558.6023 2741.418)">
						<stop  offset="0" style="stop-color:#905800"/>
						<stop  offset="0.5778" style="stop-color:#BF8934"/>
						<stop  offset="1" style="stop-color:#E4AF5D"/>
					</linearGradient>
					<rect x="131.426" y="151.17" clip-path="url(#SVGID_105_)" fill="url(#SVGID_106_)" width="1.293" height="0.817"/>
				</g>
			</g>
		</g>
		<g>
			<g>
				<g>
					<defs>
						<path id="SVGID_107_" d="M132.616,150.559l0.098-0.048l-0.036-0.029c-0.233-0.187-0.741-0.495-1.526-0.479v0.099
							C131.891,150.086,132.384,150.373,132.616,150.559"/>
					</defs>
					<clipPath id="SVGID_108_">
						<use xlink:href="#SVGID_107_"  overflow="visible"/>
					</clipPath>
					<path clip-path="url(#SVGID_108_)" fill="#E2AB53" d="M132.616,150.559l0.098-0.048l-0.036-0.029
						c-0.233-0.187-0.741-0.495-1.526-0.479v0.099C131.891,150.086,132.384,150.373,132.616,150.559"/>
				</g>
			</g>
			<g>
				<g>
					<defs>
						<path id="SVGID_109_" d="M132.616,150.559l0.098-0.048l-0.036-0.029c-0.233-0.187-0.741-0.495-1.526-0.479v0.099
							C131.891,150.086,132.384,150.373,132.616,150.559"/>
					</defs>
					<clipPath id="SVGID_110_">
						<use xlink:href="#SVGID_109_"  overflow="visible"/>
					</clipPath>
					
						<linearGradient id="SVGID_111_" gradientUnits="userSpaceOnUse" x1="-846.8677" y1="455.1631" x2="-846.5566" y2="455.1631" gradientTransform="matrix(5.0224 0 0 -4.6368 4384.4595 2260.772)">
						<stop  offset="0" style="stop-color:#E2AB53"/>
						<stop  offset="1" style="stop-color:#C27913"/>
					</linearGradient>
					<rect x="131.151" y="149.986" clip-path="url(#SVGID_110_)" fill="url(#SVGID_111_)" width="1.562" height="0.572"/>
				</g>
			</g>
		</g>
		<path fill="#905800" d="M132.619,151.739l0.1,0.248l-0.005-1.477l-0.098,0.048C132.617,150.951,132.618,151.345,132.619,151.739"
			/>
		<g>
			<g>
				<g>
					<defs>
						<path id="SVGID_112_" d="M131.523,152.812l0.051-0.085l-0.107-0.064c-0.445-0.265-0.739-0.439-0.73-0.844l-0.099-0.002
							C130.626,152.315,131.025,152.513,131.523,152.812"/>
					</defs>
					<clipPath id="SVGID_113_">
						<use xlink:href="#SVGID_112_"  overflow="visible"/>
					</clipPath>
					<path clip-path="url(#SVGID_113_)" fill="#DDAC72" d="M131.523,152.812l0.051-0.085l-0.107-0.064
						c-0.445-0.265-0.739-0.439-0.73-0.844l-0.099-0.002C130.626,152.315,131.025,152.513,131.523,152.812"/>
				</g>
			</g>
			<g>
				<g>
					<defs>
						<path id="SVGID_114_" d="M131.523,152.812l0.051-0.085l-0.107-0.064c-0.445-0.265-0.739-0.439-0.73-0.844l-0.099-0.002
							C130.626,152.315,131.025,152.513,131.523,152.812"/>
					</defs>
					<clipPath id="SVGID_115_">
						<use xlink:href="#SVGID_114_"  overflow="visible"/>
					</clipPath>
					
						<linearGradient id="SVGID_116_" gradientUnits="userSpaceOnUse" x1="-1163.6577" y1="513.9082" x2="-1163.3467" y2="513.9082" gradientTransform="matrix(0 -3.1975 -5.8447 0 3134.7371 -3567.9858)">
						<stop  offset="0" style="stop-color:#DDAC72"/>
						<stop  offset="1" style="stop-color:#905800"/>
					</linearGradient>
					<rect x="130.626" y="151.817" clip-path="url(#SVGID_115_)" fill="url(#SVGID_116_)" width="0.948" height="0.995"/>
				</g>
			</g>
		</g>
		<g>
			<g>
				<g>
					<defs>
						<path id="SVGID_117_" d="M131.405,154.824l0.099-0.001c-0.01-0.43-0.246-0.661-0.838-1.013l-0.05,0.085
							C131.221,154.254,131.396,154.462,131.405,154.824"/>
					</defs>
					<clipPath id="SVGID_118_">
						<use xlink:href="#SVGID_117_"  overflow="visible"/>
					</clipPath>
					<path clip-path="url(#SVGID_118_)" fill="#EABD79" d="M131.405,154.824l0.099-0.001c-0.01-0.43-0.246-0.661-0.838-1.013
						l-0.05,0.085C131.221,154.254,131.396,154.462,131.405,154.824"/>
				</g>
			</g>
			<g>
				<g>
					<defs>
						<path id="SVGID_119_" d="M131.405,154.824l0.099-0.001c-0.01-0.43-0.246-0.661-0.838-1.013l-0.05,0.085
							C131.221,154.254,131.396,154.462,131.405,154.824"/>
					</defs>
					<clipPath id="SVGID_120_">
						<use xlink:href="#SVGID_119_"  overflow="visible"/>
					</clipPath>
					
						<linearGradient id="SVGID_121_" gradientUnits="userSpaceOnUse" x1="-1133.4224" y1="715.0127" x2="-1133.1108" y2="715.0127" gradientTransform="matrix(-2.8519 0 0 6.058 -3100.9033 -4177.23)">
						<stop  offset="0" style="stop-color:#EABD79"/>
						<stop  offset="1" style="stop-color:#C27913"/>
					</linearGradient>
					<rect x="130.616" y="153.811" clip-path="url(#SVGID_120_)" fill="url(#SVGID_121_)" width="0.888" height="1.014"/>
				</g>
			</g>
		</g>
		<g>
			<g>
				<g>
					<defs>
						<path id="SVGID_122_" d="M129.396,156.299l-0.099,0.056l0.049,0.029c0.471,0.279,1.018,0.43,1.539,0.426l-0.001-0.1
							C130.351,156.716,129.822,156.551,129.396,156.299"/>
					</defs>
					<clipPath id="SVGID_123_">
						<use xlink:href="#SVGID_122_"  overflow="visible"/>
					</clipPath>
					<path clip-path="url(#SVGID_123_)" fill="#C27913" d="M129.396,156.299l-0.099,0.056l0.049,0.029
						c0.471,0.279,1.018,0.43,1.539,0.426l-0.001-0.1C130.351,156.716,129.822,156.551,129.396,156.299"/>
				</g>
			</g>
			<g>
				<g>
					<defs>
						<path id="SVGID_124_" d="M129.396,156.299l-0.099,0.056l0.049,0.029c0.471,0.279,1.018,0.43,1.539,0.426l-0.001-0.1
							C130.351,156.716,129.822,156.551,129.396,156.299"/>
					</defs>
					<clipPath id="SVGID_125_">
						<use xlink:href="#SVGID_124_"  overflow="visible"/>
					</clipPath>
					
						<linearGradient id="SVGID_126_" gradientUnits="userSpaceOnUse" x1="-847.6538" y1="452.2158" x2="-847.3428" y2="452.2158" gradientTransform="matrix(5.1003 0 0 -4.4543 4452.585 2170.8665)">
						<stop  offset="0" style="stop-color:#C27913"/>
						<stop  offset="0.8538" style="stop-color:#985D03"/>
						<stop  offset="1" style="stop-color:#905800"/>
					</linearGradient>
					<rect x="129.298" y="156.299" clip-path="url(#SVGID_125_)" fill="url(#SVGID_126_)" width="1.588" height="0.515"/>
				</g>
			</g>
		</g>
		<path fill="#EDC68C" d="M129.4,155.035l-0.099-0.22l-0.004,1.539l0.099-0.056C129.398,155.879,129.399,155.458,129.4,155.035"/>
		<g>
			<g>
				<g>
					<defs>
						<path id="SVGID_127_" d="M129.341,151.868h-0.099c0.004,0.77,0.229,1.348,1.374,2.027l0.05-0.085
							C129.549,153.148,129.344,152.6,129.341,151.868"/>
					</defs>
					<clipPath id="SVGID_128_">
						<use xlink:href="#SVGID_127_"  overflow="visible"/>
					</clipPath>
					<path clip-path="url(#SVGID_128_)" fill="#EFCB95" d="M129.341,151.868h-0.099c0.004,0.77,0.229,1.348,1.374,2.027l0.05-0.085
						C129.549,153.148,129.344,152.6,129.341,151.868"/>
				</g>
			</g>
			<g>
				<g>
					<defs>
						<path id="SVGID_129_" d="M129.341,151.868h-0.099c0.004,0.77,0.229,1.348,1.374,2.027l0.05-0.085
							C129.549,153.148,129.344,152.6,129.341,151.868"/>
					</defs>
					<clipPath id="SVGID_130_">
						<use xlink:href="#SVGID_129_"  overflow="visible"/>
					</clipPath>
					
						<linearGradient id="SVGID_131_" gradientUnits="userSpaceOnUse" x1="-835.7979" y1="530.0967" x2="-835.4868" y2="530.0967" gradientTransform="matrix(4.5753 0 0 -9.312 3953.2666 5089.1436)">
						<stop  offset="0" style="stop-color:#EFCB95"/>
						<stop  offset="1" style="stop-color:#C27913"/>
					</linearGradient>
					<rect x="129.242" y="151.868" clip-path="url(#SVGID_130_)" fill="url(#SVGID_131_)" width="1.424" height="2.027"/>
				</g>
			</g>
		</g>
		<g>
			<g>
				<g>
					<defs>
						<path id="SVGID_132_" d="M130.697,155.588v-0.099c-0.386,0-0.881-0.212-1.232-0.527l-0.163-0.146l0.099,0.22
							C129.748,155.35,130.267,155.588,130.697,155.588"/>
					</defs>
					<clipPath id="SVGID_133_">
						<use xlink:href="#SVGID_132_"  overflow="visible"/>
					</clipPath>
					<path clip-path="url(#SVGID_133_)" fill="#EABD79" d="M130.697,155.588v-0.099c-0.386,0-0.881-0.212-1.232-0.527l-0.163-0.146
						l0.099,0.22C129.748,155.35,130.267,155.588,130.697,155.588"/>
				</g>
			</g>
			<g>
				<g>
					<defs>
						<path id="SVGID_134_" d="M130.697,155.588v-0.099c-0.386,0-0.881-0.212-1.232-0.527l-0.163-0.146l0.099,0.22
							C129.748,155.35,130.267,155.588,130.697,155.588"/>
					</defs>
					<clipPath id="SVGID_135_">
						<use xlink:href="#SVGID_134_"  overflow="visible"/>
					</clipPath>
					
						<linearGradient id="SVGID_136_" gradientUnits="userSpaceOnUse" x1="-1067.3926" y1="731.1143" x2="-1067.0811" y2="731.1143" gradientTransform="matrix(-4.4816 0 0 5.2801 -4652.9282 -3705.1572)">
						<stop  offset="0" style="stop-color:#EABD79"/>
						<stop  offset="1" style="stop-color:#C27913"/>
					</linearGradient>
					<rect x="129.302" y="154.815" clip-path="url(#SVGID_135_)" fill="url(#SVGID_136_)" width="1.396" height="0.772"/>
				</g>
			</g>
		</g>
		<g>
			<g>
				<g>
					<defs>
						<path id="SVGID_137_" d="M130.885,156.71l0.001,0.1c1.361-0.016,2.002-0.981,2.033-1.932l-0.098-0.005
							C132.792,155.741,132.216,156.696,130.885,156.71"/>
					</defs>
					<clipPath id="SVGID_138_">
						<use xlink:href="#SVGID_137_"  overflow="visible"/>
					</clipPath>
					<path clip-path="url(#SVGID_138_)" fill="#905800" d="M130.885,156.71l0.001,0.1c1.361-0.016,2.002-0.981,2.033-1.932
						l-0.098-0.005C132.792,155.741,132.216,156.696,130.885,156.71"/>
				</g>
			</g>
			<g>
				<g>
					<defs>
						<path id="SVGID_139_" d="M130.885,156.71l0.001,0.1c1.361-0.016,2.002-0.981,2.033-1.932l-0.098-0.005
							C132.792,155.741,132.216,156.696,130.885,156.71"/>
					</defs>
					<clipPath id="SVGID_140_">
						<use xlink:href="#SVGID_139_"  overflow="visible"/>
					</clipPath>
					
						<linearGradient id="SVGID_141_" gradientUnits="userSpaceOnUse" x1="-870.8237" y1="528.4443" x2="-870.5122" y2="528.4443" gradientTransform="matrix(6.5352 0 0 -9.018 5821.894 4921.3521)">
						<stop  offset="0" style="stop-color:#905800"/>
						<stop  offset="1" style="stop-color:#9A6419"/>
					</linearGradient>
					<rect x="130.885" y="154.873" clip-path="url(#SVGID_140_)" fill="url(#SVGID_141_)" width="2.034" height="1.937"/>
				</g>
			</g>
		</g>
		<g>
			<g>
				<g>
					<defs>
						<path id="SVGID_142_" d="M131.504,154.823l-0.099,0.001c0,0.007,0,0.014,0,0.021c0,0.183-0.058,0.339-0.165,0.448
							c-0.125,0.128-0.313,0.196-0.543,0.196v0.099C131.19,155.588,131.514,155.297,131.504,154.823"/>
					</defs>
					<clipPath id="SVGID_143_">
						<use xlink:href="#SVGID_142_"  overflow="visible"/>
					</clipPath>
					<path clip-path="url(#SVGID_143_)" fill="#EABD79" d="M131.504,154.823l-0.099,0.001c0,0.007,0,0.014,0,0.021
						c0,0.183-0.058,0.339-0.165,0.448c-0.125,0.128-0.313,0.196-0.543,0.196v0.099C131.19,155.588,131.514,155.297,131.504,154.823
						"/>
				</g>
			</g>
			<g>
				<g>
					<defs>
						<path id="SVGID_144_" d="M131.504,154.823l-0.099,0.001c0,0.007,0,0.014,0,0.021c0,0.183-0.058,0.339-0.165,0.448
							c-0.125,0.128-0.313,0.196-0.543,0.196v0.099C131.19,155.588,131.514,155.297,131.504,154.823"/>
					</defs>
					<clipPath id="SVGID_145_">
						<use xlink:href="#SVGID_144_"  overflow="visible"/>
					</clipPath>
					
						<linearGradient id="SVGID_146_" gradientUnits="userSpaceOnUse" x1="-748.9966" y1="474.7119" x2="-748.6851" y2="474.7119" gradientTransform="matrix(2.5908 0 0 -5.2575 2071.198 2651.0115)">
						<stop  offset="0" style="stop-color:#EABD79"/>
						<stop  offset="1" style="stop-color:#EABD79"/>
					</linearGradient>
					<rect x="130.697" y="154.823" clip-path="url(#SVGID_145_)" fill="url(#SVGID_146_)" width="0.816" height="0.765"/>
				</g>
			</g>
		</g>
		<g>
			<g>
				<g>
					<defs>
						<path id="SVGID_147_" d="M132.821,154.873l0.098,0.005c0.013-0.476-0.057-0.812-0.233-1.127
							c-0.206-0.364-0.56-0.69-1.111-1.023l-0.051,0.085C132.641,153.486,132.843,154.082,132.821,154.873"/>
					</defs>
					<clipPath id="SVGID_148_">
						<use xlink:href="#SVGID_147_"  overflow="visible"/>
					</clipPath>
					<path clip-path="url(#SVGID_148_)" fill="#DDAC72" d="M132.821,154.873l0.098,0.005c0.013-0.476-0.057-0.812-0.233-1.127
						c-0.206-0.364-0.56-0.69-1.111-1.023l-0.051,0.085C132.641,153.486,132.843,154.082,132.821,154.873"/>
				</g>
			</g>
			<g>
				<g>
					<defs>
						<path id="SVGID_149_" d="M132.821,154.873l0.098,0.005c0.013-0.476-0.057-0.812-0.233-1.127
							c-0.206-0.364-0.56-0.69-1.111-1.023l-0.051,0.085C132.641,153.486,132.843,154.082,132.821,154.873"/>
					</defs>
					<clipPath id="SVGID_150_">
						<use xlink:href="#SVGID_149_"  overflow="visible"/>
					</clipPath>
					
						<linearGradient id="SVGID_151_" gradientUnits="userSpaceOnUse" x1="-852.1406" y1="674.085" x2="-851.8291" y2="674.085" gradientTransform="matrix(0 6.9053 7.3254 0 -4805.7168 6037.0103)">
						<stop  offset="0" style="stop-color:#DDAC72"/>
						<stop  offset="1" style="stop-color:#9A6419"/>
					</linearGradient>
					<rect x="131.523" y="152.728" clip-path="url(#SVGID_150_)" fill="url(#SVGID_151_)" width="1.408" height="2.15"/>
				</g>
			</g>
		</g>
		<g>
			<g>
				<g>
					<defs>
						<path id="SVGID_152_" d="M126.449,151.276c0.368,0.001,0.616,0.146,0.778,0.459c0.172,0.33,0.255,0.862,0.255,1.626l0.1-0.001
							c0-1.545-0.334-2.182-1.133-2.182V151.276"/>
					</defs>
					<clipPath id="SVGID_153_">
						<use xlink:href="#SVGID_152_"  overflow="visible"/>
					</clipPath>
					<path clip-path="url(#SVGID_153_)" fill="#EABD79" d="M126.449,151.276c0.368,0.001,0.616,0.146,0.778,0.459
						c0.172,0.33,0.255,0.862,0.255,1.626l0.1-0.001c0-1.545-0.334-2.182-1.133-2.182V151.276"/>
				</g>
			</g>
			<g>
				<g>
					<defs>
						<path id="SVGID_154_" d="M126.449,151.276c0.368,0.001,0.616,0.146,0.778,0.459c0.172,0.33,0.255,0.862,0.255,1.626l0.1-0.001
							c0-1.545-0.334-2.182-1.133-2.182V151.276"/>
					</defs>
					<clipPath id="SVGID_155_">
						<use xlink:href="#SVGID_154_"  overflow="visible"/>
					</clipPath>
					
						<linearGradient id="SVGID_156_" gradientUnits="userSpaceOnUse" x1="-1047.6592" y1="520.7217" x2="-1047.3481" y2="520.7217" gradientTransform="matrix(0 -7.0123 -6.4374 0 3479.1125 -7193.1328)">
						<stop  offset="0" style="stop-color:#EABD79"/>
						<stop  offset="1" style="stop-color:#905800"/>
					</linearGradient>
					<rect x="126.449" y="151.179" clip-path="url(#SVGID_155_)" fill="url(#SVGID_156_)" width="1.133" height="2.183"/>
				</g>
			</g>
		</g>
		<g>
			<g>
				<g>
					<defs>
						<path id="SVGID_157_" d="M126.449,151.276v-0.098c-0.186,0-0.376,0.044-0.487,0.099l0.099,0.065
							C126.157,151.308,126.301,151.276,126.449,151.276"/>
					</defs>
					<clipPath id="SVGID_158_">
						<use xlink:href="#SVGID_157_"  overflow="visible"/>
					</clipPath>
					<path clip-path="url(#SVGID_158_)" fill="#905800" d="M126.449,151.276v-0.098c-0.186,0-0.376,0.044-0.487,0.099l0.099,0.065
						C126.157,151.308,126.301,151.276,126.449,151.276"/>
				</g>
			</g>
			<g>
				<g>
					<defs>
						<path id="SVGID_159_" d="M126.449,151.276v-0.098c-0.186,0-0.376,0.044-0.487,0.099l0.099,0.065
							C126.157,151.308,126.301,151.276,126.449,151.276"/>
					</defs>
					<clipPath id="SVGID_160_">
						<use xlink:href="#SVGID_159_"  overflow="visible"/>
					</clipPath>
					
						<linearGradient id="SVGID_161_" gradientUnits="userSpaceOnUse" x1="-610.064" y1="397.6045" x2="-609.7524" y2="397.6045" gradientTransform="matrix(1.5651 0 0 -3.3281 1080.7733 1474.5288)">
						<stop  offset="0" style="stop-color:#905800"/>
						<stop  offset="1" style="stop-color:#905800"/>
					</linearGradient>
					<rect x="125.962" y="151.179" clip-path="url(#SVGID_160_)" fill="url(#SVGID_161_)" width="0.487" height="0.164"/>
				</g>
			</g>
		</g>
		<g>
			<g>
				<g>
					<defs>
						<path id="SVGID_162_" d="M126.583,156.707v0.1c0.77-0.001,1.411-0.34,1.854-0.981c0.423-0.613,0.646-1.479,0.646-2.501h-0.099
							C128.984,155.334,128.106,156.706,126.583,156.707"/>
					</defs>
					<clipPath id="SVGID_163_">
						<use xlink:href="#SVGID_162_"  overflow="visible"/>
					</clipPath>
					<path clip-path="url(#SVGID_163_)" fill="#905800" d="M126.583,156.707v0.1c0.77-0.001,1.411-0.34,1.854-0.981
						c0.423-0.613,0.646-1.479,0.646-2.501h-0.099C128.984,155.334,128.106,156.706,126.583,156.707"/>
				</g>
			</g>
			<g>
				<g>
					<defs>
						<path id="SVGID_164_" d="M126.583,156.707v0.1c0.77-0.001,1.411-0.34,1.854-0.981c0.423-0.613,0.646-1.479,0.646-2.501h-0.099
							C128.984,155.334,128.106,156.706,126.583,156.707"/>
					</defs>
					<clipPath id="SVGID_165_">
						<use xlink:href="#SVGID_164_"  overflow="visible"/>
					</clipPath>
					
						<linearGradient id="SVGID_166_" gradientUnits="userSpaceOnUse" x1="-884.5317" y1="554.876" x2="-884.2207" y2="554.876" gradientTransform="matrix(8.0316 0 0 -13.9884 7230.792 7916.9106)">
						<stop  offset="0" style="stop-color:#905800"/>
						<stop  offset="1" style="stop-color:#905800"/>
					</linearGradient>
					<rect x="126.583" y="153.324" clip-path="url(#SVGID_165_)" fill="url(#SVGID_166_)" width="2.499" height="3.482"/>
				</g>
			</g>
		</g>
		<g>
			<g>
				<g>
					<defs>
						<path id="SVGID_167_" d="M124.503,159.482v0.098l0.099-0.099c-0.015-2.911-0.019-5.942-0.013-8.916l-0.098-0.054l-0.001,0.054
							C124.484,153.566,124.488,156.567,124.503,159.482"/>
					</defs>
					<clipPath id="SVGID_168_">
						<use xlink:href="#SVGID_167_"  overflow="visible"/>
					</clipPath>
					<path clip-path="url(#SVGID_168_)" fill="#E0B27C" d="M124.503,159.482v0.098l0.099-0.099
						c-0.015-2.911-0.019-5.942-0.013-8.916l-0.098-0.054l-0.001,0.054C124.484,153.566,124.488,156.567,124.503,159.482"/>
				</g>
			</g>
			<g>
				<g>
					<defs>
						<path id="SVGID_169_" d="M124.503,159.482v0.098l0.099-0.099c-0.015-2.911-0.019-5.942-0.013-8.916l-0.098-0.054l-0.001,0.054
							C124.484,153.566,124.488,156.567,124.503,159.482"/>
					</defs>
					<clipPath id="SVGID_170_">
						<use xlink:href="#SVGID_169_"  overflow="visible"/>
					</clipPath>
					
						<linearGradient id="SVGID_171_" gradientUnits="userSpaceOnUse" x1="-927.208" y1="771.9795" x2="-926.897" y2="771.9795" gradientTransform="matrix(0 29.1327 3.1774 0 -2328.3459 27162.5859)">
						<stop  offset="0" style="stop-color:#E0B27C"/>
						<stop  offset="1" style="stop-color:#C27913"/>
					</linearGradient>
					<rect x="124.484" y="150.512" clip-path="url(#SVGID_170_)" fill="url(#SVGID_171_)" width="0.117" height="9.068"/>
				</g>
			</g>
		</g>
		<g>
			<g>
				<g>
					<defs>
						<path id="SVGID_172_" d="M126.061,151.343l-0.099-0.065c0,1.406,0,2.824,0.001,4.232l0.098-0.07
							C126.061,155.305,126.061,151.468,126.061,151.343"/>
					</defs>
					<clipPath id="SVGID_173_">
						<use xlink:href="#SVGID_172_"  overflow="visible"/>
					</clipPath>
					<path clip-path="url(#SVGID_173_)" fill="#905800" d="M126.061,151.343l-0.099-0.065c0,1.406,0,2.824,0.001,4.232l0.098-0.07
						C126.061,155.305,126.061,151.468,126.061,151.343"/>
				</g>
			</g>
			<g>
				<g>
					<defs>
						<path id="SVGID_174_" d="M126.061,151.343l-0.099-0.065c0,1.406,0,2.824,0.001,4.232l0.098-0.07
							C126.061,155.305,126.061,151.468,126.061,151.343"/>
					</defs>
					<clipPath id="SVGID_175_">
						<use xlink:href="#SVGID_174_"  overflow="visible"/>
					</clipPath>
					
						<linearGradient id="SVGID_176_" gradientUnits="userSpaceOnUse" x1="730.2441" y1="561.751" x2="730.5547" y2="561.751" gradientTransform="matrix(0.3172 0 0 -16.3974 -105.6725 9364.6475)">
						<stop  offset="0" style="stop-color:#905800"/>
						<stop  offset="1" style="stop-color:#905800"/>
					</linearGradient>
					<rect x="125.962" y="151.277" clip-path="url(#SVGID_175_)" fill="url(#SVGID_176_)" width="0.099" height="4.232"/>
				</g>
			</g>
		</g>
		<g>
			<g>
				<g>
					<defs>
						<path id="SVGID_177_" d="M128.984,153.324h0.099c-0.001-1.017-0.233-1.858-0.677-2.437c-0.458-0.596-1.138-0.911-1.967-0.912
							v0.1C128.081,150.076,128.982,151.319,128.984,153.324"/>
					</defs>
					<clipPath id="SVGID_178_">
						<use xlink:href="#SVGID_177_"  overflow="visible"/>
					</clipPath>
					<path clip-path="url(#SVGID_178_)" fill="#EDC68C" d="M128.984,153.324h0.099c-0.001-1.017-0.233-1.858-0.677-2.437
						c-0.458-0.596-1.138-0.911-1.967-0.912v0.1C128.081,150.076,128.982,151.319,128.984,153.324"/>
				</g>
			</g>
			<g>
				<g>
					<defs>
						<path id="SVGID_179_" d="M128.984,153.324h0.099c-0.001-1.017-0.233-1.858-0.677-2.437c-0.458-0.596-1.138-0.911-1.967-0.912
							v0.1C128.081,150.076,128.982,151.319,128.984,153.324"/>
					</defs>
					<clipPath id="SVGID_180_">
						<use xlink:href="#SVGID_179_"  overflow="visible"/>
					</clipPath>
					
						<linearGradient id="SVGID_181_" gradientUnits="userSpaceOnUse" x1="-888.0889" y1="552.7783" x2="-887.7778" y2="552.7783" gradientTransform="matrix(8.4923 0 0 -13.5561 7668.3589 7645.1782)">
						<stop  offset="0" style="stop-color:#EDC68C"/>
						<stop  offset="1" style="stop-color:#905800"/>
					</linearGradient>
					<rect x="126.439" y="149.976" clip-path="url(#SVGID_180_)" fill="url(#SVGID_181_)" width="2.644" height="3.349"/>
				</g>
			</g>
		</g>
		<g>
			<g>
				<g>
					<defs>
						<path id="SVGID_182_" d="M126.439,150.075v-0.1c-0.758,0-1.381,0.166-1.903,0.507l-0.045,0.029l0.098,0.054
							C125.086,150.241,125.691,150.075,126.439,150.075"/>
					</defs>
					<clipPath id="SVGID_183_">
						<use xlink:href="#SVGID_182_"  overflow="visible"/>
					</clipPath>
					<path clip-path="url(#SVGID_183_)" fill="#FFECC0" d="M126.439,150.075v-0.1c-0.758,0-1.381,0.166-1.903,0.507l-0.045,0.029
						l0.098,0.054C125.086,150.241,125.691,150.075,126.439,150.075"/>
				</g>
			</g>
			<g>
				<g>
					<defs>
						<path id="SVGID_184_" d="M126.439,150.075v-0.1c-0.758,0-1.381,0.166-1.903,0.507l-0.045,0.029l0.098,0.054
							C125.086,150.241,125.691,150.075,126.439,150.075"/>
					</defs>
					<clipPath id="SVGID_185_">
						<use xlink:href="#SVGID_184_"  overflow="visible"/>
					</clipPath>
					
						<linearGradient id="SVGID_186_" gradientUnits="userSpaceOnUse" x1="-865.0396" y1="456.9209" x2="-864.7285" y2="456.9209" gradientTransform="matrix(6.259 0 0 -4.6925 5538.7754 2294.366)">
						<stop  offset="0" style="stop-color:#FFECC0"/>
						<stop  offset="0.1264" style="stop-color:#FDE7B9"/>
						<stop  offset="1" style="stop-color:#EDC68C"/>
					</linearGradient>
					<rect x="124.491" y="149.976" clip-path="url(#SVGID_185_)" fill="url(#SVGID_186_)" width="1.948" height="0.59"/>
				</g>
			</g>
		</g>
		<g>
			<g>
				<g>
					<defs>
						<path id="SVGID_187_" d="M125.963,156.631l0.099,0.127c0.153,0.032,0.328,0.049,0.521,0.049v-0.1
							C126.301,156.709,126.101,156.672,125.963,156.631"/>
					</defs>
					<clipPath id="SVGID_188_">
						<use xlink:href="#SVGID_187_"  overflow="visible"/>
					</clipPath>
					<path clip-path="url(#SVGID_188_)" fill="#905800" d="M125.963,156.631l0.099,0.127c0.153,0.032,0.328,0.049,0.521,0.049v-0.1
						C126.301,156.709,126.101,156.672,125.963,156.631"/>
				</g>
			</g>
			<g>
				<g>
					<defs>
						<path id="SVGID_189_" d="M125.963,156.631l0.099,0.127c0.153,0.032,0.328,0.049,0.521,0.049v-0.1
							C126.301,156.709,126.101,156.672,125.963,156.631"/>
					</defs>
					<clipPath id="SVGID_190_">
						<use xlink:href="#SVGID_189_"  overflow="visible"/>
					</clipPath>
					
						<linearGradient id="SVGID_191_" gradientUnits="userSpaceOnUse" x1="-1217.7324" y1="802.9365" x2="-1217.4214" y2="802.9365" gradientTransform="matrix(-1.992 0 0 3.3647 -2299.1406 -2544.9211)">
						<stop  offset="0" style="stop-color:#905800"/>
						<stop  offset="1" style="stop-color:#C27913"/>
					</linearGradient>
					<rect x="125.963" y="156.631" clip-path="url(#SVGID_190_)" fill="url(#SVGID_191_)" width="0.62" height="0.176"/>
				</g>
			</g>
		</g>
		<g>
			<g>
				<g>
					<defs>
						<path id="SVGID_192_" d="M125.965,159.484l0.1,0.1l-0.001-0.1c0,0-0.002-2.496-0.002-2.727l-0.099-0.127
							C125.964,157.591,125.965,158.545,125.965,159.484"/>
					</defs>
					<clipPath id="SVGID_193_">
						<use xlink:href="#SVGID_192_"  overflow="visible"/>
					</clipPath>
					<path clip-path="url(#SVGID_193_)" fill="#905800" d="M125.965,159.484l0.1,0.1l-0.001-0.1c0,0-0.002-2.496-0.002-2.727
						l-0.099-0.127C125.964,157.591,125.965,158.545,125.965,159.484"/>
				</g>
			</g>
			<g>
				<g>
					<defs>
						<path id="SVGID_194_" d="M125.965,159.484l0.1,0.1l-0.001-0.1c0,0-0.002-2.496-0.002-2.727l-0.099-0.127
							C125.964,157.591,125.965,158.545,125.965,159.484"/>
					</defs>
					<clipPath id="SVGID_195_">
						<use xlink:href="#SVGID_194_"  overflow="visible"/>
					</clipPath>
					
						<linearGradient id="SVGID_196_" gradientUnits="userSpaceOnUse" x1="689.8057" y1="548.7354" x2="690.1182" y2="548.7354" gradientTransform="matrix(0.325 0 0 -12.287 -98.2227 6900.4229)">
						<stop  offset="0" style="stop-color:#905800"/>
						<stop  offset="1" style="stop-color:#905800"/>
					</linearGradient>
					<rect x="125.963" y="156.631" clip-path="url(#SVGID_195_)" fill="url(#SVGID_196_)" width="0.102" height="2.954"/>
				</g>
			</g>
		</g>
		<path fill="#905800" d="M124.602,159.481l-0.099,0.099l1.562,0.005l-0.1-0.101C125.51,159.484,125.056,159.483,124.602,159.481"/>
		<g>
			<g>
				<g>
					<defs>
						<path id="SVGID_197_" d="M127.482,153.361l0.1-0.001c0,1.507-0.38,2.232-1.173,2.232v-0.099c0.359,0,0.62-0.163,0.796-0.499
							C127.39,154.644,127.482,154.095,127.482,153.361"/>
					</defs>
					<clipPath id="SVGID_198_">
						<use xlink:href="#SVGID_197_"  overflow="visible"/>
					</clipPath>
					<path clip-path="url(#SVGID_198_)" fill="#FFE4A2" d="M127.482,153.361l0.1-0.001c0,1.507-0.38,2.232-1.173,2.232v-0.099
						c0.359,0,0.62-0.163,0.796-0.499C127.39,154.644,127.482,154.095,127.482,153.361"/>
				</g>
			</g>
			<g>
				<g>
					<defs>
						<path id="SVGID_199_" d="M127.482,153.361l0.1-0.001c0,1.507-0.38,2.232-1.173,2.232v-0.099c0.359,0,0.62-0.163,0.796-0.499
							C127.39,154.644,127.482,154.095,127.482,153.361"/>
					</defs>
					<clipPath id="SVGID_200_">
						<use xlink:href="#SVGID_199_"  overflow="visible"/>
					</clipPath>
					
						<linearGradient id="SVGID_201_" gradientUnits="userSpaceOnUse" x1="-799.9531" y1="535.2822" x2="-799.6416" y2="535.2822" gradientTransform="matrix(3.5289 0 0 -9.9706 2949.387 5491.5542)">
						<stop  offset="0" style="stop-color:#FFE4A2"/>
						<stop  offset="0.1" style="stop-color:#FFE4A2"/>
						<stop  offset="0.6" style="stop-color:#F7E4CA"/>
						<stop  offset="1" style="stop-color:#EABD79"/>
					</linearGradient>
					<rect x="126.409" y="153.36" clip-path="url(#SVGID_200_)" fill="url(#SVGID_201_)" width="1.173" height="2.232"/>
				</g>
			</g>
		</g>
		<path fill="#FFE4A2" d="M126.409,155.494c-0.14,0-0.264-0.029-0.349-0.055l-0.098,0.07c0.098,0.037,0.262,0.083,0.446,0.083
			V155.494"/>
		<g>
			<g>
				<g>
					<defs>
						<path id="SVGID_202_" d="M122.573,150.228l-0.099-0.098v0.097c-0.005,1.063-0.008,2.139-0.008,3.213
							c0,0.634,0.001,1.268,0.004,1.897l0.098,0.057C122.563,153.673,122.565,151.94,122.573,150.228"/>
					</defs>
					<clipPath id="SVGID_203_">
						<use xlink:href="#SVGID_202_"  overflow="visible"/>
					</clipPath>
					<path clip-path="url(#SVGID_203_)" fill="#DB9A28" d="M122.573,150.228l-0.099-0.098v0.097
						c-0.005,1.063-0.008,2.139-0.008,3.213c0,0.634,0.001,1.268,0.004,1.897l0.098,0.057
						C122.563,153.673,122.565,151.94,122.573,150.228"/>
				</g>
			</g>
			<g>
				<g>
					<defs>
						<path id="SVGID_204_" d="M122.573,150.228l-0.099-0.098v0.097c-0.005,1.063-0.008,2.139-0.008,3.213
							c0,0.634,0.001,1.268,0.004,1.897l0.098,0.057C122.563,153.673,122.565,151.94,122.573,150.228"/>
					</defs>
					<clipPath id="SVGID_205_">
						<use xlink:href="#SVGID_204_"  overflow="visible"/>
					</clipPath>
					
						<linearGradient id="SVGID_206_" gradientUnits="userSpaceOnUse" x1="-910.1396" y1="775.2842" x2="-909.8286" y2="775.2842" gradientTransform="matrix(0 16.9098 3.1425 0 -2313.813 15540.4014)">
						<stop  offset="0" style="stop-color:#DB9A28"/>
						<stop  offset="1" style="stop-color:#C27913"/>
					</linearGradient>
					<rect x="122.467" y="150.13" clip-path="url(#SVGID_205_)" fill="url(#SVGID_206_)" width="0.106" height="5.264"/>
				</g>
			</g>
		</g>
		<g>
			<g>
				<g>
					<defs>
						<path id="SVGID_207_" d="M123.933,156.177l0.099,0.053v-0.053c-0.006-1.991-0.007-3.996,0.001-5.958l0.001-0.099l-0.1,0.099
							C123.927,152.194,123.927,154.197,123.933,156.177"/>
					</defs>
					<clipPath id="SVGID_208_">
						<use xlink:href="#SVGID_207_"  overflow="visible"/>
					</clipPath>
					<path clip-path="url(#SVGID_208_)" fill="#C27913" d="M123.933,156.177l0.099,0.053v-0.053
						c-0.006-1.991-0.007-3.996,0.001-5.958l0.001-0.099l-0.1,0.099C123.927,152.194,123.927,154.197,123.933,156.177"/>
				</g>
			</g>
			<g>
				<g>
					<defs>
						<path id="SVGID_209_" d="M123.933,156.177l0.099,0.053v-0.053c-0.006-1.991-0.007-3.996,0.001-5.958l0.001-0.099l-0.1,0.099
							C123.927,152.194,123.927,154.197,123.933,156.177"/>
					</defs>
					<clipPath id="SVGID_210_">
						<use xlink:href="#SVGID_209_"  overflow="visible"/>
					</clipPath>
					
						<linearGradient id="SVGID_211_" gradientUnits="userSpaceOnUse" x1="-915.7612" y1="774.3066" x2="-915.4502" y2="774.3066" gradientTransform="matrix(0 19.627 3.1415 0 -2308.5039 18123.7812)">
						<stop  offset="0" style="stop-color:#C27913"/>
						<stop  offset="0.8538" style="stop-color:#985D03"/>
						<stop  offset="1" style="stop-color:#905800"/>
					</linearGradient>
					<rect x="123.927" y="150.12" clip-path="url(#SVGID_210_)" fill="url(#SVGID_211_)" width="0.106" height="6.109"/>
				</g>
			</g>
		</g>
		<path fill="#F7E4CA" d="M123.934,150.219l0.1-0.099h-0.1l-1.459,0.01l0.099,0.098
			C123.024,150.224,123.479,150.221,123.934,150.219"/>
		<g>
			<g>
				<g>
					<defs>
						<path id="SVGID_212_" d="M121.885,156.712l-0.001,0.099c0.833,0.008,1.56-0.182,2.104-0.552l0.043-0.029l-0.099-0.053
							C123.41,156.532,122.711,156.72,121.885,156.712"/>
					</defs>
					<clipPath id="SVGID_213_">
						<use xlink:href="#SVGID_212_"  overflow="visible"/>
					</clipPath>
					<path clip-path="url(#SVGID_213_)" fill="#905800" d="M121.885,156.712l-0.001,0.099c0.833,0.008,1.56-0.182,2.104-0.552
						l0.043-0.029l-0.099-0.053C123.41,156.532,122.711,156.72,121.885,156.712"/>
				</g>
			</g>
			<g>
				<g>
					<defs>
						<path id="SVGID_214_" d="M121.885,156.712l-0.001,0.099c0.833,0.008,1.56-0.182,2.104-0.552l0.043-0.029l-0.099-0.053
							C123.41,156.532,122.711,156.72,121.885,156.712"/>
					</defs>
					<clipPath id="SVGID_215_">
						<use xlink:href="#SVGID_214_"  overflow="visible"/>
					</clipPath>
					
						<linearGradient id="SVGID_216_" gradientUnits="userSpaceOnUse" x1="-872.1699" y1="464.8252" x2="-871.8589" y2="464.8252" gradientTransform="matrix(6.9002 0 0 -4.861 6140.0283 2416.0093)">
						<stop  offset="0" style="stop-color:#905800"/>
						<stop  offset="1" style="stop-color:#905800"/>
					</linearGradient>
					<rect x="121.884" y="156.177" clip-path="url(#SVGID_215_)" fill="url(#SVGID_216_)" width="2.147" height="0.642"/>
				</g>
			</g>
		</g>
		<g>
			<g>
				<g>
					<defs>
						<path id="SVGID_217_" d="M121.927,155.554c0.275,0.002,0.495-0.06,0.642-0.16l-0.098-0.057
							c-0.137,0.078-0.326,0.12-0.543,0.119L121.927,155.554 M121.927,155.554l0.001-0.098c-0.235-0.003-0.399-0.096-0.499-0.286
							c-0.074-0.142-0.111-0.337-0.112-0.579h-0.099C121.219,154.976,121.311,155.55,121.927,155.554z M121.225,150.24l0.1-0.1
							l-0.001,0.1c-0.006,1.45-0.009,2.914-0.007,4.351h-0.099C121.216,153.139,121.218,151.686,121.225,150.24z"/>
					</defs>
					<clipPath id="SVGID_218_">
						<use xlink:href="#SVGID_217_"  overflow="visible"/>
					</clipPath>
					
						<linearGradient id="SVGID_219_" gradientUnits="userSpaceOnUse" x1="177.957" y1="685.4014" x2="179.3086" y2="685.4014" gradientTransform="matrix(1 0 0 1 -56.7402 -532.5547)">
						<stop  offset="0" style="stop-color:#CE8E3E"/>
						<stop  offset="1" style="stop-color:#FFE7B0"/>
					</linearGradient>
					<path clip-path="url(#SVGID_218_)" fill="url(#SVGID_219_)" d="M121.927,155.554c0.275,0.002,0.495-0.06,0.642-0.16
						l-0.098-0.057c-0.137,0.078-0.326,0.12-0.543,0.119L121.927,155.554 M121.927,155.554l0.001-0.098
						c-0.235-0.003-0.399-0.096-0.499-0.286c-0.074-0.142-0.111-0.337-0.112-0.579h-0.099
						C121.219,154.976,121.311,155.55,121.927,155.554z M121.225,150.24l0.1-0.1l-0.001,0.1c-0.006,1.45-0.009,2.914-0.007,4.351
						h-0.099C121.216,153.139,121.218,151.686,121.225,150.24z"/>
				</g>
			</g>
		</g>
		<g>
			<g>
				<g>
					<defs>
						<path id="SVGID_220_" d="M119.894,154.524h-0.1c0.002,0.741,0.173,1.312,0.52,1.694c0.352,0.386,0.879,0.585,1.57,0.592
							l0.001-0.099C120.55,156.698,119.896,155.96,119.894,154.524"/>
					</defs>
					<clipPath id="SVGID_221_">
						<use xlink:href="#SVGID_220_"  overflow="visible"/>
					</clipPath>
					<path clip-path="url(#SVGID_221_)" fill="#DB9A28" d="M119.894,154.524h-0.1c0.002,0.741,0.173,1.312,0.52,1.694
						c0.352,0.386,0.879,0.585,1.57,0.592l0.001-0.099C120.55,156.698,119.896,155.96,119.894,154.524"/>
				</g>
			</g>
			<g>
				<g>
					<defs>
						<path id="SVGID_222_" d="M119.894,154.524h-0.1c0.002,0.741,0.173,1.312,0.52,1.694c0.352,0.386,0.879,0.585,1.57,0.592
							l0.001-0.099C120.55,156.698,119.896,155.96,119.894,154.524"/>
					</defs>
					<clipPath id="SVGID_223_">
						<use xlink:href="#SVGID_222_"  overflow="visible"/>
					</clipPath>
					
						<linearGradient id="SVGID_224_" gradientUnits="userSpaceOnUse" x1="-869.3223" y1="536.7119" x2="-869.0107" y2="536.7119" gradientTransform="matrix(6.7156 0 0 -10.1452 5957.8149 5600.708)">
						<stop  offset="0" style="stop-color:#DB9A28"/>
						<stop  offset="0.9376" style="stop-color:#955C03"/>
						<stop  offset="1" style="stop-color:#905800"/>
					</linearGradient>
					<rect x="119.794" y="154.524" clip-path="url(#SVGID_223_)" fill="url(#SVGID_224_)" width="2.091" height="2.286"/>
				</g>
			</g>
		</g>
		<path fill="#FAEFE1" d="M121.225,150.24l0.1-0.1l-1.529,0.019l0.099,0.098C120.333,150.25,120.777,150.244,121.225,150.24"/>
		<g>
			<g>
				<g>
					<defs>
						<polyline id="SVGID_225_" points="119.794,154.524 119.894,154.524 119.894,150.257 119.795,150.159 119.794,154.524 						
							"/>
					</defs>
					<clipPath id="SVGID_226_">
						<use xlink:href="#SVGID_225_"  overflow="visible"/>
					</clipPath>
					<rect x="119.794" y="150.159" clip-path="url(#SVGID_226_)" fill="#DB9A28" width="0.1" height="4.365"/>
				</g>
			</g>
			<g>
				<g>
					<defs>
						<polyline id="SVGID_227_" points="119.794,154.524 119.894,154.524 119.894,150.257 119.795,150.159 119.794,154.524 						
							"/>
					</defs>
					<clipPath id="SVGID_228_">
						<use xlink:href="#SVGID_227_"  overflow="visible"/>
					</clipPath>
					
						<linearGradient id="SVGID_229_" gradientUnits="userSpaceOnUse" x1="-999.0264" y1="427.8291" x2="-998.7153" y2="427.8291" gradientTransform="matrix(0 -14.0223 -3.1179 0 1453.7714 -13854.123)">
						<stop  offset="0" style="stop-color:#DB9A28"/>
						<stop  offset="0.9376" style="stop-color:#955C03"/>
						<stop  offset="1" style="stop-color:#905800"/>
					</linearGradient>
					<rect x="119.794" y="150.159" clip-path="url(#SVGID_228_)" fill="url(#SVGID_229_)" width="0.1" height="4.365"/>
				</g>
			</g>
		</g>
		<path fill="#C27913" d="M126.193,146.403c2.055-0.41,4.358-0.476,7.039-0.199l0.099-0.09c-2.237-0.235-4.703-0.298-7.156,0.192
			c-2.449,0.49-4.887,1.532-6.951,3.521l0.099,0.043C121.154,148.116,123.466,146.95,126.193,146.403"/>
		<path fill="#FFD568" d="M133.232,146.204c0.01,2.414,0.016,4.84,0.016,7.233c0,0.544-0.001,1.087-0.001,1.627
			c-0.002,1.688-0.615,3.091-1.774,4.054c-0.999,0.844-4.048,2.211-5.189,2.688v0.107c0.901-0.376,4.186-1.819,5.253-2.721
			c1.196-0.993,1.808-2.427,1.81-4.129c0.003-2.987-0.002-5.981-0.015-8.95L133.232,146.204"/>
		<g>
			<g>
				<g>
					<defs>
						<path id="SVGID_230_" d="M121.093,159.118c-1.158-0.964-1.771-2.365-1.773-4.054c0-0.531,0-1.072,0-1.62
							c0-1.165,0.001-2.361,0.003-3.573l-0.099-0.043c-0.003,1.743-0.005,3.491-0.003,5.236c0.001,1.703,0.612,3.136,1.81,4.129
							c1.067,0.901,4.354,2.345,5.253,2.721v-0.107C125.14,161.327,122.087,159.957,121.093,159.118"/>
					</defs>
					<clipPath id="SVGID_231_">
						<use xlink:href="#SVGID_230_"  overflow="visible"/>
					</clipPath>
					<path clip-path="url(#SVGID_231_)" fill="#C27913" d="M121.093,159.118c-1.158-0.964-1.771-2.365-1.773-4.054
						c0-0.531,0-1.072,0-1.62c0-1.165,0.001-2.361,0.003-3.573l-0.099-0.043c-0.003,1.743-0.005,3.491-0.003,5.236
						c0.001,1.703,0.612,3.136,1.81,4.129c1.067,0.901,4.354,2.345,5.253,2.721v-0.107
						C125.14,161.327,122.087,159.957,121.093,159.118"/>
				</g>
			</g>
			<g>
				<g>
					<defs>
						<path id="SVGID_232_" d="M121.093,159.118c-1.158-0.964-1.771-2.365-1.773-4.054c0-0.531,0-1.072,0-1.62
							c0-1.165,0.001-2.361,0.003-3.573l-0.099-0.043c-0.003,1.743-0.005,3.491-0.003,5.236c0.001,1.703,0.612,3.136,1.81,4.129
							c1.067,0.901,4.354,2.345,5.253,2.721v-0.107C125.14,161.327,122.087,159.957,121.093,159.118"/>
					</defs>
					<clipPath id="SVGID_233_">
						<use xlink:href="#SVGID_232_"  overflow="visible"/>
					</clipPath>
					
						<linearGradient id="SVGID_234_" gradientUnits="userSpaceOnUse" x1="-967.7651" y1="581.9941" x2="-967.4536" y2="581.9941" gradientTransform="matrix(0 -38.8261 -25.494 0 14960.1113 -37412.6328)">
						<stop  offset="0" style="stop-color:#C27913"/>
						<stop  offset="0.3" style="stop-color:#DB9A28"/>
						<stop  offset="1" style="stop-color:#C27913"/>
					</linearGradient>
					<rect x="119.219" y="149.828" clip-path="url(#SVGID_233_)" fill="url(#SVGID_234_)" width="7.064" height="12.086"/>
				</g>
			</g>
		</g>
		<g>
			<g>
				<g>
					<defs>
						<path id="SVGID_235_" d="M131.503,154.823c-0.009-0.43-0.244-0.662-0.837-1.014c-1.116-0.662-1.322-1.21-1.325-1.941
							c-0.007-1.11,0.929-1.751,1.812-1.768c0.738-0.015,1.231,0.272,1.464,0.458c0.001,0.393,0.002,0.786,0.002,1.18
							c-0.274-0.292-0.722-0.561-1.19-0.568c-0.381-0.008-0.778,0.16-0.79,0.647c-0.012,0.497,0.388,0.695,0.886,0.995
							c1.116,0.674,1.319,1.269,1.298,2.061c-0.029,0.868-0.605,1.822-1.937,1.837c-0.533,0.006-1.062-0.159-1.488-0.411
							c0.002-0.42,0.003-0.842,0.004-1.264c0.349,0.312,0.866,0.552,1.297,0.552C131.19,155.587,131.514,155.297,131.503,154.823
							 M125.962,151.276c0.111-0.054,0.302-0.098,0.487-0.098c0.799,0,1.131,0.638,1.133,2.182
							c-0.001,1.506-0.381,2.232-1.174,2.232c-0.185,0-0.348-0.047-0.446-0.084C125.962,154.102,125.962,152.685,125.962,151.276z
							 M125.965,159.485c-0.001-0.94-0.002-1.894-0.002-2.854c0.137,0.04,0.338,0.076,0.619,0.076
							c1.524-0.002,2.402-1.374,2.402-3.384c-0.001-2.005-0.904-3.248-2.545-3.249c-0.748,0-1.354,0.166-1.851,0.49
							c-0.007,2.974-0.002,6.005,0.012,8.916C125.056,159.483,125.51,159.484,125.965,159.485z M121.927,155.554
							c0.275,0.002,0.495-0.061,0.642-0.162c-0.005-1.72-0.003-3.45,0.005-5.164c0.452-0.004,0.905-0.007,1.36-0.009
							c-0.006,1.976-0.007,3.978-0.001,5.958c-0.522,0.354-1.221,0.543-2.047,0.535c-1.335-0.014-1.99-0.752-1.992-2.188
							c0-1.423,0-2.848,0-4.267c0.439-0.007,0.884-0.012,1.331-0.017c-0.007,1.444-0.009,2.899-0.007,4.35
							C121.22,154.976,121.311,155.55,121.927,155.554z"/>
					</defs>
					<clipPath id="SVGID_236_">
						<use xlink:href="#SVGID_235_"  overflow="visible"/>
					</clipPath>
					<path clip-path="url(#SVGID_236_)" fill="#DA9017" d="M131.503,154.823c-0.009-0.43-0.244-0.662-0.837-1.014
						c-1.116-0.662-1.322-1.21-1.325-1.941c-0.007-1.11,0.929-1.751,1.812-1.768c0.738-0.015,1.231,0.272,1.464,0.458
						c0.001,0.393,0.002,0.786,0.002,1.18c-0.274-0.292-0.722-0.561-1.19-0.568c-0.381-0.008-0.778,0.16-0.79,0.647
						c-0.012,0.497,0.388,0.695,0.886,0.995c1.116,0.674,1.319,1.269,1.298,2.061c-0.029,0.868-0.605,1.822-1.937,1.837
						c-0.533,0.006-1.062-0.159-1.488-0.411c0.002-0.42,0.003-0.842,0.004-1.264c0.349,0.312,0.866,0.552,1.297,0.552
						C131.19,155.587,131.514,155.297,131.503,154.823 M125.962,151.276c0.111-0.054,0.302-0.098,0.487-0.098
						c0.799,0,1.131,0.638,1.133,2.182c-0.001,1.506-0.381,2.232-1.174,2.232c-0.185,0-0.348-0.047-0.446-0.084
						C125.962,154.102,125.962,152.685,125.962,151.276z M125.965,159.485c-0.001-0.94-0.002-1.894-0.002-2.854
						c0.137,0.04,0.338,0.076,0.619,0.076c1.524-0.002,2.402-1.374,2.402-3.384c-0.001-2.005-0.904-3.248-2.545-3.249
						c-0.748,0-1.354,0.166-1.851,0.49c-0.007,2.974-0.002,6.005,0.012,8.916C125.056,159.483,125.51,159.484,125.965,159.485z
						 M121.927,155.554c0.275,0.002,0.495-0.061,0.642-0.162c-0.005-1.72-0.003-3.45,0.005-5.164
						c0.452-0.004,0.905-0.007,1.36-0.009c-0.006,1.976-0.007,3.978-0.001,5.958c-0.522,0.354-1.221,0.543-2.047,0.535
						c-1.335-0.014-1.99-0.752-1.992-2.188c0-1.423,0-2.848,0-4.267c0.439-0.007,0.884-0.012,1.331-0.017
						c-0.007,1.444-0.009,2.899-0.007,4.35C121.22,154.976,121.311,155.55,121.927,155.554z"/>
				</g>
			</g>
			<g>
				<g>
					<defs>
						<path id="SVGID_237_" d="M131.503,154.823c-0.009-0.43-0.244-0.662-0.837-1.014c-1.116-0.662-1.322-1.21-1.325-1.941
							c-0.007-1.11,0.929-1.751,1.812-1.768c0.738-0.015,1.231,0.272,1.464,0.458c0.001,0.393,0.002,0.786,0.002,1.18
							c-0.274-0.292-0.722-0.561-1.19-0.568c-0.381-0.008-0.778,0.16-0.79,0.647c-0.012,0.497,0.388,0.695,0.886,0.995
							c1.116,0.674,1.319,1.269,1.298,2.061c-0.029,0.868-0.605,1.822-1.937,1.837c-0.533,0.006-1.062-0.159-1.488-0.411
							c0.002-0.42,0.003-0.842,0.004-1.264c0.349,0.312,0.866,0.552,1.297,0.552C131.19,155.587,131.514,155.297,131.503,154.823
							 M125.962,151.276c0.111-0.054,0.302-0.098,0.487-0.098c0.799,0,1.131,0.638,1.133,2.182
							c-0.001,1.506-0.381,2.232-1.174,2.232c-0.185,0-0.348-0.047-0.446-0.084C125.962,154.102,125.962,152.685,125.962,151.276z
							 M125.965,159.485c-0.001-0.94-0.002-1.894-0.002-2.854c0.137,0.04,0.338,0.076,0.619,0.076
							c1.524-0.002,2.402-1.374,2.402-3.384c-0.001-2.005-0.904-3.248-2.545-3.249c-0.748,0-1.354,0.166-1.851,0.49
							c-0.007,2.974-0.002,6.005,0.012,8.916C125.056,159.483,125.51,159.484,125.965,159.485z M121.927,155.554
							c0.275,0.002,0.495-0.061,0.642-0.162c-0.005-1.72-0.003-3.45,0.005-5.164c0.452-0.004,0.905-0.007,1.36-0.009
							c-0.006,1.976-0.007,3.978-0.001,5.958c-0.522,0.354-1.221,0.543-2.047,0.535c-1.335-0.014-1.99-0.752-1.992-2.188
							c0-1.423,0-2.848,0-4.267c0.439-0.007,0.884-0.012,1.331-0.017c-0.007,1.444-0.009,2.899-0.007,4.35
							C121.22,154.976,121.311,155.55,121.927,155.554z"/>
					</defs>
					<clipPath id="SVGID_238_">
						<use xlink:href="#SVGID_237_"  overflow="visible"/>
					</clipPath>
					
						<radialGradient id="SVGID_239_" cx="178.9111" cy="684.2412" r="8.904" gradientTransform="matrix(1 0 0 1 -56.7402 -532.5547)" gradientUnits="userSpaceOnUse">
						<stop  offset="0" style="stop-color:#FFE7B0"/>
						<stop  offset="0.5275" style="stop-color:#FEBF52"/>
						<stop  offset="0.5568" style="stop-color:#F9B94C"/>
						<stop  offset="1" style="stop-color:#DA9017"/>
					</radialGradient>
					<rect x="119.86" y="150.071" clip-path="url(#SVGID_238_)" fill="url(#SVGID_239_)" width="13.009" height="9.465"/>
				</g>
			</g>
		</g>
		<g>
			<path fill="#905800" d="M131.702,162.318c0,0.451-0.354,0.805-0.813,0.805c-0.455,0-0.819-0.354-0.819-0.805
				c0-0.44,0.364-0.794,0.819-0.794C131.349,161.524,131.702,161.878,131.702,162.318z M130.273,162.318
				c0,0.354,0.262,0.635,0.62,0.635c0.349,0,0.605-0.28,0.605-0.63c0-0.354-0.257-0.64-0.61-0.64S130.273,161.97,130.273,162.318z
				 M130.763,162.735h-0.185v-0.795c0.073-0.015,0.175-0.024,0.306-0.024c0.15,0,0.218,0.024,0.276,0.059
				c0.043,0.034,0.077,0.097,0.077,0.175c0,0.087-0.067,0.154-0.165,0.184v0.01c0.078,0.029,0.121,0.087,0.146,0.194
				c0.024,0.121,0.039,0.169,0.059,0.198h-0.199c-0.023-0.029-0.038-0.102-0.062-0.194c-0.015-0.087-0.063-0.126-0.165-0.126h-0.087
				V162.735L130.763,162.735z M130.768,162.285h0.087c0.102,0,0.185-0.034,0.185-0.117c0-0.072-0.054-0.121-0.17-0.121
				c-0.049,0-0.082,0.005-0.102,0.01V162.285L130.768,162.285z"/>
		</g>
	</g>
</g>
</svg>
