<?xml version="1.0" encoding="utf-8"?>
<!DOCTYPE svg PUBLIC "-//W3C//DTD SVG 1.1//EN" "http://www.w3.org/Graphics/SVG/1.1/DTD/svg11.dtd">
<svg version="1.1" id="Layer_1" xmlns="http://www.w3.org/2000/svg" xmlns:xlink="http://www.w3.org/1999/xlink" x="0px" y="0px"
	 width="19px" height="19px" viewBox="40.396 39.076 19 19" enable-background="new 40.396 39.076 19 19" xml:space="preserve">
<path fill="#D92C27" d="M59.396,48.578c0,5.245-4.249,9.498-9.502,9.498c-5.246,0-9.498-4.253-9.498-9.498
	c0-5.25,4.252-9.502,9.498-9.502C55.146,39.076,59.396,43.328,59.396,48.578z"/>
<g>
	<polygon fill="#FFFFFF" points="46.884,49.815 47.558,49.142 55.085,48.803 55.421,48.467 48.005,48.467 43.961,43.744 
		57.442,48.241 52.951,52.738 43.961,52.738 44.862,51.837 52.387,51.502 52.72,51.163 45.533,51.163 46.209,50.487 53.735,50.15 
		54.072,49.815 	"/>
</g>
</svg>
