<?xml version="1.0" encoding="utf-8"?>
<!DOCTYPE svg PUBLIC "-//W3C//DTD SVG 1.1//EN" "http://www.w3.org/Graphics/SVG/1.1/DTD/svg11.dtd">
<svg version="1.1" id="Layer_1" xmlns="http://www.w3.org/2000/svg" xmlns:xlink="http://www.w3.org/1999/xlink" x="0px" y="0px"
	 width="67px" height="66.667px" viewBox="0 0 67 66.667" enable-background="new 0 0 67 66.667" xml:space="preserve">
<path fill="#A0D5B1" d="M67,27.5C67,12.312,52.001,0,33.5,0S0,12.312,0,27.5c0,13.35,11.59,24.475,26.96,26.972L34,66.667
	l7.157-12.397C55.967,51.426,67,40.524,67,27.5z"/>
<g>
	<g>
		<path fill="#FFFFFF" d="M41.816,13.271c-2.866,1.131-5.009,2.38-6.62,3.671c-0.541,0.433-1.021,0.87-1.446,1.309
			c-1.697-1.748-4.24-3.468-8.066-4.979c-11.035-4.358-14.825,5.658-14.7,9.234c0.097,2.719-0.799,12.956,22.765,25.799
			c0,0,0,0,0-0.001l0.001,0.001h0.042V48.28c23.519-12.832,22.626-23.058,22.722-25.775C56.642,18.93,52.852,8.914,41.816,13.271z
			 M33.751,44.958c0,0.003,0,0.006,0,0.01H33.75c0-0.004,0-0.007,0-0.01c-21.924-13.324-20.528-25.512-15.36-28.173
			c5.469-2.817,12.337,2.915,12.337,2.915c0.391,0.349,0.764,0.705,1.11,1.084c-0.169,0.301-0.323,0.601-0.456,0.898
			c-0.226,0.503-0.397,0.999-0.534,1.481c-0.373,1.319-0.457,3.892-0.47,4.928l-0.072-0.062c-4.763-2.962-8.165-1.749-8.165,3.467
			c0,2.314,1.527,4.553,3.451,6.457v-5.326c0-2.706,2.127-2.93,4.84-0.514v0.839v8.818c1.65,1.074,2.887,1.709,2.887,1.709V32.95
			v-1.338v-1.309c0-0.155,0-0.321,0-0.481c0-0.243,0-0.484,0-0.729c0-1.422,0.157-3.926,0.431-4.902
			c0.275,0.976,0.431,3.479,0.431,4.902c0,1.372,0,2.52,0,2.52c0,0.736,0.023,1.312,0.064,1.766v10.1
			c0,0,11.179-5.722,11.179-11.983c0-3.357-1.407-5.064-3.681-5.064c-1.29,0-2.863,0.561-4.612,1.67v0l-0.009,0.004
			c-0.017-1.417-0.161-4.536-1.003-6.423c-0.132-0.297-0.287-0.597-0.457-0.898c0.347-0.379,0.719-0.735,1.109-1.084
			c0,0,0.104-0.086,0.289-0.232c1.422-1.12,7.209-5.175,12.05-2.682C54.279,19.445,55.674,31.633,33.751,44.958z M37.132,37.802
			V32.95v-0.839c1.259-1.121,2.392-1.673,3.245-1.673c0.985,0,1.597,0.737,1.597,2.188C41.973,35.331,37.132,37.802,37.132,37.802z"
			/>
	</g>
</g>
</svg>
